<svg width="22" height="22" viewBox="0 0 22 22" fill="none" xmlns="http://www.w3.org/2000/svg">
<path d="M9.3158 16.1474C9.53914 16.1474 9.75333 16.0542 9.91126 15.8884C10.0692 15.7226 10.1579 15.4977 10.1579 15.2632V9.95791C10.1579 9.7234 10.0692 9.4985 9.91126 9.33267C9.75333 9.16685 9.53914 9.0737 9.3158 9.0737C9.09246 9.0737 8.87827 9.16685 8.72034 9.33267C8.56242 9.4985 8.47369 9.7234 8.47369 9.95791V15.2632C8.47369 15.4977 8.56242 15.7226 8.72034 15.8884C8.87827 16.0542 9.09246 16.1474 9.3158 16.1474ZM18.1579 5.53685H14.3684V4.65264C14.3684 3.94911 14.1023 3.2744 13.6285 2.77694C13.1547 2.27947 12.5121 2 11.8421 2H10.1579C9.48789 2 8.84531 2.27947 8.37153 2.77694C7.89775 3.2744 7.63159 3.94911 7.63159 4.65264V5.53685H3.84211C3.61877 5.53685 3.40457 5.63001 3.24665 5.79583C3.08872 5.96165 3 6.18655 3 6.42106C3 6.65557 3.08872 6.88047 3.24665 7.04629C3.40457 7.21211 3.61877 7.30527 3.84211 7.30527H4.68421V17.0316C4.68421 17.7351 4.95038 18.4098 5.42416 18.9073C5.89793 19.4048 6.96157 19.6842 7.63159 19.6842H14.7895C15.4595 19.6842 16.1021 19.4048 16.5758 18.9073C17.0496 18.4098 17.3158 17.7351 17.3158 17.0316V7.30527H18.1579C18.3812 7.30527 18.5954 7.21211 18.7534 7.04629C18.9113 6.88047 19 6.65557 19 6.42106C19 6.18655 18.9113 5.96165 18.7534 5.79583C18.5954 5.63001 18.3812 5.53685 18.1579 5.53685ZM9.3158 4.65264C9.3158 4.41813 9.40452 4.19323 9.56245 4.0274C9.72037 3.86158 9.93457 3.76842 10.1579 3.76842H11.8421C12.0655 3.76842 12.2797 3.86158 12.4376 4.0274C12.5955 4.19323 12.6842 4.41813 12.6842 4.65264V5.53685H9.3158V4.65264ZM15.6316 17.0316C15.6316 17.2661 15.5429 17.491 15.3849 17.6568C15.227 17.8227 15.0128 17.9158 14.7895 17.9158C14.5661 17.9158 7.21053 17.9158 7.21053 17.9158C6.98719 17.9158 6.773 17.8227 6.61507 17.6568C6.45715 17.491 6.36843 17.2661 6.36843 17.0316V7.30527H15.6316V17.0316ZM12.6842 16.1474C12.9076 16.1474 13.1218 16.0542 13.2797 15.8884C13.4376 15.7226 13.5263 15.4977 13.5263 15.2632V9.95791C13.5263 9.7234 13.4376 9.4985 13.2797 9.33267C13.1218 9.16685 12.9076 9.0737 12.6842 9.0737C12.4609 9.0737 12.2467 9.16685 12.0888 9.33267C11.9308 9.4985 11.8421 9.7234 11.8421 9.95791V15.2632C11.8421 15.4977 11.9308 15.7226 12.0888 15.8884C12.2467 16.0542 12.4609 16.1474 12.6842 16.1474Z" fill="#383F43"/>
</svg>
