<svg width="14" height="14" viewBox="0 0 14 14" fill="none" xmlns="http://www.w3.org/2000/svg">
<path fill-rule="evenodd" clip-rule="evenodd" d="M7 14C10.866 14 14 10.8659 14 7C14 3.13408 10.866 0 7 0C3.134 0 0 3.13408 0 7C0 10.8659 3.134 14 7 14ZM10.1012 3.8989C10.3585 4.15605 10.3585 4.57324 10.1012 4.8306L7.93172 7L10.1012 9.1694C10.3584 9.42676 10.3584 9.84395 10.1012 10.1011C9.84388 10.3585 9.42673 10.3585 9.16943 10.1011L7 7.9317L4.83057 10.1011C4.57329 10.3585 4.15615 10.3585 3.89885 10.1011C3.64157 9.84395 3.64157 9.42676 3.89885 9.1694L6.06828 7L3.89885 4.8306C3.64157 4.57324 3.64157 4.15605 3.89885 3.8989C4.15612 3.64154 4.57327 3.64154 4.83057 3.8989L7 6.0683L9.16943 3.8989C9.42673 3.64154 9.84388 3.64154 10.1012 3.8989Z" fill="#DADADA"/>
</svg>
