<svg width="22" height="22" viewBox="0 0 22 22" fill="none" xmlns="http://www.w3.org/2000/svg">
<path d="M10.993 19.455L10.9927 19.4547L10.9908 19.4526C9.8921 18.1784 7.83304 15.8164 6.6682 14.6515C5.15431 13.1376 4.00049 11.2449 4.00049 9.08163C4.00049 5.16096 7.14404 2 11.0005 2C14.8569 2 18.0005 5.16096 18.0005 9.08163C18.0005 11.2546 17.013 12.9713 15.3328 14.6515C14.0555 15.9288 12.0734 18.2082 11.0062 19.4519C11.0044 19.454 11.0034 19.4547 11.0034 19.4547L11.0032 19.4548C11.0029 19.455 11.001 19.4557 10.9978 19.4557C10.9947 19.4557 10.993 19.455 10.993 19.455ZM10.993 19.455L10.9931 19.4551L10.993 19.455L10.993 19.455Z" stroke="#004CBD" stroke-width="2"/>
<circle cx="11.0005" cy="9" r="2" stroke="#004CBD" stroke-width="2"/>
</svg>
