<svg width="22" height="22" viewBox="0 0 22 22" fill="none" xmlns="http://www.w3.org/2000/svg">
<path d="M7.33317 18.3333H5.66651C4.56194 18.3333 3.6665 17.4379 3.6665 16.3333V5.66663C3.6665 4.56206 4.56193 3.66663 5.6665 3.66663H8.24984M7.33317 18.3333V12.9166C7.33317 12.3643 7.78089 11.9166 8.33317 11.9166H13.6665C14.2188 11.9166 14.6665 12.3643 14.6665 12.9166V18.3333M7.33317 18.3333H14.6665M14.6665 18.3333H16.3332C17.4377 18.3333 18.3332 17.4379 18.3332 16.3333V8.16172C18.3332 7.63129 18.1225 7.12258 17.7474 6.74751L15.2523 4.25241C14.8772 3.87734 14.3685 3.66663 13.8381 3.66663H13.7498M13.7498 3.66663V6.33329C13.7498 6.88558 13.3021 7.33329 12.7498 7.33329H9.24984C8.69755 7.33329 8.24984 6.88558 8.24984 6.33329V3.66663M13.7498 3.66663H8.24984" stroke="#004CBD" stroke-width="2" stroke-linecap="round" stroke-linejoin="round"/>
</svg>
