<svg width="16" height="16" viewBox="0 0 16 16" fill="none" xmlns="http://www.w3.org/2000/svg">
<path d="M13.6 5.16667H12.8V1H3.2V5.16667H2.4C1.072 5.16667 0 6.28333 0 7.66667V12.6667H3.2V16H12.8V12.6667H16V7.66667C16 6.28333 14.928 5.16667 13.6 5.16667ZM4.8 2.66667H11.2V5.16667H4.8V2.66667ZM11.2 14.3333H4.8V11H11.2V14.3333ZM12.8 11V9.33333H3.2V11H1.6V7.66667C1.6 7.20833 1.96 6.83333 2.4 6.83333H13.6C14.04 6.83333 14.4 7.20833 14.4 7.66667V11H12.8Z" fill="#383F43"/>
<path d="M12.8 8.91667C13.2418 8.91667 13.6 8.54357 13.6 8.08333C13.6 7.6231 13.2418 7.25 12.8 7.25C12.3582 7.25 12 7.6231 12 8.08333C12 8.54357 12.3582 8.91667 12.8 8.91667Z" fill="#383F43"/>
</svg>
