<svg width="18" height="18" viewBox="0 0 18 18" fill="none" xmlns="http://www.w3.org/2000/svg">
<path d="M10.5 2.25V5.25C10.5 5.44891 10.579 5.63968 10.7197 5.78033C10.8603 5.92098 11.0511 6 11.25 6H14.25M10.5 2.25H5.25C4.85218 2.25 4.47064 2.40804 4.18934 2.68934C3.90804 2.97064 3.75 3.35218 3.75 3.75V14.25C3.75 14.6478 3.90804 15.0294 4.18934 15.3107C4.47064 15.592 4.85218 15.75 5.25 15.75H8.625M10.5 2.25L14.25 6M14.25 6V9.75M10.5 14.25H15.75M15.75 14.25L13.5 12M15.75 14.25L13.5 16.5" stroke="#004CBD" stroke-width="1.5" stroke-linecap="round" stroke-linejoin="round"/>
</svg>
