<svg width="24" height="25" viewBox="0 0 24 25" fill="none" xmlns="http://www.w3.org/2000/svg">
<path fill-rule="evenodd" clip-rule="evenodd" d="M12 21.5C16.9706 21.5 21 17.4705 21 12.5C21 7.52953 16.9706 3.5 12 3.5C7.02943 3.5 3 7.52953 3 12.5C3 17.4705 7.02943 21.5 12 21.5ZM15.9872 8.51287C16.318 8.84349 16.318 9.37988 15.9872 9.71077L13.1979 12.5L15.9872 15.2892C16.318 15.6201 16.318 16.1565 15.9872 16.4871C15.6564 16.818 15.1201 16.818 14.7893 16.4871L12 13.6979L9.21073 16.4871C8.87995 16.818 8.34362 16.818 8.0128 16.4871C7.68202 16.1565 7.68202 15.6201 8.0128 15.2892L10.8021 12.5L8.0128 9.71077C7.68202 9.37988 7.68202 8.84349 8.0128 8.51287C8.34359 8.18199 8.87992 8.18199 9.21073 8.51287L12 11.3021L14.7893 8.51287C15.1201 8.18199 15.6564 8.18199 15.9872 8.51287Z" fill="#C0C0C0"/>
</svg>
