<svg width="18" height="18" viewBox="0 0 18 18" fill="none" xmlns="http://www.w3.org/2000/svg">
<g clip-path="url(#clip0_3113_30925)">
<path d="M3.75 16.25H4.25V15.75V11.25V10.75H3.75H2.25H1.75V11.25V15.75V16.25H2.25H3.75ZM4.67678 10.3232L5.03033 9.96967L4.67678 10.3232C4.72366 10.3701 4.75 10.4337 4.75 10.5V16.5C4.75 16.5663 4.72366 16.6299 4.67678 16.6768L5.03033 17.0303L4.67678 16.6768C4.62989 16.7237 4.5663 16.75 4.5 16.75H1.5C1.4337 16.75 1.37011 16.7237 1.32322 16.6768C1.27634 16.6299 1.25 16.5663 1.25 16.5V10.5C1.25 10.4337 1.27634 10.3701 1.32322 10.3232C1.37011 10.2763 1.4337 10.25 1.5 10.25H4.5C4.5663 10.25 4.62989 10.2763 4.67678 10.3232ZM15.75 16.25H16.25V15.75V8.25V7.75H15.75H14.25H13.75V8.25V15.75V16.25H14.25H15.75ZM9.75 16.25H10.25V15.75V2.25V1.75H9.75H8.25H7.75V2.25V15.75V16.25H8.25H9.75ZM13.5 7.25H16.5C16.5663 7.25 16.6299 7.27634 16.6768 7.32322C16.7237 7.37011 16.75 7.4337 16.75 7.5V16.5C16.75 16.5663 16.7237 16.6299 16.6768 16.6768C16.6299 16.7237 16.5663 16.75 16.5 16.75H13.5C13.4337 16.75 13.3701 16.7237 13.3232 16.6768C13.2763 16.6299 13.25 16.5663 13.25 16.5V7.5C13.25 7.43369 13.2763 7.37011 13.3232 7.32322C13.3701 7.27634 13.4337 7.25 13.5 7.25ZM7.5 1.25H10.5C10.5663 1.25 10.6299 1.27634 10.6768 1.32322C10.7237 1.37011 10.75 1.4337 10.75 1.5V16.5C10.75 16.5663 10.7237 16.6299 10.6768 16.6768C10.6299 16.7237 10.5663 16.75 10.5 16.75H7.5C7.4337 16.75 7.37011 16.7237 7.32322 16.6768C7.27634 16.6299 7.25 16.5663 7.25 16.5V1.5C7.25 1.4337 7.27634 1.37011 7.32322 1.32322C7.37011 1.27634 7.4337 1.25 7.5 1.25Z" fill="#383F43" stroke="white"/>
</g>
<defs>
<clipPath id="clip0_3113_30925">
<rect width="18" height="18" fill="white"/>
</clipPath>
</defs>
</svg>
