<svg width="18" height="18" viewBox="0 0 18 18" fill="none" xmlns="http://www.w3.org/2000/svg">
<path d="M4.83588 5.97707C5.07164 3.85524 6.86512 2.25 9 2.25V2.25C11.1349 2.25 12.9284 3.85524 13.1641 5.97706L13.353 7.67673C13.4498 8.54865 13.7336 9.38941 14.185 10.1417L14.6185 10.8642C14.8117 11.1861 14.9082 11.3471 14.9444 11.4721C15.1004 12.0112 14.7823 12.5731 14.2397 12.7167C14.1139 12.75 13.9262 12.75 13.5508 12.75H4.44917C4.07377 12.75 3.88607 12.75 3.76029 12.7167C3.21774 12.5731 2.89961 12.0112 3.05559 11.4721C3.09175 11.3471 3.18832 11.1861 3.38147 10.8642L3.81499 10.1417C4.26635 9.38941 4.55015 8.54865 4.64703 7.67673L4.83588 5.97707Z" stroke="#383F43" stroke-width="1.5"/>
<path d="M6 12.75C6 13.144 6.0776 13.5341 6.22836 13.8981C6.37913 14.262 6.6001 14.5927 6.87868 14.8713C7.15726 15.1499 7.48797 15.3709 7.85195 15.5216C8.21593 15.6724 8.60603 15.75 9 15.75C9.39397 15.75 9.78407 15.6724 10.1481 15.5216C10.512 15.3709 10.8427 15.1499 11.1213 14.8713C11.3999 14.5927 11.6209 14.262 11.7716 13.8981C11.9224 13.5341 12 13.144 12 12.75" stroke="#383F43" stroke-width="1.5" stroke-linecap="round"/>
</svg>
