<svg width="18" height="18" viewBox="0 0 18 18" fill="none" xmlns="http://www.w3.org/2000/svg">
<path d="M9 15.75C12.7279 15.75 15.75 12.7279 15.75 9C15.75 5.27208 12.7279 2.25 9 2.25C5.27208 2.25 2.25 5.27208 2.25 9C2.25 12.7279 5.27208 15.75 9 15.75Z" stroke="#383F43" stroke-width="1.5" stroke-linecap="round" stroke-linejoin="round"/>
<path d="M9 9.75C10.2426 9.75 11.25 8.74264 11.25 7.5C11.25 6.25736 10.2426 5.25 9 5.25C7.75736 5.25 6.75 6.25736 6.75 7.5C6.75 8.74264 7.75736 9.75 9 9.75Z" stroke="#383F43" stroke-width="1.5" stroke-linecap="round" stroke-linejoin="round"/>
<path d="M4.62601 14.1368C4.81164 13.5189 5.19148 12.9774 5.70919 12.5925C6.2269 12.2076 6.85489 11.9998 7.50001 12H10.5C11.146 11.9998 11.7747 12.208 12.2928 12.5938C12.8109 12.9796 13.1906 13.5223 13.3755 14.1412" stroke="#383F43" stroke-width="1.5" stroke-linecap="round" stroke-linejoin="round"/>
</svg>
