<svg width="18" height="18" viewBox="0 0 18 18" fill="none" xmlns="http://www.w3.org/2000/svg">
<path d="M7.66669 13.2C7.8435 13.2 8.01307 13.1263 8.13809 12.995C8.26312 12.8637 8.33335 12.6857 8.33335 12.5V8.3C8.33335 8.11435 8.26312 7.9363 8.13809 7.80503C8.01307 7.67375 7.8435 7.6 7.66669 7.6C7.48988 7.6 7.32031 7.67375 7.19528 7.80503C7.07026 7.9363 7.00002 8.11435 7.00002 8.3V12.5C7.00002 12.6857 7.07026 12.8637 7.19528 12.995C7.32031 13.1263 7.48988 13.2 7.66669 13.2ZM14.6667 4.8H11.6667V4.1C11.6667 3.54305 11.456 3.0089 11.0809 2.61508C10.7058 2.22125 10.1971 2 9.66669 2H8.33335C7.80292 2 7.29421 2.22125 6.91914 2.61508C6.54407 3.0089 6.33335 3.54305 6.33335 4.1V4.8H3.33335C3.15654 4.8 2.98697 4.87375 2.86195 5.00503C2.73692 5.1363 2.66669 5.31435 2.66669 5.5C2.66669 5.68565 2.73692 5.8637 2.86195 5.99497C2.98697 6.12625 3.15654 6.2 3.33335 6.2H4.00002V13.9C4.00002 14.457 4.21073 14.9911 4.58581 15.3849C4.96088 15.7788 5.80292 16 6.33335 16H12C12.5304 16 13.0391 15.7788 13.4142 15.3849C13.7893 14.9911 14 14.457 14 13.9V6.2H14.6667C14.8435 6.2 15.013 6.12625 15.1381 5.99497C15.2631 5.8637 15.3333 5.68565 15.3333 5.5C15.3333 5.31435 15.2631 5.1363 15.1381 5.00503C15.013 4.87375 14.8435 4.8 14.6667 4.8ZM7.66669 4.1C7.66669 3.91435 7.73693 3.7363 7.86195 3.60503C7.98697 3.47375 8.15654 3.4 8.33335 3.4H9.66669C9.8435 3.4 10.0131 3.47375 10.1381 3.60503C10.2631 3.7363 10.3334 3.91435 10.3334 4.1V4.8H7.66669V4.1ZM12.6667 13.9C12.6667 14.0857 12.5964 14.2637 12.4714 14.395C12.3464 14.5262 12.1768 14.6 12 14.6C11.8232 14.6 6.00002 14.6 6.00002 14.6C5.82321 14.6 5.65364 14.5262 5.52862 14.395C5.40359 14.2637 5.33335 14.0857 5.33335 13.9V6.2H12.6667V13.9ZM10.3334 13.2C10.5102 13.2 10.6797 13.1263 10.8048 12.995C10.9298 12.8637 11 12.6857 11 12.5V8.3C11 8.11435 10.9298 7.9363 10.8048 7.80503C10.6797 7.67375 10.5102 7.6 10.3334 7.6C10.1565 7.6 9.98697 7.67375 9.86195 7.80503C9.73693 7.9363 9.66669 8.11435 9.66669 8.3V12.5C9.66669 12.6857 9.73693 12.8637 9.86195 12.995C9.98697 13.1263 10.1565 13.2 10.3334 13.2Z" fill="#383F43"/>
</svg>
