<svg width="18" height="18" viewBox="0 0 18 18" fill="none" xmlns="http://www.w3.org/2000/svg">
<path d="M9.09253 9.58688C9.3892 9.58688 9.67921 9.49891 9.92589 9.33409C10.1726 9.16926 10.3648 8.935 10.4784 8.66091C10.5919 8.38682 10.6216 8.08522 10.5637 7.79425C10.5058 7.50327 10.363 7.236 10.1532 7.02622C9.94341 6.81644 9.67614 6.67358 9.38517 6.6157C9.0942 6.55783 8.7926 6.58753 8.51851 6.70106C8.24442 6.81459 8.01015 7.00685 7.84533 7.25353C7.68051 7.5002 7.59253 7.79021 7.59253 8.08688C7.59253 8.48471 7.75057 8.86624 8.03187 9.14754C8.31318 9.42885 8.69471 9.58688 9.09253 9.58688ZM8.56003 14.7694C8.62975 14.8397 8.71271 14.8955 8.8041 14.9336C8.89549 14.9716 8.99352 14.9912 9.09253 14.9912C9.19154 14.9912 9.28957 14.9716 9.38097 14.9336C9.47236 14.8955 9.55531 14.8397 9.62503 14.7694L12.6925 11.6944C13.405 10.9823 13.8903 10.0749 14.087 9.08698C14.2837 8.09906 14.183 7.07499 13.7976 6.1443C13.4123 5.21361 12.7596 4.41811 11.9221 3.85843C11.0845 3.29874 10.0998 3 9.09253 3C8.08522 3 7.10053 3.29874 6.26301 3.85843C5.4255 4.41811 4.77278 5.21361 4.38742 6.1443C4.00206 7.07499 3.90137 8.09906 4.09808 9.08698C4.29479 10.0749 4.78007 10.9823 5.49253 11.6944L8.56003 14.7694ZM5.51503 7.74188C5.56628 7.20715 5.7363 6.6906 6.01268 6.22997C6.28906 5.76933 6.66482 5.37624 7.11253 5.07938C7.70069 4.69321 8.38893 4.48745 9.09253 4.48745C9.79613 4.48745 10.4844 4.69321 11.0725 5.07938C11.5173 5.37522 11.8909 5.76593 12.1666 6.22342C12.4423 6.68091 12.6131 7.1938 12.6669 7.72522C12.7207 8.25664 12.6561 8.79337 12.4777 9.29682C12.2992 9.80028 12.0115 10.2579 11.635 10.6369L9.09253 13.1794L6.55003 10.6369C6.17317 10.2616 5.88473 9.80703 5.70569 9.30623C5.52665 8.80544 5.46151 8.27102 5.51503 7.74188Z" fill="#383F43"/>
</svg>
