<svg width="18" height="18" viewBox="0 0 18 18" fill="none" xmlns="http://www.w3.org/2000/svg">
<path d="M5.66531 9.66414H1.006V8.33119H4.38368C4.43686 7.95864 4.53557 7.59402 4.67759 7.24551L1.76178 5.54667L2.43158 4.39501L5.35073 6.09518C5.57544 5.81256 5.83169 5.55653 6.11451 5.33207L4.41967 2.41759L5.57067 1.74712L7.26484 4.6656C7.60749 4.52759 7.96552 4.43137 8.33119 4.37901V1H9.66414V4.37968C10.0324 4.43287 10.3929 4.53021 10.7378 4.6696L12.436 1.74712L13.587 2.41759L11.8882 5.34007C12.1696 5.56351 12.4245 5.81842 12.6479 6.09985L15.5744 4.39501L16.2442 5.54667L13.3197 7.25084C13.4605 7.59779 13.5585 7.96057 13.6117 8.33119H16.9893V9.66414H12.33V8.99767C12.1867 4.59229 5.80726 4.59895 5.66531 8.99767V9.66414ZM14.9886 15.6624C14.6351 15.6624 14.296 15.522 14.0461 15.272C13.7961 15.022 13.6556 14.683 13.6556 14.3294H12.33C12.33 14.683 12.1896 15.022 11.9396 15.272C11.6896 15.522 11.3506 15.6624 10.9971 15.6624C10.6436 15.6624 10.3045 15.522 10.0546 15.272C9.80457 15.022 9.66414 14.683 9.66414 14.3294H8.33119C8.33119 14.683 8.19076 15.022 7.94078 15.272C7.69081 15.522 7.35177 15.6624 6.99825 15.6624C6.64473 15.6624 6.30569 15.522 6.05572 15.272C5.80574 15.022 5.66531 14.683 5.66531 14.3294H4.33236C4.32886 14.5986 4.24424 14.8604 4.08955 15.0807C3.93486 15.301 3.7173 15.4695 3.46531 15.5642C3.21333 15.6589 2.93864 15.6753 2.67716 15.6114C2.41568 15.5475 2.17958 15.4061 1.99971 15.2059L1 16.0836C1.25106 16.366 1.55897 16.5922 1.90354 16.7473C2.24811 16.9024 2.62157 16.9829 2.99944 16.9836C3.37731 16.9843 3.75106 16.9051 4.0962 16.7513C4.44134 16.5975 4.75007 16.3724 5.00217 16.0909C5.25424 16.3715 5.56253 16.5959 5.907 16.7494C6.25148 16.903 6.62442 16.9824 7.00158 16.9824C7.37875 16.9824 7.75169 16.903 8.09616 16.7494C8.44064 16.5959 8.74893 16.3715 9.001 16.0909C9.25307 16.3715 9.56136 16.5959 9.90584 16.7494C10.2503 16.903 10.6233 16.9824 11.0004 16.9824C11.3776 16.9824 11.7505 16.903 12.095 16.7494C12.4395 16.5959 12.7478 16.3715 12.9998 16.0909C13.2519 16.3719 13.5605 16.5965 13.9053 16.75C14.2502 16.9035 14.6236 16.9825 15.001 16.9817C15.3785 16.981 15.7516 16.9005 16.0958 16.7456C16.4401 16.5908 16.7477 16.3649 16.9987 16.0829L15.995 15.2065C15.8701 15.35 15.7159 15.465 15.5427 15.5437C15.3695 15.6223 15.1815 15.6628 14.9913 15.6624H14.9886ZM3.00408 13.663C3.38252 13.6632 3.75665 13.5827 4.10146 13.4267C4.44626 13.2707 4.7538 13.0429 5.0035 12.7586C5.25557 13.0391 5.56386 13.2635 5.90834 13.4171C6.25281 13.5707 6.62575 13.6501 7.00292 13.6501C7.38008 13.6501 7.75302 13.5707 8.09749 13.4171C8.44197 13.2635 8.75026 13.0391 9.00233 12.7586C9.2544 13.0391 9.5627 13.2635 9.90717 13.4171C10.2516 13.5707 10.6246 13.6501 11.0017 13.6501C11.3789 13.6501 11.7519 13.5707 12.0963 13.4171C12.4408 13.2635 12.7491 13.0391 13.0012 12.7586C13.2532 13.0396 13.5618 13.2642 13.9066 13.4177C14.2515 13.5712 14.6249 13.6501 15.0024 13.6494C15.3799 13.6486 15.7529 13.5682 16.0972 13.4133C16.4414 13.2584 16.7491 13.0326 17 12.7506L15.9963 11.8742C15.8164 12.0747 15.5802 12.2163 15.3186 12.2803C15.0569 12.3444 14.782 12.328 14.5298 12.2332C14.2777 12.1384 14.06 11.9697 13.9053 11.7491C13.7507 11.5286 13.6662 11.2664 13.663 10.9971H12.33C12.33 11.3506 12.1896 11.6896 11.9396 11.9396C11.6896 12.1896 11.3506 12.33 10.9971 12.33C10.6436 12.33 10.3045 12.1896 10.0546 11.9396C9.80457 11.6896 9.66414 11.3506 9.66414 10.9971H8.33119C8.33119 11.3506 8.19076 11.6896 7.94078 11.9396C7.69081 12.1896 7.35177 12.33 6.99825 12.33C6.64473 12.33 6.30569 12.1896 6.05572 11.9396C5.80574 11.6896 5.66531 11.3506 5.66531 10.9971H4.33236C4.32886 11.2662 4.24424 11.5281 4.08955 11.7484C3.93486 11.9687 3.7173 12.1372 3.46531 12.2319C3.21333 12.3265 2.93864 12.343 2.67716 12.279C2.41568 12.2151 2.17958 12.0738 1.99971 11.8735L1 12.7512C1.24965 13.0374 1.55766 13.2668 1.90333 13.4241C2.249 13.5813 2.62432 13.6628 3.00408 13.663Z" fill="#004CBD"/>
</svg>
