<svg width="22" height="22" viewBox="0 0 22 22" fill="none" xmlns="http://www.w3.org/2000/svg">
<path d="M10.3889 4.88889L8.25 3.66666L2.75 6.41666V18.3333L8.25 15.5833L13.75 18.3333L19.25 15.5833V13.75" stroke="#383F43" stroke-width="2" stroke-linecap="round" stroke-linejoin="round"/>
<path d="M8.25 3.66666V15.5833" stroke="#383F43" stroke-width="2" stroke-linecap="round" stroke-linejoin="round"/>
<path d="M13.75 13.4444V18.3333" stroke="#383F43" stroke-width="2" stroke-linecap="round" stroke-linejoin="round"/>
<path d="M17.1126 4.27778C18.0173 4.27778 18.8072 4.76926 19.2299 5.4998M17.1126 4.27778C16.2079 4.27778 15.418 4.76926 14.9953 5.49979M17.1126 4.27778V2.44444M17.1126 11V9.12602M14.9953 7.94465C14.7873 7.58506 14.6682 7.16755 14.6682 6.72222C14.6682 6.27689 14.7873 5.85938 14.9953 5.49979M14.9953 7.94465C15.4766 8.77646 16.2982 9.14241 17.1126 9.12602M14.9953 7.94465L13.4445 8.84004M17.1126 9.12602C17.9535 9.10911 18.7867 8.68469 19.23 7.94469M19.23 7.94469C19.4354 7.60188 19.5571 7.19134 19.5571 6.72222C19.5571 6.2769 19.438 5.85939 19.2299 5.4998M19.23 7.94469L20.8473 8.87845M19.2299 5.4998L20.8473 4.566M14.9953 5.49979L13.4469 4.60583" stroke="#383F43" stroke-width="2" stroke-linecap="round"/>
</svg>
