<svg width="18" height="18" viewBox="0 0 18 18" fill="none" xmlns="http://www.w3.org/2000/svg">
<path fill-rule="evenodd" clip-rule="evenodd" d="M15.605 5.71768L15.1382 4.90761C14.7432 4.22217 13.868 3.98571 13.1817 4.37901V4.37901C12.8549 4.57148 12.4651 4.62608 12.098 4.53078C11.731 4.43549 11.4169 4.19811 11.2251 3.871C11.1017 3.66308 11.0354 3.42627 11.0329 3.1845V3.1845C11.044 2.79689 10.8978 2.42127 10.6275 2.14322C10.3572 1.86517 9.9859 1.70837 9.59813 1.70853H8.65762C8.27773 1.70852 7.91348 1.85991 7.6455 2.12918C7.37752 2.39845 7.22788 2.76341 7.22971 3.14331V3.14331C7.21845 3.92766 6.57936 4.55758 5.79492 4.5575C5.55316 4.55499 5.31634 4.48868 5.10843 4.36528V4.36528C4.42205 3.97198 3.54683 4.20844 3.1519 4.89388L2.65076 5.71768C2.25631 6.40226 2.48955 7.27692 3.1725 7.6742V7.6742C3.61643 7.9305 3.8899 8.40416 3.8899 8.91676C3.8899 9.42937 3.61643 9.90303 3.1725 10.1593V10.1593C2.49042 10.5539 2.25692 11.4265 2.65076 12.109V12.109L3.12444 12.9259C3.30949 13.2598 3.61995 13.5062 3.98714 13.6106C4.35434 13.7149 4.74798 13.6686 5.08097 13.482V13.482C5.40831 13.291 5.79839 13.2386 6.1645 13.3366C6.53062 13.4346 6.84243 13.6748 7.03062 14.0037C7.15402 14.2116 7.22033 14.4485 7.22284 14.6902V14.6902C7.22284 15.4826 7.86522 16.125 8.65762 16.125H9.59813C10.3879 16.125 11.0291 15.4868 11.0329 14.6971V14.6971C11.0311 14.316 11.1816 13.95 11.4511 13.6805C11.7206 13.411 12.0866 13.2605 12.4677 13.2623C12.7089 13.2688 12.9447 13.3348 13.1542 13.4545V13.4545C13.8388 13.849 14.7134 13.6157 15.1107 12.9328V12.9328L15.605 12.109C15.7963 11.7806 15.8488 11.3895 15.7509 11.0222C15.653 10.655 15.4127 10.342 15.0833 10.1525V10.1525C14.7538 9.96294 14.5135 9.6499 14.4156 9.28268C14.3177 8.91545 14.3702 8.52433 14.5615 8.19594C14.6859 7.97872 14.866 7.79862 15.0833 7.6742V7.6742C15.7621 7.27714 15.9948 6.40759 15.605 5.72454V5.72454V5.71768Z" stroke="#383F43" stroke-width="1.5" stroke-linecap="round" stroke-linejoin="round"/>
<circle cx="9.13129" cy="8.91675" r="1.97712" stroke="#383F43" stroke-width="1.5" stroke-linecap="round" stroke-linejoin="round"/>
</svg>
