<svg width="22" height="22" viewBox="0 0 22 22" fill="none" xmlns="http://www.w3.org/2000/svg">
<path d="M3 8.625C3 7.52043 3.89543 6.625 5 6.625H6.00945C6.63364 6.625 7.22203 6.33358 7.60032 5.83709L8.39968 4.78791C8.77797 4.29142 9.36636 4 9.99055 4H12.0095C12.6336 4 13.222 4.29142 13.6003 4.78791L14.3997 5.83709C14.778 6.33358 15.3664 6.625 15.9905 6.625H17C18.1046 6.625 19 7.52043 19 8.625V16C19 17.1046 18.1046 18 17 18H5C3.89543 18 3 17.1046 3 16V8.625Z" stroke="#383F43" stroke-width="2" stroke-linecap="round" stroke-linejoin="round"/>
<circle cx="11" cy="12" r="3" stroke="#383F43" stroke-width="2" stroke-linecap="round" stroke-linejoin="round"/>
</svg>
