<svg width="24" height="24" viewBox="0 0 24 24" fill="none" xmlns="http://www.w3.org/2000/svg">
<path fill-rule="evenodd" clip-rule="evenodd" d="M5.29338 13.7071C4.90286 13.3166 4.90286 12.6834 5.29338 12.2929L11.2934 6.29289C11.4892 6.09709 11.746 5.99946 12.0026 6C12.0033 6 12.004 6 12.0046 6C12.3084 6 12.5806 6.13546 12.764 6.34927L18.7076 12.2929C19.0981 12.6834 19.0981 13.3166 18.7076 13.7071C18.3171 14.0976 17.6839 14.0976 17.2934 13.7071L13.0046 9.41836L13.0046 21C13.0046 21.5523 12.5569 22 12.0046 22C11.4524 22 11.0046 21.5523 11.0046 21L11.0046 9.41006L6.70759 13.7071C6.31707 14.0976 5.68391 14.0976 5.29338 13.7071ZM5.00049 3C5.00049 2.44772 5.4482 2 6.00049 2L18.0005 2C18.5528 2 19.0005 2.44772 19.0005 3C19.0005 3.55228 18.5528 4 18.0005 4L6.00049 4C5.4482 4 5.00049 3.55228 5.00049 3Z" fill="#A2A2A2"/>
</svg>
