<svg width="14" height="14" viewBox="0 0 14 14" fill="none" xmlns="http://www.w3.org/2000/svg">
<g clip-path="url(#clip0_387_4180)">
<path d="M12 1H2C1.44772 1 1 1.44772 1 2V12C1 12.5523 1.44772 13 2 13H12C12.5523 13 13 12.5523 13 12V2C13 1.44772 12.5523 1 12 1Z" stroke="white" stroke-width="1.4" stroke-linecap="round" stroke-linejoin="round"/>
<path d="M4.5 6C5.32842 6 6 5.32842 6 4.5C6 3.67158 5.32842 3 4.5 3C3.67158 3 3 3.67158 3 4.5C3 5.32842 3.67158 6 4.5 6Z" stroke="white" stroke-width="1.4" stroke-linecap="round" stroke-linejoin="round"/>
<path d="M13 10L9.33333 7L6 9.7L3.66667 7.9L1 9.7" stroke="white" stroke-width="1.4" stroke-linecap="round" stroke-linejoin="round"/>
</g>
<defs>
<clipPath id="clip0_387_4180">
<rect width="14" height="14" fill="white"/>
</clipPath>
</defs>
</svg>
