<svg width="18" height="18" viewBox="0 0 18 18" fill="none" xmlns="http://www.w3.org/2000/svg">
<path d="M14.0167 5.21128C14.6261 5.57099 15 6.22596 15 6.93361V13.0001C15 14.1046 14.1046 15.0001 13 15.0001H12.5C11.3954 15.0001 10.5 14.1046 10.5 13.0001V10.5C10.5 9.67158 9.82843 9.00001 9 9.00001V9.00001C8.17157 9.00001 7.5 9.67158 7.5 10.5V13.0001C7.5 14.1046 6.60457 15.0001 5.5 15.0001H5C3.89543 15.0001 3 14.1046 3 13.0001V6.93361C3 6.22596 3.37395 5.571 3.98335 5.21128L7.98335 2.85017C8.61056 2.47994 9.38944 2.47994 10.0167 2.85017L14.0167 5.21128Z" stroke="#383F43" stroke-width="1.5" stroke-linecap="round" stroke-linejoin="round"/>
</svg>
