<svg width="22" height="22" viewBox="0 0 22 22" fill="none" xmlns="http://www.w3.org/2000/svg">
<path d="M10.9925 19.455L10.9922 19.4547L10.9903 19.4526C9.89161 18.1784 7.83255 15.8164 6.66771 14.6515C5.15383 13.1376 4 11.2449 4 9.08163C4 5.16096 7.14355 2 11 2C14.8564 2 18 5.16096 18 9.08163C18 11.2546 17.0125 12.9713 15.3323 14.6515C14.055 15.9288 12.0729 18.2082 11.0057 19.4519C11.0039 19.454 11.0029 19.4547 11.0029 19.4547L11.0027 19.4548C11.0024 19.455 11.0005 19.4557 10.9974 19.4557C10.9942 19.4557 10.9925 19.455 10.9925 19.455ZM10.9925 19.455L10.9926 19.4551L10.9925 19.455L10.9925 19.455Z" stroke="#383F43" stroke-width="2"/>
<circle cx="11" cy="9" r="2" stroke="#383F43" stroke-width="2"/>
</svg>
