<svg width="18" height="18" viewBox="0 0 18 18" fill="none" xmlns="http://www.w3.org/2000/svg">
<path d="M8.5 2.5H4.22222C3.89807 2.5 3.58719 2.62877 3.35798 2.85798C3.12877 3.08719 3 3.39807 3 3.72222V14.2778C3 14.6019 3.12877 14.9128 3.35798 15.142C3.58719 15.3712 3.89807 15.5 4.22222 15.5H12.7778C13.1019 15.5 13.4128 15.3712 13.642 15.142C13.8712 14.9128 14 14.6019 14 14.2778V10" stroke="#383F43" stroke-width="1.5" stroke-linecap="round" stroke-linejoin="round"/>
<path d="M12.9485 3.35199C13.1738 3.12661 13.4795 3 13.7982 3C14.117 3 14.4226 3.12661 14.648 3.35199C14.8734 3.57737 15 3.88304 15 4.20177C15 4.5205 14.8734 4.82617 14.648 5.05155L9.26608 10.4335L7 11L7.56652 8.73392L12.9485 3.35199Z" stroke="#383F43" stroke-width="1.5" stroke-linecap="round" stroke-linejoin="round"/>
</svg>
