<svg width="22" height="22" viewBox="0 0 22 22" fill="none" xmlns="http://www.w3.org/2000/svg">
<path d="M7.33332 18.3333H5.66666C4.56209 18.3333 3.66666 17.4379 3.66666 16.3333V5.66667C3.66666 4.5621 4.56209 3.66666 5.66666 3.66666H8.24999M7.33332 18.3333V12.9167C7.33332 12.3644 7.78104 11.9167 8.33332 11.9167H13.6667C14.2189 11.9167 14.6667 12.3644 14.6667 12.9167V18.3333M7.33332 18.3333H14.6667M14.6667 18.3333H16.3333C17.4379 18.3333 18.3333 17.4379 18.3333 16.3333V8.16176C18.3333 7.63133 18.1226 7.12262 17.7475 6.74754L15.2524 4.25245C14.8774 3.87738 14.3687 3.66666 13.8382 3.66666H13.75M13.75 3.66666V6.33333C13.75 6.88562 13.3023 7.33333 12.75 7.33333H9.24999C8.69771 7.33333 8.24999 6.88561 8.24999 6.33333V3.66666M13.75 3.66666H8.24999" stroke="#383F43" stroke-width="2" stroke-linecap="round" stroke-linejoin="round"/>
</svg>
