<svg width="110" height="110" viewBox="0 0 110 110" fill="none" xmlns="http://www.w3.org/2000/svg">
<path d="M65.2195 69.374H42.3181V83.7934H65.2195V79.7808L75.398 82.5211V70.6463L65.2195 74.9526V69.374Z" fill="#FFCE26"/>
<path d="M26.2024 21.0266V35.446H46.835C48.2768 35.446 49.6484 36.0684 50.5979 37.1535L57.1135 44.6C57.6832 45.251 58.5062 45.6244 59.3712 45.6244H76.6704V21.0266H26.2024Z" fill="#95C9F8"/>
<mask id="mask0_3143_2217" style="mask-type:luminance" maskUnits="userSpaceOnUse" x="17" y="10" width="78" height="91">
<path d="M94.2812 10H17.5V101H94.2812V10Z" fill="white"/>
</mask>
<g mask="url(#mask0_3143_2217)">
<path d="M67.3413 81.8257V81.6835L71.9126 84.0036C72.5281 84.3193 73.2145 84.4713 73.9058 84.4448C74.597 84.4184 75.2698 84.2144 75.8593 83.8525C76.4488 83.4906 76.9352 82.983 77.2717 82.3785C77.6081 81.7741 77.7833 81.0932 77.7802 80.4015V68.9578C77.7802 65.9979 74.5597 64.0096 71.9126 65.3533L67.3413 67.6757V67.5335C67.3369 66.4644 66.9094 65.4404 66.1523 64.6855C65.3952 63.9306 64.37 63.5061 63.3008 63.5049H39.5389C38.4718 63.5092 37.4496 63.9351 36.695 64.6897C35.9405 65.4442 35.5146 66.4664 35.5103 67.5335V81.8234C35.5146 82.8905 35.9405 83.9126 36.695 84.6672C37.4496 85.4218 38.4718 85.8476 39.5389 85.852H63.3008C64.37 85.8508 65.3952 85.4263 66.1523 84.6714C66.9094 83.9165 67.3369 82.8925 67.3413 81.8234V81.8257ZM39.0531 81.8257V67.5335C39.0561 67.4088 39.107 67.2899 39.1952 67.2017C39.2835 67.1135 39.4023 67.0626 39.5271 67.0596H63.3008C63.4274 67.0601 63.5489 67.1099 63.6395 67.1983C63.7302 67.2867 63.7829 67.4069 63.7866 67.5335V70.5692C63.7866 70.873 63.8645 71.1717 64.0128 71.4368C64.161 71.7019 64.3748 71.9246 64.6336 72.0836C64.8924 72.2426 65.1877 72.3326 65.4912 72.345C65.7947 72.3575 66.0964 72.2919 66.3673 72.1546L73.5217 68.5336C73.5961 68.4954 73.679 68.477 73.7625 68.4801C73.846 68.4832 73.9273 68.5077 73.9987 68.5512C74.07 68.5947 74.129 68.6558 74.17 68.7287C74.211 68.8015 74.2325 68.8837 74.2327 68.9672V80.411C74.2325 80.4945 74.211 80.5767 74.17 80.6495C74.129 80.7224 74.07 80.7835 73.9987 80.827C73.9273 80.8705 73.846 80.895 73.7625 80.8981C73.679 80.9012 73.5961 80.8828 73.5217 80.8446L66.3673 77.2141C66.0964 77.0768 65.7947 77.0113 65.4912 77.0237C65.1877 77.0361 64.8924 77.1261 64.6336 77.2851C64.3748 77.4441 64.161 77.6668 64.0128 77.9319C63.8645 78.1971 63.7866 78.4957 63.7866 78.7995V81.8352C63.7835 81.962 63.731 82.0825 63.6402 82.1711C63.5494 82.2597 63.4276 82.3092 63.3008 82.3092H39.5389C39.4141 82.3062 39.2953 82.2553 39.2071 82.167C39.1189 82.0788 39.0679 81.96 39.0649 81.8352L39.0531 81.8257Z" fill="#18193F" stroke="#18193F"/>
</g>
<path d="M35.7476 31.2053H67.5762C68.0476 31.2053 68.4997 31.0181 68.833 30.6847C69.1663 30.3514 69.3536 29.8994 69.3536 29.428C69.3536 28.9566 69.1663 28.5045 68.833 28.1712C68.4997 27.8379 68.0476 27.6506 67.5762 27.6506H35.7476C35.2762 27.6506 34.8241 27.8379 34.4908 28.1712C34.1575 28.5045 33.9702 28.9566 33.9702 29.428C33.9702 29.8994 34.1575 30.3514 34.4908 30.6847C34.8241 31.0181 35.2762 31.2053 35.7476 31.2053Z" fill="#18193F"/>
<path d="M67.5668 35.9424H58.3696C57.8982 35.9424 57.4462 36.1296 57.1128 36.463C56.7795 36.7963 56.5923 37.2483 56.5923 37.7197C56.5923 38.1911 56.7795 38.6432 57.1128 38.9765C57.4462 39.3098 57.8982 39.4971 58.3696 39.4971H67.5668C68.0382 39.4971 68.4902 39.3098 68.8236 38.9765C69.1569 38.6432 69.3441 38.1911 69.3441 37.7197C69.3441 37.2483 69.1569 36.7963 68.8236 36.463C68.4902 36.1296 68.0382 35.9424 67.5668 35.9424Z" fill="#18193F"/>
<path fill-rule="evenodd" clip-rule="evenodd" d="M86.5769 101C88.5605 100.998 90.4623 100.209 91.865 98.8067C93.2676 97.404 94.0564 95.5022 94.0583 93.5186V56.8318C94.0555 55.0218 93.3975 53.274 92.2061 51.9114C91.0147 50.5488 89.3704 49.6635 87.5769 49.4191V49.3566H72.8533V49.3385H57.8669C57.2727 49.3389 56.6862 49.2036 56.1523 48.9428C55.6184 48.682 55.1511 48.3026 54.7861 47.8337L51.8618 44.1108L49.966 41.7149C49.2689 40.8192 48.3759 40.095 47.3555 39.598C46.3351 39.1009 45.2144 38.8442 44.0794 38.8475H27.6733V38.8388H24.1187V38.9233C22.3421 39.1852 20.7188 40.0765 19.5444 41.4349C18.37 42.7934 17.7226 44.5285 17.7202 46.3242V93.5186C17.7227 95.5024 18.5121 97.4042 19.9151 98.8068C21.3181 100.209 23.2202 100.998 25.204 101H86.5769ZM25.204 97.4453H86.5769C87.6181 97.4447 88.6166 97.0308 89.3528 96.2945C90.0891 95.5582 90.503 94.5598 90.5036 93.5186V56.8437C90.503 55.8024 90.0891 54.804 89.3528 54.0677C88.6166 53.3315 87.6181 52.9175 86.5769 52.9169H57.8669C56.7316 52.9199 55.6107 52.663 54.5899 52.166C53.5692 51.669 52.6757 50.945 51.9779 50.0495L48.9754 46.2057L47.1743 43.9094C46.808 43.4388 46.3389 43.0584 45.8029 42.7971C45.2668 42.5359 44.6781 42.4008 44.0818 42.4022H25.204C24.1626 42.4028 23.1639 42.8166 22.4272 43.5528C21.6906 44.289 21.2762 45.2874 21.2749 46.3289V93.5186C21.2762 94.56 21.6906 95.5585 22.4272 96.2947C23.1639 97.0309 24.1626 97.4447 25.204 97.4453Z" fill="#18193F"/>
<path d="M25.896 35.446C24.9144 35.446 24.1187 34.6503 24.1187 33.6687V20.5456C24.1187 20.0742 24.3059 19.6221 24.6392 19.2888C24.9725 18.9555 25.4246 18.7682 25.896 18.7682H33.3087V11.7773C33.3087 11.306 33.496 10.8539 33.8293 10.5206C34.1626 10.1873 34.6147 10 35.0861 10H85.7996C86.271 10 86.723 10.1873 87.0564 10.5206C87.3897 10.8539 87.5769 11.306 87.5769 11.7773V44.1829C87.5769 45.1664 86.7796 45.9637 85.796 45.9637C84.8125 45.9637 84.0152 45.1664 84.0152 44.1829V13.5547H36.8563V18.773H76.6261C77.0975 18.773 77.5496 18.9602 77.8829 19.2935C78.2162 19.6269 78.4035 20.0789 78.4035 20.5503V44.1864C78.4035 45.168 77.6077 45.9637 76.6261 45.9637C75.6445 45.9637 74.8488 45.168 74.8488 44.1864V22.3229H27.6733V33.6687C27.6733 34.6503 26.8776 35.446 25.896 35.446Z" fill="#18193F"/>
<path fill-rule="evenodd" clip-rule="evenodd" d="M86.5769 101C88.5605 100.998 90.4623 100.209 91.865 98.8067C93.2676 97.404 94.0564 95.5022 94.0583 93.5186V56.8318C94.0555 55.0218 93.3975 53.274 92.2061 51.9114C91.0147 50.5488 89.3704 49.6635 87.5769 49.4191V49.3566H72.8533V49.3385H57.8669C57.2727 49.3389 56.6862 49.2036 56.1523 48.9428C55.6184 48.682 55.1511 48.3026 54.7861 47.8337L51.8618 44.1108L49.966 41.7149C49.2689 40.8192 48.3759 40.095 47.3555 39.598C46.3351 39.1009 45.2144 38.8442 44.0794 38.8475H27.6733V38.8388H24.1187V38.9233C22.3421 39.1852 20.7188 40.0765 19.5444 41.4349C18.37 42.7934 17.7226 44.5285 17.7202 46.3242V93.5186C17.7227 95.5024 18.5121 97.4042 19.9151 98.8068C21.3181 100.209 23.2202 100.998 25.204 101H86.5769ZM25.204 97.4453H86.5769C87.6181 97.4447 88.6166 97.0308 89.3528 96.2945C90.0891 95.5582 90.503 94.5598 90.5036 93.5186V56.8437C90.503 55.8024 90.0891 54.804 89.3528 54.0677C88.6166 53.3315 87.6181 52.9175 86.5769 52.9169H57.8669C56.7316 52.9199 55.6107 52.663 54.5899 52.166C53.5692 51.669 52.6757 50.945 51.9779 50.0495L48.9754 46.2057L47.1743 43.9094C46.808 43.4388 46.3389 43.0584 45.8029 42.7971C45.2668 42.5359 44.6781 42.4008 44.0818 42.4022H25.204C24.1626 42.4028 23.1639 42.8166 22.4272 43.5528C21.6906 44.289 21.2762 45.2874 21.2749 46.3289V93.5186C21.2762 94.56 21.6906 95.5585 22.4272 96.2947C23.1639 97.0309 24.1626 97.4447 25.204 97.4453Z" stroke="#18193F"/>
<path d="M25.896 35.446C24.9144 35.446 24.1187 34.6503 24.1187 33.6687V20.5456C24.1187 20.0742 24.3059 19.6221 24.6392 19.2888C24.9725 18.9555 25.4246 18.7682 25.896 18.7682H33.3087V11.7773C33.3087 11.306 33.496 10.8539 33.8293 10.5206C34.1626 10.1873 34.6147 10 35.0861 10H85.7996C86.271 10 86.723 10.1873 87.0564 10.5206C87.3897 10.8539 87.5769 11.306 87.5769 11.7773V44.1829C87.5769 45.1664 86.7796 45.9637 85.796 45.9637C84.8125 45.9637 84.0152 45.1664 84.0152 44.1829V13.5547H36.8563V18.773H76.6261C77.0975 18.773 77.5496 18.9602 77.8829 19.2935C78.2162 19.6269 78.4035 20.0789 78.4035 20.5503V44.1864C78.4035 45.168 77.6077 45.9637 76.6261 45.9637C75.6445 45.9637 74.8488 45.168 74.8488 44.1864V22.3229H27.6733V33.6687C27.6733 34.6503 26.8776 35.446 25.896 35.446Z" stroke="#18193F"/>
</svg>
