<svg width="110" height="110" viewBox="0 0 110 110" fill="none" xmlns="http://www.w3.org/2000/svg">
<path d="M93.3513 56.4941C93.6859 57.9112 94.4833 59.1733 95.6149 60.0768C96.7464 60.9803 98.1463 61.4727 99.5889 61.4746C101.289 61.4725 102.918 60.7897 104.12 59.5759C105.322 58.3621 105.998 56.7165 106 55C105.998 53.2835 105.322 51.6379 104.12 50.4241C102.918 49.2103 101.289 48.5275 99.5889 48.5254C98.1463 48.5273 96.7464 49.0197 95.6149 49.9232C94.4833 50.8267 93.6859 52.0888 93.3513 53.5059H86.5693V41.5527H93.5723C94.483 41.5509 95.3713 41.2671 96.1174 40.7395C96.8634 40.212 97.4313 39.466 97.7444 38.6023L98.8491 35.5323C99.0953 35.5611 99.3429 35.5757 99.5908 35.5762C101.29 35.5735 102.919 34.8905 104.121 33.6768C105.322 32.463 105.998 30.8177 106 29.1016C105.998 27.385 105.322 25.7394 104.12 24.5257C102.918 23.3119 101.289 22.6291 99.5889 22.627C97.8892 22.6291 96.2597 23.3119 95.0578 24.5257C93.856 25.7394 93.1798 27.385 93.1777 29.1016C93.1782 30.174 93.4425 31.2296 93.947 32.1733C94.4514 33.1171 95.1801 33.9195 96.0677 34.5084L94.961 37.5803C94.8568 37.8684 94.6676 38.1172 94.4189 38.2932C94.1702 38.4692 93.874 38.5639 93.5703 38.5645H86.5693V29.1016C86.5672 27.6492 85.9951 26.257 84.9782 25.23C83.9613 24.203 82.5826 23.6252 81.1445 23.623H71.7744V16.5508C71.777 16.2458 71.8717 15.9488 72.0458 15.6997C72.2199 15.4505 72.4652 15.2609 72.7489 15.1562L75.7908 14.0386C76.3748 14.9335 77.1697 15.6679 78.1041 16.1759C79.0386 16.6839 80.0833 16.9496 81.1445 16.9492C82.8442 16.9471 84.4737 16.2643 85.6756 15.0505C86.8774 13.8367 87.5536 12.1911 87.5557 10.4746C87.5536 8.75808 86.8774 7.11247 85.6756 5.89871C84.4737 4.68494 82.8442 4.00211 81.1445 4C79.4448 4.00211 77.8154 4.68494 76.6135 5.89871C75.4116 7.11247 74.7355 8.75808 74.7334 10.4746C74.7339 10.7249 74.7483 10.975 74.7768 11.2237L71.7369 12.3393C70.882 12.6554 70.1436 13.2286 69.6212 13.9817C69.0988 14.7347 68.8176 15.6313 68.8154 16.5508V23.6211H56.9795V16.7719C58.3827 16.434 59.6323 15.6288 60.527 14.486C61.4217 13.3432 61.9093 11.9294 61.9111 10.4726C61.9085 8.75643 61.2322 7.11134 60.0304 5.898C58.8286 4.68466 57.1994 4.00211 55.5 4C53.8003 4.00211 52.1708 4.68494 50.969 5.89871C49.7671 7.11247 49.091 8.75808 49.0889 10.4746C49.0907 11.9314 49.5783 13.3452 50.473 14.488C51.3677 15.6308 52.6173 16.436 54.0205 16.7739V23.623H42.1846V16.5508C42.1828 15.631 41.9017 14.7339 41.3793 13.9805C40.8569 13.227 40.1183 12.6535 39.2631 12.3373L36.2232 11.2217C36.2517 10.973 36.2661 10.7229 36.2666 10.4726C36.264 8.75643 35.5876 7.11134 34.3858 5.898C33.184 4.68466 31.5548 4.00211 29.8555 4C28.1558 4.00211 26.5263 4.68494 25.3244 5.89871C24.1226 7.11247 23.4464 8.75808 23.4443 10.4746C23.4464 12.1911 24.1226 13.8367 25.3244 15.0505C26.5263 16.2643 28.1558 16.9471 29.8555 16.9492C30.9174 16.9488 31.9626 16.6818 32.8971 16.1724C33.8316 15.6629 34.6261 14.927 35.2092 14.0307L38.2511 15.1483C38.5348 15.2529 38.7801 15.4425 38.9542 15.6917C39.1283 15.9409 39.223 16.2378 39.2256 16.5428V23.6131H29.8555C28.4174 23.6152 27.0387 24.1931 26.0218 25.22C25.0049 26.247 24.4328 27.6392 24.4307 29.0916V38.5545H17.4277C17.124 38.5539 16.8279 38.4593 16.5791 38.2833C16.3304 38.1073 16.1412 37.8584 16.037 37.5704L14.9304 34.4984C15.8169 33.9107 16.5451 33.11 17.0498 32.1681C17.5545 31.2262 17.82 30.1725 17.8223 29.1016C17.8202 27.385 17.144 25.7394 15.9422 24.5257C14.7403 23.3119 13.1108 22.6291 11.4111 22.627C9.71144 22.6291 8.08196 23.3119 6.88009 24.5257C5.67822 25.7394 5.00209 27.385 5 29.1016C5.00209 30.8181 5.67822 32.4637 6.88009 33.6775C8.08196 34.8912 9.71144 35.5741 11.4111 35.5762C11.659 35.5757 11.9066 35.5611 12.1529 35.5323L13.2576 38.6023C13.5706 39.4657 14.1381 40.2114 14.8838 40.739C15.6294 41.2665 16.5173 41.5505 17.4277 41.5527H24.4287V53.5059H17.6467C17.3121 52.0888 16.5148 50.8267 15.3832 49.9232C14.2516 49.0197 12.8517 48.5273 11.4092 48.5254C9.7098 48.528 8.08081 49.2111 6.87937 50.4248C5.67793 51.6385 5.00209 53.2838 5 55C5.00209 56.7165 5.67822 58.3621 6.88009 59.5759C8.08196 60.7897 9.71144 61.4725 11.4111 61.4746C12.8537 61.4727 14.2536 60.9803 15.3851 60.0768C16.5167 59.1733 17.3141 57.9112 17.6487 56.4941H24.4307V68.4473H17.4277C16.517 68.4491 15.6287 68.7329 14.8826 69.2605C14.1366 69.788 13.5687 70.534 13.2556 71.3977L12.1509 74.4677C11.9047 74.4389 11.657 74.4243 11.4092 74.4238C9.7098 74.4265 8.08081 75.1095 6.87937 76.3232C5.67793 77.5369 5.00209 79.1823 5 80.8984C5.00209 82.615 5.67822 84.2606 6.88009 85.4743C8.08196 86.6881 9.71144 87.3709 11.4111 87.373C13.1108 87.3709 14.7403 86.6881 15.9422 85.4743C17.144 84.2606 17.8202 82.615 17.8223 80.8984C17.8218 79.826 17.5575 78.7704 17.053 77.8267C16.5486 76.8829 15.8199 76.0805 14.9323 75.4916L16.039 72.4197C16.1432 72.1316 16.3324 71.8828 16.5811 71.7068C16.8298 71.5308 17.126 71.4361 17.4297 71.4355H24.4307V80.8984C24.4328 82.3508 25.0049 83.743 26.0218 84.77C27.0387 85.797 28.4174 86.3748 29.8555 86.377H39.2256V93.4492C39.223 93.7542 39.1283 94.0512 38.9542 94.3003C38.7801 94.5495 38.5348 94.7391 38.2511 94.8438L35.2092 95.9614C34.6252 95.0665 33.8303 94.3321 32.8959 93.8241C31.9614 93.3161 30.9167 93.0504 29.8555 93.0508C28.1558 93.0529 26.5263 93.7357 25.3244 94.9495C24.1226 96.1633 23.4464 97.8089 23.4443 99.5254C23.4464 101.242 24.1226 102.888 25.3244 104.101C26.5263 105.315 28.1558 105.998 29.8555 106C31.5552 105.998 33.1846 105.315 34.3865 104.101C35.5884 102.888 36.2645 101.242 36.2666 99.5254C36.2661 99.2751 36.2517 99.025 36.2232 98.7763L39.2631 97.6607C40.118 97.3446 40.8564 96.7714 41.3788 96.0183C41.9012 95.2653 42.1824 94.3687 42.1846 93.4492V86.3789H54.0205V93.2281C52.6173 93.566 51.3677 94.3712 50.473 95.514C49.5783 96.6568 49.0907 98.0706 49.0889 99.5274C49.0915 101.244 49.7678 102.889 50.9696 104.102C52.1714 105.315 53.8006 105.998 55.5 106C57.1997 105.998 58.8292 105.315 60.031 104.101C61.2329 102.888 61.909 101.242 61.9111 99.5254C61.9093 98.0686 61.4217 96.6548 60.527 95.512C59.6323 94.3692 58.3827 93.564 56.9795 93.2261V86.377H68.8154V93.4492C68.8172 94.369 69.0983 95.2661 69.6207 96.0195C70.1431 96.773 70.8817 97.3465 71.7369 97.6627L74.7768 98.7783C74.7483 99.027 74.7339 99.2771 74.7334 99.5274C74.736 101.244 75.4124 102.889 76.6142 104.102C77.816 105.315 79.4452 105.998 81.1445 106C82.8442 105.998 84.4737 105.315 85.6756 104.101C86.8774 102.888 87.5536 101.242 87.5557 99.5254C87.5536 97.8089 86.8774 96.1633 85.6756 94.9495C84.4737 93.7357 82.8442 93.0529 81.1445 93.0508C80.0826 93.0512 79.0374 93.3182 78.1029 93.8276C77.1684 94.3371 76.3739 95.073 75.7908 95.9693L72.7489 94.8517C72.4652 94.7471 72.2199 94.5575 72.0458 94.3083C71.8717 94.0591 71.777 93.7622 71.7744 93.4572V86.3869H81.1445C82.5826 86.3848 83.9613 85.8069 84.9782 84.78C85.9951 83.753 86.5672 82.3608 86.5693 80.9084V71.4455H93.5723C93.876 71.4461 94.1721 71.5407 94.4209 71.7167C94.6696 71.8927 94.8588 72.1416 94.963 72.4296L96.0697 75.5016C95.1832 76.0893 94.4548 76.89 93.9501 77.8319C93.4454 78.7738 93.18 79.8275 93.1777 80.8984C93.1798 82.615 93.856 84.2606 95.0578 85.4743C96.2597 86.6881 97.8892 87.3709 99.5889 87.373C101.289 87.3709 102.918 86.6881 104.12 85.4743C105.322 84.2606 105.998 82.615 106 80.8984C105.998 79.1819 105.322 77.5363 104.12 76.3225C102.918 75.1088 101.289 74.4259 99.5889 74.4238C99.341 74.4244 99.0934 74.439 98.8472 74.4677L97.7425 71.3977C97.4295 70.5343 96.8619 69.7886 96.1162 69.261C95.3706 68.7335 94.4827 68.4495 93.5723 68.4473H86.5693V56.4941H93.3513ZM99.5889 51.5137C100.504 51.5147 101.382 51.8824 102.029 52.536C102.676 53.1895 103.04 54.0757 103.041 55C103.04 55.9243 102.676 56.8105 102.029 57.464C101.382 58.1176 100.504 58.4853 99.5889 58.4863C98.6736 58.4853 97.7961 58.1176 97.149 57.464C96.5018 56.8105 96.1378 55.9243 96.1367 55C96.1378 54.0757 96.5018 53.1895 97.149 52.536C97.7961 51.8824 98.6736 51.5147 99.5889 51.5137ZM99.5889 25.6152C100.504 25.6163 101.382 25.9839 102.029 26.6375C102.676 27.2911 103.04 28.1773 103.041 29.1016C103.04 30.0259 102.676 30.912 102.029 31.5656C101.382 32.2192 100.504 32.5868 99.5889 32.5879C98.6736 32.5868 97.7961 32.2192 97.149 31.5656C96.5018 30.912 96.1378 30.0259 96.1367 29.1016C96.1378 28.1773 96.5018 27.2911 97.149 26.6375C97.7961 25.9839 98.6736 25.6163 99.5889 25.6152ZM81.1445 6.98828C82.0598 6.98934 82.9372 7.35698 83.5844 8.01057C84.2316 8.66415 84.5956 9.5503 84.5967 10.4746C84.5956 11.3989 84.2316 12.2851 83.5844 12.9387C82.9372 13.5922 82.0598 13.9599 81.1445 13.9609C80.2293 13.9599 79.3518 13.5922 78.7047 12.9387C78.0575 12.2851 77.6934 11.3989 77.6924 10.4746C77.6934 9.5503 78.0575 8.66415 78.7047 8.01057C79.3518 7.35698 80.2293 6.98934 81.1445 6.98828ZM52.0479 10.4746C52.0489 9.5503 52.413 8.66415 53.0601 8.01057C53.7073 7.35698 54.5848 6.98934 55.5 6.98828C56.4152 6.98934 57.2927 7.35698 57.9399 8.01057C58.587 8.66415 58.9511 9.5503 58.9521 10.4746C58.9511 11.3989 58.587 12.2851 57.9399 12.9387C57.2927 13.5922 56.4152 13.9599 55.5 13.9609C54.5848 13.9599 53.7073 13.5922 53.0601 12.9387C52.413 12.2851 52.0489 11.3989 52.0479 10.4746ZM29.8555 13.9609C28.9402 13.9599 28.0628 13.5922 27.4156 12.9387C26.7684 12.2851 26.4044 11.3989 26.4033 10.4746C26.4044 9.5503 26.7684 8.66415 27.4156 8.01057C28.0628 7.35698 28.9402 6.98934 29.8555 6.98828C30.7707 6.98934 31.6482 7.35698 32.2953 8.01057C32.9425 8.66415 33.3066 9.5503 33.3076 10.4746C33.3066 11.3989 32.9425 12.2851 32.2953 12.9387C31.6482 13.5922 30.7707 13.9599 29.8555 13.9609ZM7.95898 29.1016C7.96003 28.1773 8.32409 27.2911 8.97127 26.6375C9.61845 25.9839 10.4959 25.6163 11.4111 25.6152C12.3264 25.6163 13.2038 25.9839 13.851 26.6375C14.4982 27.2911 14.8622 28.1773 14.8633 29.1016C14.8622 30.0259 14.4982 30.912 13.851 31.5656C13.2038 32.2192 12.3264 32.5868 11.4111 32.5879C10.4959 32.5868 9.61845 32.2192 8.97127 31.5656C8.32409 30.912 7.96003 30.0259 7.95898 29.1016ZM11.4111 58.4863C10.4959 58.4853 9.61845 58.1176 8.97127 57.464C8.32409 56.8105 7.96003 55.9243 7.95898 55C7.96003 54.0757 8.32409 53.1895 8.97127 52.536C9.61845 51.8824 10.4959 51.5147 11.4111 51.5137C12.3264 51.5147 13.2038 51.8824 13.851 52.536C14.4982 53.1895 14.8622 54.0757 14.8633 55C14.8622 55.9243 14.4982 56.8105 13.851 57.464C13.2038 58.1176 12.3264 58.4853 11.4111 58.4863ZM11.4111 84.3848C10.4959 84.3837 9.61845 84.0161 8.97127 83.3625C8.32409 82.7089 7.96003 81.8227 7.95898 80.8984C7.96003 79.9741 8.32409 79.088 8.97127 78.4344C9.61845 77.7808 10.4959 77.4132 11.4111 77.4121C12.3264 77.4132 13.2038 77.7808 13.851 78.4344C14.4982 79.088 14.8622 79.9741 14.8633 80.8984C14.8622 81.8227 14.4982 82.7089 13.851 83.3625C13.2038 84.0161 12.3264 84.3837 11.4111 84.3848ZM29.8555 103.012C28.9402 103.011 28.0628 102.643 27.4156 101.989C26.7684 101.336 26.4044 100.45 26.4033 99.5254C26.4044 98.6011 26.7684 97.7149 27.4156 97.0613C28.0628 96.4078 28.9402 96.0401 29.8555 96.0391C30.7707 96.0401 31.6482 96.4078 32.2953 97.0613C32.9425 97.7149 33.3066 98.6011 33.3076 99.5254C33.3066 100.45 32.9425 101.336 32.2953 101.989C31.6482 102.643 30.7707 103.011 29.8555 103.012ZM58.9521 99.5254C58.9511 100.45 58.587 101.336 57.9399 101.989C57.2927 102.643 56.4152 103.011 55.5 103.012C54.5848 103.011 53.7073 102.643 53.0601 101.989C52.413 101.336 52.0489 100.45 52.0479 99.5254C52.0489 98.6011 52.413 97.7149 53.0601 97.0613C53.7073 96.4078 54.5848 96.0401 55.5 96.0391C56.4152 96.0401 57.2927 96.4078 57.9399 97.0613C58.587 97.7149 58.9511 98.6011 58.9521 99.5254ZM81.1445 96.0391C82.0598 96.0401 82.9372 96.4078 83.5844 97.0613C84.2316 97.7149 84.5956 98.6011 84.5967 99.5254C84.5956 100.45 84.2316 101.336 83.5844 101.989C82.9372 102.643 82.0598 103.011 81.1445 103.012C80.2293 103.011 79.3518 102.643 78.7047 101.989C78.0575 101.336 77.6934 100.45 77.6924 99.5254C77.6934 98.6011 78.0575 97.7149 78.7047 97.0613C79.3518 96.4078 80.2293 96.0401 81.1445 96.0391ZM83.6104 80.8984C83.6093 81.5586 83.3492 82.1914 82.887 82.6581C82.4248 83.1249 81.7982 83.3876 81.1445 83.3887H29.8555C29.2018 83.3876 28.5752 83.1249 28.113 82.6581C27.6508 82.1914 27.3907 81.5586 27.3896 80.8984V29.1016C27.3907 28.4414 27.6508 27.8086 28.113 27.3419C28.5752 26.8751 29.2018 26.6124 29.8555 26.6113H81.1445C81.7982 26.6124 82.4248 26.8751 82.887 27.3419C83.3492 27.8086 83.6093 28.4414 83.6104 29.1016V80.8984ZM103.041 80.8984C103.04 81.8227 102.676 82.7089 102.029 83.3625C101.382 84.0161 100.504 84.3837 99.5889 84.3848C98.6736 84.3837 97.7961 84.0161 97.149 83.3625C96.5018 82.7089 96.1378 81.8227 96.1367 80.8984C96.1378 79.9741 96.5018 79.088 97.149 78.4344C97.7961 77.7808 98.6736 77.4132 99.5889 77.4121C100.504 77.4132 101.382 77.7808 102.029 78.4344C102.676 79.088 103.04 79.9741 103.041 80.8984Z" fill="#18193F" stroke="#18193F"/>
<path d="M55.5 46C53.2465 46.0026 51.086 46.899 49.4925 48.4925C47.899 50.086 47.0026 52.2465 47 54.5C47.0026 56.7535 47.899 58.914 49.4925 60.5075C51.086 62.101 53.2465 62.9974 55.5 63C57.7535 62.9974 59.914 62.101 61.5075 60.5075C63.101 58.914 63.9974 56.7535 64 54.5C63.9974 52.2465 63.101 50.086 61.5075 48.4925C59.914 46.899 57.7535 46.0026 55.5 46ZM55.5 60C54.042 59.9979 52.6442 59.4177 51.6132 58.3867C50.5822 57.3558 50.0021 55.958 50 54.5C50.0021 53.042 50.5822 51.6442 51.6132 50.6133C52.6442 49.5823 54.042 49.0021 55.5 49C56.958 49.0021 58.3558 49.5823 59.3868 50.6133C60.4178 51.6442 60.9979 53.042 61 54.5C60.9979 55.958 60.4178 57.3558 59.3868 58.3867C58.3558 59.4177 56.958 59.9979 55.5 60Z" fill="#FFCE26"/>
<path d="M55.5 57C56.8807 57 58 55.8807 58 54.5C58 53.1193 56.8807 52 55.5 52C54.1193 52 53 53.1193 53 54.5C53 55.8807 54.1193 57 55.5 57Z" fill="#95C9F8"/>
<path d="M73.5 31H37.5C36.042 31.0021 34.6442 31.5823 33.6132 32.6133C32.5822 33.6442 32.0021 35.042 32 36.5V72.5C32.0021 73.958 32.5822 75.3558 33.6132 76.3867C34.6442 77.4177 36.042 77.9979 37.5 78H73.5C74.958 77.9979 76.3558 77.4177 77.3868 76.3867C78.4178 75.3558 78.9979 73.958 79 72.5V36.5C78.9979 35.042 78.4178 33.6442 77.3868 32.6133C76.3558 31.5823 74.958 31.0021 73.5 31ZM66.44 41.44L68.44 39.44C68.5791 39.3007 68.7444 39.1901 68.9263 39.1147C69.1082 39.0393 69.3031 39.0005 69.5 39.0005C69.6969 39.0005 69.8918 39.0393 70.0737 39.1147C70.2556 39.1901 70.4209 39.3007 70.56 39.44C70.6993 39.5791 70.8098 39.7444 70.8853 39.9262C70.9607 40.1081 70.9995 40.3031 70.9995 40.5C70.9995 40.6969 70.9607 40.8919 70.8853 41.0738C70.8098 41.2556 70.6993 41.4209 70.56 41.56L68.56 43.56C68.4213 43.6999 68.2561 43.8108 68.0741 43.8863C67.8922 43.9618 67.697 44.0005 67.5 44C67.303 44.0005 67.1078 43.9618 66.9259 43.8863C66.7439 43.8108 66.5788 43.6999 66.44 43.56C66.3007 43.4209 66.1902 43.2556 66.1147 43.0738C66.0393 42.8919 66.0005 42.6969 66.0005 42.5C66.0005 42.3031 66.0393 42.1081 66.1147 41.9262C66.1902 41.7444 66.3007 41.5791 66.44 41.44ZM40.44 39.44C40.5791 39.3007 40.7444 39.1901 40.9263 39.1147C41.1082 39.0393 41.3031 39.0005 41.5 39.0005C41.6969 39.0005 41.8918 39.0393 42.0737 39.1147C42.2556 39.1901 42.4209 39.3007 42.56 39.44L44.56 41.44C44.6993 41.5791 44.8098 41.7444 44.8853 41.9262C44.9607 42.1081 44.9995 42.3031 44.9995 42.5C44.9995 42.6969 44.9607 42.8919 44.8853 43.0738C44.8098 43.2556 44.6993 43.4209 44.56 43.56C44.4213 43.6999 44.2561 43.8108 44.0741 43.8863C43.8922 43.9618 43.697 44.0005 43.5 44C43.303 44.0005 43.1078 43.9618 42.9259 43.8863C42.7439 43.8108 42.5787 43.6999 42.44 43.56L40.44 41.56C40.3007 41.4209 40.1902 41.2556 40.1147 41.0738C40.0393 40.8919 40.0005 40.6969 40.0005 40.5C40.0005 40.3031 40.0393 40.1081 40.1147 39.9262C40.1902 39.7444 40.3007 39.5791 40.44 39.44ZM44.56 67.56L42.56 69.56C42.4213 69.6999 42.2561 69.8108 42.0741 69.8863C41.8922 69.9618 41.697 70.0005 41.5 70C41.303 70.0005 41.1078 69.9618 40.9259 69.8863C40.7439 69.8108 40.5787 69.6999 40.44 69.56C40.3007 69.4209 40.1902 69.2556 40.1147 69.0738C40.0393 68.8919 40.0005 68.6969 40.0005 68.5C40.0005 68.3031 40.0393 68.1081 40.1147 67.9262C40.1902 67.7444 40.3007 67.5791 40.44 67.44L42.44 65.44C42.5791 65.3007 42.7444 65.1901 42.9263 65.1147C43.1082 65.0393 43.3031 65.0005 43.5 65.0005C43.6969 65.0005 43.8918 65.0393 44.0737 65.1147C44.2556 65.1901 44.4209 65.3007 44.56 65.44C44.6993 65.5791 44.8098 65.7444 44.8853 65.9262C44.9607 66.1081 44.9995 66.3031 44.9995 66.5C44.9995 66.6969 44.9607 66.8919 44.8853 67.0738C44.8098 67.2556 44.6993 67.4209 44.56 67.56ZM70.56 69.56C70.4213 69.6999 70.2561 69.8108 70.0741 69.8863C69.8922 69.9618 69.697 70.0005 69.5 70C69.303 70.0005 69.1078 69.9618 68.9259 69.8863C68.7439 69.8108 68.5788 69.6999 68.44 69.56L66.44 67.56C66.3007 67.4209 66.1902 67.2556 66.1147 67.0738C66.0393 66.8919 66.0005 66.6969 66.0005 66.5C66.0005 66.3031 66.0393 66.1081 66.1147 65.9262C66.1902 65.7444 66.3007 65.5791 66.44 65.44C66.5791 65.3007 66.7444 65.1901 66.9263 65.1147C67.1082 65.0393 67.3031 65.0005 67.5 65.0005C67.6969 65.0005 67.8918 65.0393 68.0737 65.1147C68.2556 65.1901 68.4209 65.3007 68.56 65.44L70.56 67.44C70.6993 67.5791 70.8098 67.7444 70.8853 67.9262C70.9607 68.1081 70.9995 68.3031 70.9995 68.5C70.9995 68.6969 70.9607 68.8919 70.8853 69.0738C70.8098 69.2556 70.6993 69.4209 70.56 69.56ZM71.5 56H66.9C66.5672 58.5088 65.4171 60.8381 63.6276 62.6276C61.8381 64.4171 59.5088 65.5672 57 65.9V70.5C57 70.8978 56.8419 71.2794 56.5606 71.5607C56.2793 71.842 55.8978 72 55.5 72C55.1022 72 54.7207 71.842 54.4394 71.5607C54.1581 71.2794 54 70.8978 54 70.5V65.9C51.4912 65.5672 49.1619 64.4171 47.3724 62.6276C45.5829 60.8381 44.4328 58.5088 44.1 56H39.5C39.1022 56 38.7207 55.842 38.4394 55.5607C38.1581 55.2794 38 54.8978 38 54.5C38 54.1022 38.1581 53.7206 38.4394 53.4393C38.7207 53.158 39.1022 53 39.5 53H44.1C44.4328 50.4912 45.5829 48.1619 47.3724 46.3724C49.1619 44.5829 51.4912 43.4328 54 43.1V38.5C54 38.1022 54.1581 37.7206 54.4394 37.4393C54.7207 37.158 55.1022 37 55.5 37C55.8978 37 56.2793 37.158 56.5606 37.4393C56.8419 37.7206 57 38.1022 57 38.5V43.1C59.5088 43.4328 61.8381 44.5829 63.6276 46.3724C65.4171 48.1619 66.5672 50.4912 66.9 53H71.5C71.8978 53 72.2793 53.158 72.5606 53.4393C72.8419 53.7206 73 54.1022 73 54.5C73 54.8978 72.8419 55.2794 72.5606 55.5607C72.2793 55.842 71.8978 56 71.5 56Z" fill="#95C9F8"/>
</svg>
