<svg width="110" height="110" viewBox="0 0 110 110" fill="none" xmlns="http://www.w3.org/2000/svg">
<g clip-path="url(#clip0_3112_11755)">
<path d="M80.958 16.5C80.5933 16.5 80.2436 16.3551 79.9857 16.0973C79.7279 15.8394 79.583 15.4897 79.583 15.125V12.375C79.583 12.0103 79.7279 11.6606 79.9857 11.4027C80.2436 11.1449 80.5933 11 80.958 11C81.3227 11 81.6724 11.1449 81.9303 11.4027C82.1882 11.6606 82.333 12.0103 82.333 12.375V15.125C82.333 15.4897 82.1882 15.8394 81.9303 16.0973C81.6724 16.3551 81.3227 16.5 80.958 16.5Z" fill="#FFCE26"/>
<path d="M80.958 39.417C80.5933 39.417 80.2436 39.2721 79.9857 39.0143C79.7279 38.7564 79.583 38.4067 79.583 38.042V35.292C79.583 34.9273 79.7279 34.5776 79.9857 34.3197C80.2436 34.0618 80.5933 33.917 80.958 33.917C81.3227 33.917 81.6724 34.0618 81.9303 34.3197C82.1882 34.5776 82.333 34.9273 82.333 35.292V38.042C82.333 38.4067 82.1882 38.7564 81.9303 39.0143C81.6724 39.2721 81.3227 39.417 80.958 39.417Z" fill="#FFCE26"/>
<path d="M80.9583 31.1667C84.249 31.1667 86.9167 28.499 86.9167 25.2083C86.9167 21.9176 84.249 19.25 80.9583 19.25C77.6676 19.25 75 21.9176 75 25.2083C75 28.499 77.6676 31.1667 80.9583 31.1667Z" fill="#FFCE26"/>
<path d="M73.231 19.6625C72.8626 19.6592 72.5102 19.511 72.2502 19.25L70.6552 17.655C70.4123 17.3944 70.2801 17.0496 70.2863 16.6934C70.2926 16.3371 70.4369 15.9973 70.6888 15.7454C70.9408 15.4934 71.2806 15.3492 71.6368 15.3429C71.9931 15.3366 72.3378 15.4688 72.5985 15.7117L74.1935 17.3067C74.3855 17.499 74.5163 17.7438 74.5692 18.0104C74.6222 18.277 74.595 18.5533 74.491 18.8044C74.387 19.0555 74.211 19.2701 73.9851 19.4212C73.7592 19.5723 73.4936 19.6531 73.2218 19.6533L73.231 19.6625Z" fill="#FFCE26"/>
<path d="M90.1798 35.6955C89.8159 35.6922 89.4674 35.5475 89.2082 35.2921L87.6132 33.6971C87.3703 33.4365 87.2381 33.0917 87.2444 32.7355C87.2506 32.3793 87.3949 32.0394 87.6469 31.7875C87.8988 31.5356 88.2386 31.3913 88.5948 31.385C88.9511 31.3787 89.2958 31.5109 89.5565 31.7538L91.1515 33.3488C91.3435 33.5411 91.4743 33.7859 91.5272 34.0525C91.5802 34.3191 91.553 34.5954 91.449 34.8465C91.3451 35.0976 91.169 35.3122 90.9431 35.4633C90.7172 35.6144 90.4516 35.6952 90.1798 35.6955Z" fill="#FFCE26"/>
<path d="M69.9583 26.583H68.125C67.7603 26.583 67.4106 26.4382 67.1527 26.1803C66.8949 25.9224 66.75 25.5727 66.75 25.208C66.75 24.8433 66.8949 24.4936 67.1527 24.2357C67.4106 23.9779 67.7603 23.833 68.125 23.833H69.9583C70.323 23.833 70.6728 23.9779 70.9306 24.2357C71.1885 24.4936 71.3333 24.8433 71.3333 25.208C71.3333 25.5727 71.1885 25.9224 70.9306 26.1803C70.6728 26.4382 70.323 26.583 69.9583 26.583Z" fill="#FFCE26"/>
<path d="M93.7913 26.583H91.958C91.5933 26.583 91.2436 26.4382 90.9857 26.1803C90.7279 25.9224 90.583 25.5727 90.583 25.208C90.583 24.8433 90.7279 24.4936 90.9857 24.2357C91.2436 23.9779 91.5933 23.833 91.958 23.833H93.7913C94.156 23.833 94.5058 23.9779 94.7636 24.2357C95.0215 24.4936 95.1663 24.8433 95.1663 25.208C95.1663 25.5727 95.0215 25.9224 94.7636 26.1803C94.5058 26.4382 94.156 26.583 93.7913 26.583Z" fill="#FFCE26"/>
<path d="M71.6359 35.6955C71.2716 35.6941 70.9224 35.5492 70.6643 35.2921C70.5357 35.1651 70.4336 35.0138 70.3639 34.847C70.2942 34.6802 70.2583 34.5012 70.2583 34.3205C70.2583 34.1397 70.2942 33.9607 70.3639 33.7939C70.4336 33.6271 70.5357 33.4758 70.6643 33.3488L72.2593 31.7538C72.5199 31.5109 72.8646 31.3787 73.2209 31.385C73.5771 31.3913 73.917 31.5356 74.1689 31.7875C74.4208 32.0394 74.5651 32.3793 74.5714 32.7355C74.5777 33.0917 74.4455 33.4365 74.2026 33.6971L72.6076 35.2921C72.3494 35.5492 72.0003 35.6941 71.6359 35.6955Z" fill="#FFCE26"/>
<path d="M88.5847 19.6623C88.2203 19.661 87.8712 19.5161 87.613 19.259C87.4844 19.1319 87.3823 18.9806 87.3126 18.8138C87.2429 18.647 87.207 18.4681 87.207 18.2873C87.207 18.1065 87.2429 17.9276 87.3126 17.7608C87.3823 17.594 87.4844 17.4427 87.613 17.3156L89.208 15.7206C89.4686 15.4778 89.8134 15.3455 90.1696 15.3518C90.5259 15.3581 90.8657 15.5024 91.1176 15.7543C91.3696 16.0063 91.5138 16.3461 91.5201 16.7023C91.5264 17.0585 91.3942 17.4033 91.1513 17.664L89.5563 19.2498C89.2996 19.5102 88.9503 19.6586 88.5847 19.6623Z" fill="#FFCE26"/>
<path d="M77.833 66.75H64.083L79.6663 98.8333H96.1663L77.833 66.75Z" fill="#FFCE26"/>
<path d="M6.41699 98.833H73.2503L50.3337 52.083H29.3337L6.41699 98.833Z" fill="#95C9F8"/>
<path d="M108.625 100.667H1.375C1.01033 100.667 0.660583 100.522 0.40272 100.264C0.144858 100.006 0 99.6567 0 99.292C0 98.9273 0.144858 98.5776 0.40272 98.3197C0.660583 98.0618 1.01033 97.917 1.375 97.917H108.625C108.99 97.917 109.339 98.0618 109.597 98.3197C109.855 98.5776 110 98.9273 110 99.292C110 99.6567 109.855 100.006 109.597 100.264C109.339 100.522 108.99 100.667 108.625 100.667Z" fill="#18193F" stroke="#18193F" stroke-width="1.5"/>
<path d="M80.447 100.208C80.1916 100.209 79.9411 100.138 79.724 100.003C79.5069 99.869 79.3318 99.6763 79.2187 99.4473L43.4687 27.6632L7.71867 99.4473C7.6437 99.6179 7.53486 99.7714 7.39875 99.8986C7.26264 100.026 7.1021 100.124 6.92688 100.187C6.75166 100.251 6.56539 100.278 6.37942 100.267C6.19345 100.256 6.01168 100.207 5.84505 100.124C5.67843 100.04 5.53047 99.9242 5.41016 99.782C5.28985 99.6397 5.19965 99.4745 5.14513 99.2964C5.09061 99.1182 5.0729 98.9309 5.09299 98.7457C5.11308 98.5605 5.17056 98.3813 5.26201 98.219L42.277 23.969C42.3915 23.7414 42.567 23.5501 42.7839 23.4164C43.0008 23.2827 43.2506 23.2119 43.5054 23.2119C43.7602 23.2119 44.0099 23.2827 44.2268 23.4164C44.4437 23.5501 44.6192 23.7414 44.7337 23.969L81.7579 98.219C81.9143 98.5454 81.9366 98.9201 81.8201 99.2628C81.7036 99.6055 81.4575 99.8889 81.1345 100.052C80.9237 100.166 80.6861 100.22 80.447 100.208Z" fill="#18193F" stroke="#18193F" stroke-width="1.5"/>
<path d="M102.859 100.208C102.615 100.208 102.376 100.144 102.165 100.021C101.954 99.8989 101.779 99.7231 101.658 99.5115L71.8483 46.8765L65.9083 55.5023C65.7017 55.8038 65.3838 56.0108 65.0245 56.0779C64.6652 56.1449 64.294 56.0665 63.9925 55.8598C63.691 55.6532 63.484 55.3352 63.4169 54.9759C63.3499 54.6166 63.4283 54.2455 63.635 53.944L70.8217 43.5123C70.9538 43.3204 71.1325 43.1653 71.341 43.0613C71.5495 42.9574 71.781 42.9082 72.0137 42.9183C72.2465 42.9284 72.4729 42.9974 72.6716 43.119C72.8704 43.2405 73.035 43.4106 73.15 43.6132L104.051 98.1548C104.221 98.4671 104.262 98.8333 104.166 99.1757C104.07 99.518 103.845 99.8095 103.538 99.9882C103.336 100.122 103.101 100.198 102.859 100.208Z" fill="#18193F" stroke="#18193F" stroke-width="1.5"/>
</g>
<defs>
<clipPath id="clip0_3112_11755">
<rect width="110" height="110" fill="white"/>
</clipPath>
</defs>
</svg>
