<svg width="60" height="24" viewBox="0 0 60 24" fill="none" xmlns="http://www.w3.org/2000/svg">
<path d="M38.0612 0.397559C38.0612 0.397559 37.9938 0.347081 37.9432 0.338668C37.7663 0.305016 37.5978 0.431211 37.3367 0.633125L37.1345 0.78456C36.4184 1.16315 35.8708 2.95513 35.7529 3.68706C35.7276 3.69548 35.7192 3.7123 35.677 3.72913C35.239 2.97195 34.4302 2.26526 33.5962 2.15589C33.9247 3.42626 35.0452 7.26261 36.5363 6.92609C37.2946 6.75783 38.8699 3.57769 38.8868 1.81937V1.75206C38.8784 0.826625 38.4487 0.490103 38.0612 0.380733V0.397559Z" fill="#F08300"/>
<path d="M48.1117 19.9327C46.2415 20.0085 45.6265 19.9075 43.79 20.5132C43.5372 20.5889 43.3098 20.7656 43.1076 20.9928C43.1328 21.3798 42.9054 21.9855 43.2676 22.1285C43.2845 22.1285 43.2845 22.1874 43.3013 22.2211C43.4108 22.3305 43.5204 22.3389 43.6215 22.4735C43.6889 22.5744 43.7478 22.4651 43.8237 22.5071C43.8574 22.5408 43.8742 22.5997 43.9079 22.6081C44.0848 22.6922 44.2533 22.6586 44.4302 22.7511C44.5229 22.8268 44.6156 22.81 44.6998 22.8184C44.7503 22.7932 44.8262 22.9278 44.843 22.9614C45.18 23.1045 45.5001 22.9783 45.8371 22.9698C46.8733 22.953 46.6796 22.8521 47.7158 22.8352C48.5919 22.8184 49.4344 22.953 50.3105 22.9446C50.7823 22.9278 51.2962 22.9446 51.768 22.911C52.602 22.8605 53.436 22.9867 54.2785 23.0035C54.6997 22.9951 55.1799 23.1549 55.6011 23.1886C56.056 23.1886 56.4857 23.0708 56.949 23.1633C57.0923 23.1718 57.2355 23.1549 57.3871 23.2222C57.5219 23.2895 57.6735 23.3568 57.7999 23.3653C58.2043 23.3905 58.5581 23.2475 58.9456 23.096C59.1731 23.0287 59.409 22.9867 59.6196 22.8521C59.7291 22.8016 59.8218 22.6333 59.8639 22.4651C59.9734 22.1538 60.0577 21.8088 59.9482 21.4555C59.9313 21.4555 59.8723 21.4807 59.8555 21.4555C59.8134 21.3966 59.8218 21.2536 59.7713 21.2452C59.6028 21.1779 59.4427 21.161 59.2742 21.1274C59.0552 21.0769 58.8277 20.976 58.6087 20.9339C57.5725 20.6815 51.6584 19.7897 48.1117 19.9411V19.9327Z" fill="#009F73"/>
<path d="M30.025 20.614C30.2103 20.6561 30.4293 20.6561 30.5304 20.7739C30.6315 20.8749 30.4293 21.0347 30.4462 21.1609C30.4462 21.4722 30.5557 21.7498 30.5557 22.0527C30.5557 22.1032 30.5389 22.1536 30.4799 22.2125C30.4293 22.2882 30.3451 22.3724 30.2524 22.4229C29.9913 22.5911 29.6459 22.5238 29.351 22.6079C28.9635 22.7257 28.5422 22.7678 28.1463 22.8099C27.4218 22.8856 26.731 22.7341 25.998 22.7089C25.72 22.6921 25.4167 22.7341 25.1809 22.8183C24.8523 22.9024 24.5153 22.894 24.1783 22.8856C22.426 22.8183 20.7159 22.7846 18.972 22.8014C18.6687 22.8099 18.3317 22.8519 18.0285 22.8603C16.63 22.936 15.2315 22.9108 13.833 22.9529C13.3444 22.9697 12.8558 22.9781 12.3672 22.9697C12.0892 22.9697 11.8196 22.9865 11.5753 22.9865C10.5391 23.037 9.47757 23.0875 8.43293 23.0454C8.03698 23.0454 7.60733 23.0454 7.21138 23.0538C6.05722 23.1127 4.87779 23.3062 3.70678 23.2389C2.84748 23.1969 2.04716 22.9949 1.25525 22.5911C0.716083 22.3135 0.303282 21.9349 0 21.4722C0.202188 21.2114 0.497046 21.1104 0.834027 21.0263C1.61751 20.816 2.34201 20.6814 3.12549 20.5467C3.79103 20.4374 4.39759 20.3785 5.03786 20.3196C13.4202 19.5708 22.8136 19.8485 26.4782 20.0924C27.7082 20.1766 28.854 20.3364 30.0418 20.5972L30.025 20.614Z" fill="#0073BD"/>
<path d="M45.1558 12.79V12.8826C45.2316 13.0761 45.3748 13.1266 45.5265 13.2612H46.0151C46.0151 13.1686 46.1246 13.2612 46.1246 13.1686C46.2341 13.1686 46.4026 13.1266 46.4785 12.9751H46.5543C46.6385 12.8321 46.7565 12.7311 46.9165 12.7311C47.1187 12.4956 47.3125 12.2516 47.5147 12.016C47.5147 11.9151 47.5568 11.8225 47.6326 11.7721C47.7506 11.343 47.8348 10.8635 48.037 10.4344C48.037 10.2914 48.1128 10.0979 48.0791 9.95484C48.1212 9.95484 48.1549 9.95484 48.1549 9.90436C48.1128 9.71086 48.2308 9.61832 48.315 9.51736C48.3992 9.51736 48.4751 9.51736 48.5172 9.42482V9.33228C48.7194 9.33228 48.9384 9.4753 49.0985 9.6688H49.3596C49.3596 9.76975 49.4102 9.76975 49.4692 9.81182C49.6798 9.81182 50.1431 9.76134 50.3537 9.85389C50.3537 9.99691 50.5643 9.95484 50.6149 10.0979C50.6654 10.2409 50.6654 10.3839 50.775 10.5269C50.775 10.5774 50.775 10.6195 50.7244 10.67C50.8339 10.813 50.935 11.0485 50.775 11.1916C50.8255 11.3851 50.775 11.6206 50.876 11.8141C50.775 11.9067 50.8255 12.0581 50.8255 12.1506C50.9266 12.3441 50.9266 12.5797 50.9856 12.8237C51.1962 13.0593 51.1456 13.3537 51.2973 13.5893V13.8753C51.3984 13.8753 51.2973 14.0183 51.3984 14.0183C51.4489 14.3044 51.2973 14.6409 51.2973 14.927C51.2467 14.969 51.1878 15.0195 51.1372 15.07V15.1625C51.0867 15.1625 51.0361 15.1625 51.0361 15.112C50.9266 15.2551 50.775 15.356 50.6654 15.499C50.5643 15.4486 50.5054 15.5495 50.4548 15.5495C50.3537 15.5495 50.4548 15.6925 50.3537 15.6925C50.2526 15.6925 50.1431 15.743 50.0926 15.7851C49.983 15.8356 49.6292 15.7346 49.5281 15.8356L49.4776 15.7851C49.427 15.8356 49.3681 15.8776 49.267 15.8776C49.267 15.8272 49.267 15.7851 49.2164 15.7851C49.1659 15.9281 48.93 16.0291 48.7952 15.9786C48.7531 15.886 48.7699 15.8103 48.652 15.7683C48.6099 15.4654 48.6099 15.2046 48.4498 14.9438C48.4919 14.9438 48.4919 14.9017 48.4919 14.8597C48.4498 14.725 48.374 14.5988 48.374 14.4727C48.256 14.296 48.2139 14.0436 48.0538 13.909C48.096 13.8669 47.9696 13.8248 48.0117 13.7744C47.9359 13.6902 47.8938 13.6482 47.8095 13.5556C47.7337 13.5556 47.7337 13.5977 47.6916 13.6398C47.6495 13.8585 47.4473 14.0268 47.4136 14.2455L47.3715 14.2034C47.3293 14.3296 47.2114 14.4222 47.2114 14.5484C47.1356 14.5904 47.0934 14.7166 47.0176 14.7587V14.8428C46.7396 15.1036 46.588 15.5243 46.251 15.701C46.1667 15.8776 45.9561 15.9197 45.8719 16.1216C45.7455 16.1216 45.5518 16.1721 45.3917 16.2226C45.2906 16.1721 45.1305 16.0711 45.0294 16.1721C45.0294 16.1216 44.9789 16.1216 44.9283 16.1216L44.8778 16.1721C44.7767 16.0711 44.6166 16.1721 44.4566 16.1216C44.1449 15.8692 43.7742 15.7683 43.4119 15.5663C43.3024 15.5663 43.4119 15.4149 43.3024 15.4149C43.2519 15.4149 43.2013 15.4149 43.1508 15.3644C43.1508 15.213 43.2013 15.112 43.0497 15.0111L43.1002 14.9606C43.1002 14.9101 43.0497 14.9101 42.9991 14.9101C42.9486 14.6073 42.7885 14.3549 42.738 14.052C42.6987 14.0183 42.665 13.9847 42.6369 13.951C42.6369 13.7996 42.5863 13.6482 42.5274 13.5472C42.4768 13.3453 42.6537 13.177 42.5526 12.9835C42.5526 12.9415 42.5526 12.891 42.6032 12.8405C42.5526 12.5965 42.6032 12.4535 42.6537 12.218C42.6032 12.218 42.6032 12.1759 42.6032 12.1254C42.7043 11.9319 42.7043 11.7384 42.7043 11.5533C42.7548 11.4103 42.8559 11.2673 42.898 11.1243L42.8475 11.0738C42.9486 10.9812 42.898 10.8298 43.0497 10.7373C43.0497 10.6868 43.0497 10.6447 42.9991 10.6447C42.9991 10.5438 43.1002 10.5017 43.1508 10.4512C43.2013 10.3587 43.3951 9.98008 43.513 9.90436L43.4793 9.84547C43.5636 9.71928 43.791 9.6688 43.9679 9.65197C44.1027 9.63515 44.3555 9.76975 44.4313 9.81182C44.4903 9.92119 44.4313 10.0137 44.5071 10.1568H44.5829V10.2493C44.5829 10.2998 44.6166 10.2998 44.6588 10.2998C44.6925 10.4428 44.7683 10.5858 44.7346 10.7288C44.7346 10.7793 44.7767 10.7793 44.8104 10.7793C44.7767 10.8719 44.8862 10.9728 44.8862 11.0654C44.8104 11.1579 44.8862 11.3093 44.8441 11.4524C44.9536 11.6879 44.9199 11.9824 45.0294 12.218C45.0294 12.4115 45.1053 12.605 45.1811 12.748L45.1558 12.79Z" fill="#231815"/>
<path d="M25.8631 14.5652C25.8631 14.5652 26.0568 14.6914 26.1074 14.784C26.1579 14.8765 26.259 14.9943 26.3348 15.0195C26.4359 15.0616 26.537 15.1205 26.537 15.1205L26.6044 15.2551L26.7645 15.4065C26.933 15.457 26.9751 15.3561 27.1015 15.5411C27.1604 15.5411 27.2194 15.5411 27.2194 15.5916L27.2784 15.5411C27.3373 15.6421 27.4469 15.6926 27.5058 15.7431C27.6743 15.7431 27.826 15.8104 27.9439 15.9029C28.0029 15.9029 28.0113 16.0207 28.0113 15.9702C28.1882 16.0207 28.3062 16.1385 28.4241 16.0291C28.4831 16.0291 28.5421 16.0291 28.5421 16.0796L28.601 16.0291C28.719 15.9786 28.7442 16.1132 28.8538 16.0628C28.9127 16.0628 28.9127 16.1132 28.9127 16.1637H29.0222C29.1402 16.2647 29.6288 16.1301 29.7383 16.231C30.387 16.3151 31.4485 16.1637 31.4485 16.1637C31.4485 16.0627 31.617 16.1637 31.617 16.0712L31.6675 16.1216C31.8866 16.1805 32.114 15.9366 32.3331 16.0375C32.3724 16.0095 32.4117 15.9786 32.451 15.945C32.5605 15.9029 32.7206 16.1048 32.8386 15.9618C32.8386 16.0123 32.8891 16.0123 32.9481 16.0123C32.9481 15.9786 32.9481 15.945 32.9481 15.9113C33.1166 15.8188 33.3272 15.844 33.4535 15.7094C33.5125 15.7094 33.6136 15.7262 33.6726 15.7346C33.7119 15.7066 33.7512 15.6786 33.7905 15.6505C34.077 15.5832 34.3213 15.3561 34.6498 15.2887C34.7004 15.2383 34.8099 15.2214 34.8604 15.1205C34.911 15.1205 34.97 15.1121 35.0289 15.1037C35.0795 15.0532 35.13 14.9943 35.1806 14.9438C35.3491 14.9775 35.5007 14.7419 35.6608 14.7251C35.6608 14.683 35.6439 14.6241 35.6945 14.6241L35.7534 14.6662C35.8208 14.6213 35.8658 14.5652 35.8882 14.4979C36.0567 14.5232 36.1494 14.3128 36.2421 14.1951C36.2758 14.1951 36.3123 14.1894 36.3516 14.1782C36.3909 14.167 36.4218 14.1306 36.4442 14.0689C36.4667 14.0072 36.5032 14.0016 36.5538 14.052C36.697 13.9342 36.7812 13.766 36.9918 13.6903C36.9918 13.6398 36.975 13.5977 37.0255 13.5809C37.1435 13.6146 37.1182 13.4715 37.1603 13.4126C37.2109 13.379 37.3541 13.278 37.3878 13.3201C37.3878 13.4042 37.531 13.1098 37.5226 13.1939C37.5647 13.2444 37.75 12.748 37.7922 12.7144L37.3372 11.5197C37.1688 11.7553 36.5706 12.5377 36.2505 12.6134C36.2505 12.8658 35.9725 12.8742 35.7871 13.0172C35.7956 13.0593 35.8124 13.1098 35.7534 13.1266C35.5934 13.1602 35.526 13.3453 35.4165 13.3622C35.408 13.3117 35.3491 13.3285 35.2985 13.3369C35.2564 13.3958 35.1469 13.4211 35.1216 13.5304C34.9615 13.5641 34.911 13.7239 34.8183 13.8333L34.7593 13.7996C34.5656 13.9763 34.2876 13.9595 34.1528 14.1782C33.8411 14.3212 33.5799 14.3717 33.2514 14.4979C33.2008 14.4979 33.1418 14.4979 33.1418 14.4559C33.0913 14.5568 32.8722 14.4727 32.8217 14.5736C32.4931 14.5989 32.2151 14.5652 31.8866 14.6325C31.8866 14.54 31.7181 14.6409 31.7181 14.5484C31.4485 14.6662 31.1705 14.5147 30.9009 14.5147C30.8419 14.4643 30.7324 14.4643 30.6819 14.3717C30.4039 14.4222 30.2438 14.3717 30.0753 14.2287C29.9068 14.2287 29.7973 14.0773 29.6372 14.0352V13.9427C29.6035 13.909 29.567 13.8754 29.5277 13.8417C29.5277 13.6987 29.6962 13.6987 29.8057 13.6482C29.9152 13.5052 30.2101 13.5388 30.3196 13.3874C30.3196 13.3369 30.4713 13.2444 30.4713 13.1939C30.5218 13.0929 30.5639 13.0004 30.6145 13.0004C30.783 12.8994 30.6735 12.7901 30.8925 12.7396C30.8925 12.6891 31.0694 12.5713 31.0104 12.5209C31.2295 12.3778 31.2295 12.2937 31.28 11.9992C31.3895 11.8562 31.5496 11.6964 31.5496 11.5029C31.6001 11.4524 31.5328 11.2421 31.6507 11.1916C31.7012 10.8551 31.5665 10.67 31.5665 10.325C31.5271 10.2914 31.4906 10.2577 31.4569 10.2241C31.4569 10.0727 31.3474 9.98011 31.4064 9.83709C31.2463 9.68566 31.28 9.64359 31.12 9.50057L31.0273 9.39961H30.9178C30.8588 9.29866 30.6987 9.25659 30.6987 9.15563C30.4797 9.10515 30.2607 8.96213 30.0416 8.86118L29.9826 8.91165L29.9237 8.86118C29.89 8.89483 29.8535 8.92848 29.8142 8.96213C29.8142 8.8107 29.6541 8.96213 29.5951 8.86118C29.4856 8.86118 29.3761 8.8107 29.2666 8.91165C28.938 8.8107 28.5757 8.98737 28.2472 8.83594C28.2472 8.93689 28.0282 8.78546 28.0282 8.93689C27.9186 8.98737 27.7586 8.97896 27.708 9.02944H27.5395C27.371 9.17246 27.2363 9.34913 26.9077 9.34913C26.7982 9.34913 26.9077 9.49216 26.7982 9.49216H26.6887C26.4106 9.73613 26.1916 10.0306 25.8631 10.2241C25.8631 10.2746 25.7535 10.325 25.8041 10.4176C25.8041 10.4681 25.7451 10.4681 25.6946 10.4681C25.6946 10.5606 25.644 10.6111 25.585 10.6616C25.585 10.712 25.585 10.7625 25.644 10.7625C25.644 10.813 25.5598 10.9392 25.5092 10.9392C25.4587 11.1327 25.4587 11.3346 25.2902 11.4272C25.2902 11.8142 25.1722 12.0077 25.147 12.4367C25.1891 12.6639 25.2059 13.0088 25.2059 13.2107C25.3744 13.3117 25.1638 13.3117 25.2818 13.4631C25.3407 13.4631 25.307 13.5472 25.307 13.6061C25.366 13.7071 25.5513 13.7828 25.484 13.8838C25.484 13.9342 25.5766 13.9847 25.6356 13.9847C25.6946 14.0857 25.5513 14.1951 25.6693 14.2455C25.6693 14.296 25.8546 14.2539 25.7957 14.3549L25.8968 14.5736L25.8631 14.5652ZM29.4519 11.3851C29.3424 11.4356 29.4519 11.5365 29.3424 11.5954L29.4013 11.6459C29.3592 12.0665 29.0981 12.6302 28.5084 13.0425C28.4578 13.0425 28.3988 13.0425 28.3988 12.992C28.3988 12.891 28.2893 12.7312 28.3483 12.6302C28.3483 12.5797 28.2893 12.5797 28.2388 12.5797C28.3483 12.4788 28.1629 12.3694 28.2219 12.218C28.1629 12.218 28.1629 12.1675 28.1629 12.117C28.3314 12.0161 28.1966 11.7469 28.3651 11.6459L28.3062 11.5954C28.3651 11.4945 28.4494 11.3346 28.5589 11.2252V11.1243C28.7864 10.9224 29.0728 10.8298 29.3508 10.7289C29.4098 10.7289 29.4603 10.7289 29.4603 10.7794C29.6288 10.9897 29.5193 11.1916 29.4603 11.4019L29.4519 11.3851Z" fill="#231815"/>
<path d="M39.0132 10.9224C39.0132 10.9897 39.0301 11.057 39.0301 11.1243C39.4092 11.486 39.3334 12.1086 39.5861 12.5545C39.4681 12.7059 39.5524 12.8994 39.5018 13.0425C39.5524 13.0817 39.6029 13.121 39.6535 13.1602C39.5524 13.5136 39.7883 13.8249 39.7546 14.1698C39.7153 14.2203 39.6759 14.2708 39.6366 14.3212C39.6366 14.3885 39.6535 14.4559 39.7209 14.4474L39.6619 14.5232L39.7377 14.582L39.6788 14.6578C39.7462 14.6494 39.7546 14.7167 39.763 14.784C39.6451 14.9354 39.8641 15.1121 39.6788 15.2719C39.7546 15.3308 39.7546 15.3981 39.763 15.4654C39.5777 15.6253 39.6872 15.9113 39.5608 16.1216L39.6282 16.1889L39.5608 16.2647L39.4934 16.1974C39.426 16.1974 39.426 16.2731 39.4344 16.332C39.5018 16.4666 39.6451 16.5928 39.5103 16.7358L39.5777 16.7947C39.3755 16.9377 39.3165 17.1144 39.2575 17.3079C39.2182 17.3527 39.1761 17.3976 39.1312 17.4425C39.1986 17.5014 39.1986 17.5687 39.1986 17.636C39.0806 17.7706 39.0132 17.9052 38.8953 18.0398C38.8953 18.1071 38.9627 18.2333 38.8363 18.3006L38.9037 18.3595C38.8447 18.4941 38.7858 18.6876 38.7268 18.8222C38.7858 18.8222 38.7942 18.8811 38.7942 18.9484C38.6088 19.0914 38.3982 19.2345 38.4656 19.4953C38.3477 19.6972 38.1876 19.7645 38.0697 19.9664C38.1371 20.0926 37.8506 20.1515 37.8506 20.2777C37.8506 20.4039 37.6653 20.3534 37.7327 20.4796L37.8001 20.5385C37.7608 20.5385 37.7187 20.5385 37.6737 20.5385C37.6288 20.6282 37.567 20.6955 37.4884 20.7404C37.4884 20.8077 37.4884 20.875 37.4294 20.875C37.3199 20.9591 37.2609 21.0601 37.143 21.1947C37.2104 21.2536 36.9408 21.3882 36.9998 21.3966C36.9324 21.4555 36.865 21.5228 36.8481 21.649C36.7891 21.649 36.7218 21.649 36.7133 21.7079V21.792C36.6712 21.8341 36.6628 21.8341 36.5701 21.8593C36.0815 22.423 35.3654 22.6418 34.8684 23.197C34.7336 23.2559 34.6072 23.3148 34.4724 23.3737C34.3376 23.4326 34.3882 23.6261 34.2702 23.5504C34.2702 23.4831 34.1017 23.6093 34.0428 23.6008C33.8995 23.727 33.6974 23.6345 33.571 23.6261C33.571 23.5588 33.5036 23.5756 33.4446 23.5083L33.3772 23.5672C33.3183 23.4999 33.1835 23.3653 33.1161 23.3653C33.0571 23.298 33.1835 23.2307 33.1161 23.2307L33.1835 23.1718C33.1835 23.1045 33.0824 23.0961 33.0234 23.0876C32.9139 22.953 33.1498 23.054 33.0992 22.9194L32.8549 22.9026C32.7959 22.7764 32.678 22.768 32.6274 22.6418C32.6359 22.5156 32.9139 22.5156 32.9223 22.3894C33.0487 22.3894 33.0065 22.3809 33.1413 22.3136L33.0908 22.2211C33.2256 22.1622 33.2003 22.0528 33.2677 22.0528C33.2677 22.1201 33.3183 22.0444 33.3772 22.0528C33.4446 22.0528 33.5036 22.0528 33.512 21.9939C33.512 21.9266 33.5204 21.8678 33.5878 21.8004C33.6271 21.8004 33.6693 21.8004 33.7142 21.8004C33.9838 21.5565 33.8153 21.7163 34.0933 21.405C34.0933 21.3602 34.0961 21.3181 34.1017 21.2788C34.1691 21.2199 34.1776 21.0938 34.3123 21.0349C34.3123 21.1022 34.2955 21.1611 34.3629 21.1695C34.5651 21.0517 34.4387 20.976 34.3882 20.8498C34.4331 20.8049 34.478 20.7656 34.523 20.732C34.523 20.7993 34.6241 20.7488 34.5651 20.7404C34.5651 20.8077 34.6325 20.589 34.6914 20.5974C34.8431 20.3618 34.7336 20.6394 34.961 20.202C35.0116 20.1515 35.1295 20.1094 35.1379 20.0758C35.1211 20.0758 35.2812 20.0085 35.2306 19.9412C35.2222 19.8907 35.2475 19.8654 35.1127 19.9243C35.1885 19.7981 35.4075 19.6046 35.416 19.4784C35.6013 19.5542 35.4497 19.2597 35.576 19.2681C35.5086 19.327 35.4412 19.2008 35.4497 19.2681H35.6603C35.7951 19.1419 35.4665 19.1419 35.5929 19.0073C35.5929 18.94 35.576 18.9064 35.5086 18.9148C35.5086 18.8475 35.4918 18.797 35.5507 18.797L35.6181 18.8559C35.6771 18.7886 35.5592 18.5698 35.6855 18.5025C35.6855 18.4352 35.6855 18.3763 35.6855 18.309C35.8709 18.1744 35.7866 18.1912 35.8456 17.9977L35.7782 17.9389C35.7782 18.0062 35.913 17.88 35.854 17.88C35.854 17.8351 35.854 17.7902 35.854 17.7454C35.9804 17.6781 36.0646 17.2406 36.0646 17.1144C36.0646 17.249 35.9214 16.8199 36.0478 16.8788C36.2331 16.6096 36.1068 16.2478 36.132 15.9197C35.9972 15.8692 36.2331 15.7767 36.1573 15.6589C36.0983 15.6589 36.0309 15.6757 36.0225 15.6084C36.0618 15.558 36.0983 15.5103 36.132 15.4654C36.132 15.4065 36.1236 15.3392 36.0562 15.3476C36.0562 15.2803 36.0478 15.213 36.1068 15.213C36.0983 15.1457 36.0899 15.0868 36.0309 15.0952C36.0703 15.0448 36.1068 14.9971 36.1405 14.9522C36.1405 14.8849 36.0731 14.8933 36.0057 14.9102C36.0394 14.6409 35.7782 14.4474 35.8709 14.1782C35.8119 14.1782 35.8035 14.1193 35.7951 14.052C35.9635 13.8333 35.7361 13.5725 35.8372 13.3622C35.7108 13.3117 35.7529 13.1771 35.7445 13.0425C35.8035 12.9752 35.6434 12.9079 35.635 12.8405C35.4749 12.5293 35.5255 12.2853 35.4244 11.9656C35.298 12.075 35.2138 11.0654 35.1042 10.67C34.9442 10.4176 35.0537 10.1315 34.9526 9.87074C35.02 9.87074 35.0874 9.85391 35.079 9.78661C34.9947 9.59311 35.1885 9.50056 35.2306 9.29024C35.3654 9.27341 35.4918 9.18928 35.6434 9.30706C35.7698 9.22293 35.694 9.09674 35.6855 9.02943C35.9551 8.99578 36.1573 8.97054 36.4269 8.93689C36.4269 9.00419 36.4353 9.0715 36.5111 9.06309C36.7133 9.03785 36.7976 9.16404 36.9913 9.1388C36.9913 9.20611 37.0082 9.27341 37.0756 9.265C37.2104 9.24817 37.2862 9.30706 37.3536 9.36595C37.421 9.36595 37.4884 9.34913 37.48 9.28182L37.5558 9.34072L37.6148 9.265C37.6906 9.32389 37.758 9.31548 37.8254 9.30706C37.9012 9.36595 37.918 9.56787 38.0528 9.48374C38.373 9.98852 38.7605 10.4176 39.0132 10.9308V10.9224Z" fill="#231815"/>
<path d="M9.36585 12.1253C9.34058 12.016 9.18894 11.9823 9.12154 11.9823C9.05415 11.9823 8.9362 12.1169 8.86881 12.0076C8.86881 12.0076 8.75929 12.1842 8.63292 12.2684C8.54868 12.3273 8.41388 12.3188 8.41388 12.3188C8.38019 12.4871 8.36334 12.5039 8.50655 12.8909C8.57395 12.8993 8.64135 13.2695 8.70874 13.2863C8.67504 13.1433 8.90251 13.5892 8.9699 13.6565C8.99798 13.6621 9.02887 13.6705 9.06257 13.6818C9.10469 13.6902 9.08784 13.7322 9.06257 13.7743L9.26476 13.9173C9.28161 13.9678 9.33216 13.9846 9.28161 14.0688C9.43325 14.0772 9.53434 14.1697 9.66071 14.2286C9.70283 14.2454 9.67756 14.2875 9.66071 14.3212C9.70283 14.338 9.74496 14.3548 9.77023 14.3212C9.87975 14.3212 9.80393 14.4305 9.82078 14.4894L9.88817 14.4726C9.90502 14.5315 9.98927 14.5651 9.98927 14.5651C10.1241 14.767 10.7812 15.0194 10.9412 15.2045L11.0086 15.1709C11.0592 15.2802 11.3456 15.2971 11.3456 15.4317L11.4046 15.398C11.4383 15.4485 11.8679 15.5326 11.9859 15.5915C12.0448 15.5579 11.9606 15.4906 12.028 15.4569C12.0954 15.5158 12.247 15.6504 12.3144 15.7177C12.3144 15.7177 12.4998 15.7345 12.6346 15.7598C12.8031 15.9365 13.1485 15.8271 13.3506 15.9196C13.3759 15.9701 13.418 15.9869 13.4602 15.9953L13.5276 15.9617L13.5528 16.0122C13.6792 15.9449 13.7466 16.0122 13.8393 15.9365L13.8645 15.9869L13.9319 15.9533C13.9488 15.9869 13.9656 16.0234 13.9825 16.0627C14.1594 16.1047 14.3195 16.1888 14.5132 16.0879C14.5385 16.1384 14.5806 16.1468 14.6312 16.1636C14.6761 16.1412 14.7182 16.1187 14.7575 16.0963C14.8923 16.1215 14.9176 16.1804 15.0692 16.1636L15.0945 16.2141C15.2883 16.1131 15.4231 16.1468 15.6 16.1889C15.6421 16.1047 15.7348 16.2225 15.7769 16.1384L15.8022 16.1889C15.9538 16.0795 16.1813 16.1384 16.3329 16.13L16.3582 16.1804C16.4256 16.1468 16.4003 16.1804 16.4003 16.1804C16.5267 16.1215 16.8468 16.1131 16.9311 16.0458C17.108 16.0879 17.0996 16.1215 17.3439 16.0963C17.3944 16.1047 17.4955 16.13 17.5376 16.1468C17.7398 16.0122 17.9083 16.0206 18.0768 16.1131C18.2706 16.0795 18.5907 15.9196 18.7592 15.8355C18.8097 15.8523 18.8603 15.8607 18.9108 15.8776C18.9866 15.8523 19.0372 15.8692 19.0877 15.785C19.3068 15.7093 19.4668 15.6336 19.669 15.499C19.6943 15.5579 19.8122 15.4485 19.8375 15.499C19.8375 15.499 19.8544 15.4709 19.8881 15.4148C19.9892 15.4485 20.0566 15.3223 20.1577 15.356C20.1577 15.356 20.1745 15.3307 20.2082 15.2802C20.3598 15.2298 20.3009 15.1877 20.4441 15.1372C20.5705 15.0531 20.7474 14.7586 21.0422 14.624C21.0422 14.5315 21.2276 14.481 21.2697 14.3969C21.2865 14.3548 21.3455 14.3632 21.3876 14.3716L21.3624 14.3212C21.4298 14.2875 21.4129 14.1529 21.4803 14.2118C21.4971 14.1697 21.5814 14.0603 21.5393 14.0519C21.6825 13.9426 21.6825 13.5808 21.8847 13.5387C21.8959 13.5107 21.9071 13.4827 21.9184 13.4546C22.0026 13.3452 21.9689 13.1349 22.0195 13.1097C22.0363 13.0676 22.0195 13.0424 22.0532 13.0508C22.1037 12.8825 22.1458 12.6301 22.1964 12.4114C22.1543 12.403 22.1711 12.3609 22.1964 12.3188C22.2385 12.3273 22.2554 12.2852 22.2722 12.2431C22.2301 12.2347 22.2469 12.1926 22.2722 12.1506L22.3312 12.1169C22.2469 12.1001 22.3396 11.9823 22.2554 11.9655L22.3143 11.9318C22.2385 11.7299 22.348 11.5196 22.2722 11.3177L22.3312 11.284C22.2301 11.1663 22.2469 11.0485 22.3312 10.9307C22.2975 10.8802 22.3143 10.8381 22.3312 10.7877C22.2132 10.7204 22.3564 10.6446 22.2806 10.5773C22.3228 10.4511 22.1795 10.325 22.2638 10.2072C22.2048 10.0978 22.1964 10.0557 22.1374 9.95478C22.1458 9.91271 22.1627 9.86224 22.1711 9.82017C22.129 9.81176 22.0869 9.80334 22.0953 9.76128C22.1627 9.68556 22.0953 9.61826 22.1121 9.53413C22.0279 9.5173 22.07 9.44158 22.0447 9.3911C22.0195 9.15554 21.9521 8.97886 21.8173 8.77695C21.8763 8.69282 21.7583 8.34789 21.7583 8.23852L21.6741 8.19645C21.6404 8.08708 21.5982 8.02819 21.514 7.9693C21.514 7.93565 21.514 7.89919 21.514 7.85993C21.4719 7.85993 21.4298 7.85993 21.4298 7.80104C21.4298 7.76738 21.4298 7.73093 21.4298 7.69167L21.3792 7.74215C21.295 7.68325 21.2613 7.57388 21.2697 7.46451C21.1096 7.23736 21.0507 7.07751 20.8232 6.75782C20.7305 6.8083 20.8232 6.58956 20.7137 6.64004C20.5957 6.3624 20.5115 6.2951 20.3346 6.12684C20.3346 6.09319 20.3374 6.05673 20.343 6.01747C20.3486 5.97821 20.3149 5.97821 20.2419 6.01747C20.1913 6.01747 20.1998 5.95858 20.1998 5.9081C19.9133 5.73143 18.9108 5.59682 18.7592 5.31919C18.6749 5.31919 18.5823 5.26029 18.5317 5.36966C18.5036 5.3304 18.4784 5.29395 18.4559 5.26029C18.22 5.42014 18.0263 5.1341 17.8072 5.07521L17.7567 5.12569C17.6808 4.95742 17.5376 5.12569 17.445 5.12569C17.4113 5.06679 17.3607 5.06679 17.3186 5.06679C17.0911 5.16775 16.8721 5.04997 16.6783 5.31919L16.6362 5.26029L17.1417 6.19414C17.1333 6.24462 17.268 6.82512 17.4028 7.11958C17.445 7.11958 17.5039 7.23736 17.5376 7.29625C17.532 7.32991 17.5236 7.36356 17.5124 7.39721C17.5798 7.51499 17.6471 7.64119 17.7145 7.75897C17.6724 7.75056 17.6556 7.80104 17.6471 7.85152C17.6977 8.01978 17.6977 8.20486 17.7482 8.37312C17.8156 8.43202 17.7398 8.47408 17.8156 8.5498C17.8156 8.5498 17.7651 8.65917 17.7819 8.65917C17.7482 8.7433 17.8072 8.84426 17.8072 8.84426C17.8325 9.02934 17.8241 8.88632 17.9504 9.01252C17.8325 9.15554 18.0347 9.3911 17.9083 9.53413C17.9757 9.60143 17.9757 9.50889 17.9926 9.55936C17.9926 9.55936 17.9785 9.5846 17.9504 9.63508C17.9504 9.63508 17.9673 9.68556 18.0094 9.70239C18.0515 9.80334 17.9757 9.87065 18.0347 9.9716C18.0768 9.98002 18.0347 10.1146 18.0768 10.123C18.0936 10.2156 18.2116 10.2492 18.0936 10.3081C18.0515 10.2997 18.0768 10.4848 18.0347 10.611C18.0599 10.6615 18.0347 10.8802 18.0178 10.9223C18.0599 10.9307 18.0936 10.8802 18.0768 10.9223C18.0656 10.9503 18.0543 10.9784 18.0431 11.0064C18.0852 11.0148 18.0852 11.0905 18.0684 11.1326C18.0684 11.2672 17.9841 11.3345 17.9336 11.4607C17.883 11.7299 18.0263 11.9571 17.8409 12.0496C17.9083 12.1085 17.8241 12.1842 17.8072 12.2263C17.7482 12.2515 17.7651 12.3861 17.7061 12.4198C17.6387 12.5881 17.605 12.5796 17.5376 12.7395C17.4281 12.8068 17.4028 12.8741 17.2933 12.9414C17.2933 12.9414 17.2821 12.9695 17.2596 13.0255C17.2596 13.0255 17.2006 13.0592 17.167 13.0508C17.0911 13.1265 16.8384 13.2443 16.8047 13.32L16.83 13.3705C16.6783 13.4294 16.6362 13.4462 16.4677 13.5472C16.2992 13.6481 16.1729 13.6481 16.0044 13.7322C15.8527 13.6902 15.7264 13.7995 15.5747 13.7575C15.5157 13.7911 15.4568 13.8164 15.3978 13.85C15.322 13.8332 15.204 13.8921 15.1535 13.8248C15.0777 13.808 15.0945 13.9426 15.0187 13.9257C15.0187 13.9257 14.9934 13.9173 14.9429 13.9005L14.926 13.85C14.8081 13.9089 14.7154 13.8416 14.5975 13.8921L14.5806 13.8416C14.4627 13.9005 14.37 13.8416 14.2942 13.9089C14.1931 13.8416 13.9825 13.8416 13.814 13.85C13.8308 13.808 13.7887 13.7995 13.755 13.7911L13.6961 13.8248C13.7129 13.7827 13.3675 13.808 13.3338 13.7995L13.258 13.7827L13.2327 13.7322L13.1822 13.7659C13.1232 13.707 12.7104 13.6733 12.6093 13.564C12.5335 13.6397 12.4576 13.606 12.365 13.5892C11.9943 13.564 11.5478 13.4041 11.5057 13.3957L11.4804 13.3452C11.354 13.4125 11.1434 13.3452 11.0845 13.2359C11.0423 13.2275 10.9749 13.219 10.9328 13.2022C10.8823 13.0928 10.5958 13.1181 10.5621 13.0087C10.5621 13.0087 10.4189 12.9078 10.3515 12.832C10.2589 12.8909 10.0145 12.6049 9.97242 12.5881H9.81235L9.75338 12.4114L9.54277 12.2515C9.45852 12.0917 9.36585 12.2179 9.34058 12.0833L9.36585 12.1253Z" fill="#231815"/>
<path d="M12.7365 5.8997C12.7955 5.8997 12.8544 5.8997 12.9134 5.90812C13.1998 6.19416 13.7559 6.11003 14.1265 6.30353C14.2782 6.19416 14.4382 6.26147 14.573 6.21099C14.6011 6.25025 14.632 6.28951 14.6657 6.32877C14.9943 6.23623 15.1627 6.39607 15.4745 6.37084C15.525 6.33718 15.5755 6.30353 15.6261 6.26988C15.6851 6.26988 15.744 6.2867 15.7272 6.33718L15.803 6.2867L15.8451 6.3456L15.921 6.29512C15.9041 6.3456 15.9631 6.35401 16.022 6.36242C16.1737 6.26988 16.2664 6.39607 16.4349 6.25305C16.477 6.31194 16.5275 6.32877 16.5865 6.33718C16.755 6.19416 16.8224 6.33718 17.033 6.27829L17.0667 6.3456L17.1425 6.30353L17.1088 6.23623C17.1257 6.18575 17.1846 6.19416 17.2436 6.21099C17.3363 6.2867 17.4037 6.40449 17.5637 6.33718L17.5974 6.40449C17.6985 6.33718 16.9235 6.30353 18.1282 6.26147L18.2798 6.19416C18.3135 6.26147 18.3641 6.26988 18.4146 6.2867C18.5663 6.2194 18.6926 6.19416 18.8527 6.12686C18.9032 6.14368 18.9875 6.2194 19.0886 6.13527L19.1223 6.19416C19.2571 6.17734 19.434 6.16892 19.5688 6.1521C19.5519 6.20257 19.4845 6.08479 19.5351 6.11003C19.7204 6.01749 19.9226 5.90812 20.0911 6.04273C20.2933 6.01749 20.3859 5.91653 20.5966 5.8997C20.664 6.00066 20.8324 5.80716 20.9251 5.85764C21.0262 5.90812 21.0262 5.77351 21.0936 5.86605L21.1105 5.93336C21.1105 5.93336 21.1442 5.89129 21.1694 5.84923C21.2537 5.85483 21.3323 5.83801 21.4053 5.79875C21.4559 5.82399 21.498 5.85764 21.5317 5.80716C21.6412 5.7651 21.7423 5.7651 21.9024 5.73144C21.9192 5.80716 22.0287 5.69779 22.0035 5.73986C22.0793 5.72303 22.1551 5.7062 22.2562 5.7651C22.2815 5.72303 22.3152 5.68096 22.3657 5.7062L22.4247 5.74827C22.4752 5.74827 22.4836 5.73144 22.5426 5.68096C23.1829 5.62207 23.5451 5.31079 24.177 5.31079C24.2865 5.26031 24.4044 5.20983 24.514 5.15936C24.6235 5.10888 24.7246 5.24349 24.7498 5.13412C24.7077 5.10046 24.8846 5.0584 24.9183 5.01633C25.0784 4.99951 25.1711 4.73029 25.2385 4.63775C25.1879 4.60409 25.2385 4.57044 25.23 4.49472L25.3059 4.4779C25.289 4.40218 25.2806 4.09931 25.3059 4.05725C25.289 3.98153 25.1795 4.03201 25.2132 3.98994L25.1879 3.93946C25.1458 3.90581 25.2048 3.83009 25.23 3.78803C25.1963 3.63659 25.0616 3.80485 25.0026 3.7039L25.1205 3.52722C25.07 3.42627 24.8257 3.35896 24.7414 3.30007C24.674 3.3842 24.6824 3.35055 24.5729 3.40944L24.5392 3.32531C24.4297 3.3842 24.3623 3.30848 24.337 3.35896C24.3792 3.3842 24.3033 3.3842 24.2781 3.42627C24.2444 3.46833 24.2107 3.5104 24.1686 3.48516C24.1264 3.45151 24.0759 3.42627 24.0001 3.43468C23.9776 3.46272 23.9579 3.49077 23.9411 3.51881C23.6294 3.56929 22.9301 3.58611 22.8628 3.49357C22.8122 3.50479 22.7617 3.51601 22.7111 3.52722C22.7617 3.55246 22.669 3.61135 22.7027 3.56088C22.7532 3.58611 22.5595 3.53564 22.5342 3.58611C22.2899 3.58611 21.7423 3.63659 21.8518 3.5777C21.7254 3.5777 21.4811 3.63659 21.3885 3.58611C21.3548 3.74596 21.1778 3.49357 21.1273 3.58611C21.2031 3.56929 21.0262 3.55246 21.0768 3.58611V3.65342C20.9251 3.7039 20.9167 3.55246 20.765 3.61135C20.7145 3.58612 20.6892 3.56088 20.7145 3.51881C20.664 3.50198 20.6303 3.46833 20.605 3.51881L20.6303 3.58611C20.5544 3.61135 20.4196 3.45992 20.3185 3.52722C20.268 3.5104 20.2175 3.48516 20.1669 3.46833C19.99 3.56929 19.7962 3.56088 19.6109 3.5777L19.5772 3.51881C19.6277 3.52722 19.4845 3.61977 19.5098 3.56929C19.4761 3.55807 19.4396 3.54966 19.4003 3.54405C19.3076 3.63659 18.9201 3.62818 18.8106 3.60294C18.9201 3.62818 18.5915 3.41785 18.6084 3.52722C18.3304 3.63659 18.0187 3.47675 17.7238 3.46833C17.707 3.35896 17.5806 3.54405 17.4879 3.46833C17.5048 3.41785 17.5216 3.36738 17.4711 3.35896C17.3952 3.40103 17.3447 3.3842 17.2689 3.42627C17.2183 3.42627 17.1594 3.40944 17.1762 3.35896C17.1172 3.35896 17.0667 3.34214 17.0498 3.39261C16.9909 3.39261 16.9403 3.37579 16.9572 3.32531C16.8898 3.36738 16.814 3.42627 16.7381 3.46833C16.6792 3.46833 16.696 3.40944 16.7129 3.35896C16.4685 3.39261 16.3338 3.17388 16.081 3.25801C16.0979 3.20753 16.0389 3.20753 15.9799 3.19911C15.7693 3.34214 15.466 3.1907 15.2723 3.28325C15.2386 3.18229 15.1122 3.23277 15.0027 3.23277C14.9353 3.28325 14.8932 3.15705 14.8342 3.15705C14.573 3.04768 14.354 3.10657 14.0676 3.03927C14.1771 2.9299 13.2841 2.9299 12.9387 2.86259C12.7281 2.74481 12.4669 2.86259 12.2394 2.79529C12.2226 2.85418 12.2142 2.90466 12.1552 2.90466C11.9867 2.84577 11.894 3.01403 11.7003 3.06451C11.675 3.17388 11.5571 3.22435 11.5908 3.32531C11.5065 3.43468 11.4981 3.45151 11.4391 3.45151C11.3886 3.67025 11.3549 3.65342 11.2959 3.87216C11.3549 3.87216 11.4138 3.87216 11.397 3.93105C11.3549 4.0909 11.456 4.1582 11.4138 4.32646C11.4728 4.32646 11.5318 4.32646 11.5149 4.38535C11.4897 4.49472 11.5318 4.55362 11.5739 4.61251C11.5571 4.6714 11.5486 4.72188 11.4897 4.72188L11.5318 4.78077L11.456 4.83125C11.4981 4.89014 11.4897 4.94062 11.4728 4.99951C11.5149 5.0584 11.6919 5.06681 11.6076 5.17618C12.0204 5.42016 12.3658 5.71462 12.7955 5.8997H12.7365Z" fill="#231815"/>
</svg>
