<svg width="110" height="110" viewBox="0 0 110 110" fill="none" xmlns="http://www.w3.org/2000/svg">
<path d="M86.7426 23.3872C82.3582 25.5092 79.4382 31.6474 79.4382 31.6474C79.4382 31.6474 86.234 33.4011 90.5921 31.2703C94.9502 29.1395 98.3086 22.6331 98.3086 22.6331C98.3086 22.6331 91.1007 21.2652 86.7426 23.3872Z" fill="#79C651"/>
<path d="M26.3698 58.5763C27.257 60.1545 28.2349 61.6799 29.2986 63.1449H48.2479C47.2395 59.2515 44.4949 54.1832 39.5756 48.1327C29.36 35.5496 9.69165 32.0596 9.69165 32.0596C9.69165 32.0596 17.5835 40.1005 20.2142 46.0896C21.9153 50.018 24.0373 54.4024 26.3698 58.5763Z" fill="#79C651"/>
<path d="M88.0316 64.0481C87.7145 64.0569 87.4043 63.9546 87.1547 63.7587C86.8858 63.5376 86.7147 63.2195 86.6786 62.8732C86.6425 62.5269 86.7443 62.1803 86.9618 61.9085C87.9504 60.722 88.7517 59.3913 89.3381 57.9626C90.8983 54.2092 91.0785 50.0246 89.8467 46.151C89.3316 44.4594 88.4501 42.902 87.2649 41.5895C86.0798 40.277 84.6201 39.2418 82.9896 38.5573C80.8279 37.812 78.5261 37.5632 76.2551 37.8295C76.0288 37.8638 75.7974 37.8372 75.5847 37.7524C75.372 37.6677 75.1858 37.5278 75.0451 37.3472C73.6328 35.6077 71.8303 34.2258 69.7838 33.3136C66.0658 31.8229 61.7954 32.4367 58.0775 35.0147C57.7901 35.1993 57.4421 35.2649 57.1072 35.1975C56.7723 35.1302 56.4768 34.9352 56.2831 34.6538C56.0894 34.3724 56.0128 34.0267 56.0695 33.6898C56.1262 33.3529 56.3117 33.0513 56.5868 32.8488C61.0413 29.7798 66.2324 29.0519 70.7571 30.8671C72.9881 31.8539 74.9778 33.314 76.5883 35.1462C79.0755 34.9459 81.5769 35.2747 83.9278 36.1108C85.9146 36.9332 87.6953 38.1841 89.1429 39.7742C90.5904 41.3642 91.6691 43.2542 92.302 45.3092C93.735 49.7739 93.5393 54.6019 91.7495 58.9359C91.0619 60.6106 90.1247 62.1716 88.9699 63.5658C88.8552 63.7066 88.7127 63.8221 88.5512 63.9051C88.3897 63.9881 88.2128 64.0368 88.0316 64.0481Z" fill="#18193F" stroke="#18193F" stroke-width="1.5"/>
<path d="M77.5353 36.6808C77.2805 36.6804 77.031 36.6073 76.8162 36.4703C76.5244 36.2786 76.3202 35.9794 76.2479 35.6378C76.1757 35.2962 76.2412 34.9399 76.4304 34.6464C80.2185 28.8327 78.9733 20.8444 78.9646 20.7655C78.9364 20.5928 78.9424 20.4162 78.9825 20.2458C79.0225 20.0754 79.0957 19.9146 79.1979 19.7725C79.3001 19.6304 79.4293 19.5098 79.5781 19.4177C79.7268 19.3255 79.8923 19.2635 80.0651 19.2353C80.2378 19.2071 80.4144 19.2132 80.5847 19.2532C80.7551 19.2933 80.916 19.3665 81.058 19.4687C81.2001 19.5709 81.3207 19.7 81.4129 19.8488C81.505 19.9976 81.567 20.1631 81.5952 20.3358C81.6566 20.7041 83.007 29.4202 78.6752 36.1196C78.5475 36.3012 78.3761 36.4478 78.1769 36.5458C77.9777 36.6439 77.7571 36.6903 77.5353 36.6808Z" fill="#18193F" stroke="#18193F" stroke-width="1.5"/>
<path d="M25.2646 12.2597C26.2555 22.449 29.0089 31.2704 34.5595 37.9172L40.3557 42.1875C39.2596 37.3735 40.496 30.6741 42.4251 24.4483C35.6995 14.6448 29.6841 8.88375 25.2646 12.2597Z" fill="#FFCE26"/>
<path d="M43.7319 45.9146C41.2416 31.2445 46.7659 22.7651 53.4302 14.0928C53.4302 14.0928 49.9227 30.2624 51.2468 35.4097C54.9823 49.6238 56.3063 59.7079 52.2113 64.0221C50.5716 56.4985 48.318 51.1759 43.7319 45.9146Z" fill="#79C651"/>
<path d="M22.8359 32.7436C22.5154 32.7464 22.2049 32.6322 21.9627 32.4223C21.7205 32.2124 21.5633 31.9213 21.5206 31.6037C19.7668 20.9496 23.1341 11.2426 26.1593 10.1465C29.1845 9.05038 37.8656 14.259 43.3022 23.3873C43.4016 23.5355 43.4698 23.7023 43.5027 23.8776C43.5356 24.0529 43.5325 24.2331 43.4936 24.4072C43.4547 24.5813 43.3807 24.7456 43.2763 24.8903C43.1718 25.0349 43.0391 25.1567 42.8861 25.2484C42.7331 25.3401 42.563 25.3997 42.3862 25.4236C42.2094 25.4475 42.0296 25.4352 41.8577 25.3874C41.6859 25.3397 41.5255 25.2574 41.3864 25.1457C41.2473 25.034 41.1324 24.8952 41.0486 24.7377C35.9189 16.1268 28.4567 12.2598 27.0186 12.6193C25.7121 13.2769 22.4589 21.1513 24.0986 31.1827C24.1543 31.5269 24.071 31.8791 23.8671 32.1619C23.6632 32.4447 23.3554 32.635 23.0113 32.691L22.8359 32.7436Z" fill="#18193F" stroke="#18193F" stroke-width="1.5"/>
<path d="M50.8959 64.048C50.5471 64.048 50.2125 63.9095 49.9658 63.6628C49.7192 63.4161 49.5806 63.0816 49.5806 62.7327C49.5806 61.3034 48.8265 56.2789 45.3716 50.2285C39.0405 39.1535 18.7496 30.4724 8.17446 30.2883L9.05133 30.9547C13.6725 34.3745 18.9162 38.2503 23.1252 48.7553C24.892 53.3407 27.15 57.7213 29.8596 61.8208C29.9641 61.9627 30.039 62.1242 30.0799 62.2957C30.1207 62.4671 30.1267 62.645 30.0975 62.8188C30.0682 62.9926 30.0044 63.1588 29.9096 63.3074C29.8149 63.4561 29.6913 63.5842 29.5461 63.6841C29.4009 63.784 29.2371 63.8537 29.0645 63.8891C28.8918 63.9245 28.7138 63.9248 28.541 63.8901C28.3682 63.8553 28.2042 63.7862 28.0586 63.6868C27.9131 63.5874 27.789 63.4598 27.6937 63.3115C24.8731 59.0528 22.5211 54.5017 20.6787 49.7374C16.7503 39.9252 11.831 36.2773 7.48172 33.0767C6.22778 32.1473 5.03523 31.2616 3.89529 30.2708C3.71061 30.1111 3.574 29.9032 3.50077 29.6703C3.42753 29.4374 3.42055 29.1887 3.48062 28.9521C3.54068 28.7155 3.66544 28.5002 3.84089 28.3305C4.01634 28.1607 4.23556 28.0431 4.47403 27.9909C14.4266 25.825 39.9788 35.5408 47.6339 48.9307C51.2379 55.2442 52.1937 60.7247 52.1937 62.7415C52.1914 63.0858 52.0542 63.4155 51.8116 63.6598C51.5689 63.9041 51.2402 64.0435 50.8959 64.048Z" fill="#18193F" stroke="#18193F" stroke-width="1.5"/>
<path d="M54.5874 56.7262H54.5348C54.3624 56.7205 54.1929 56.6808 54.036 56.6093C53.879 56.5378 53.7378 56.4359 53.6204 56.3096C53.503 56.1832 53.4118 56.0349 53.352 55.8731C53.2922 55.7113 53.2651 55.5393 53.2721 55.367C53.4738 49.7638 52.1147 44.0465 51.1238 39.8726C50.6766 37.9873 50.2908 36.3651 50.1417 35.1374C49.37 28.7976 51.2202 20.2305 52.4391 15.5919C50.1875 17.0803 48.1666 18.8914 46.4413 20.9671C40.119 29.543 41.18 36.0406 41.18 36.102C41.2256 36.438 41.1396 36.7786 40.9401 37.0528C40.7406 37.3269 40.4429 37.5134 40.1092 37.5734C39.7755 37.6333 39.4315 37.5621 39.149 37.3745C38.8666 37.187 38.6674 36.8976 38.5932 36.5668C38.5318 36.2511 37.3217 28.8766 44.3017 19.415C47.2743 15.3726 53.7018 11.6021 53.9473 11.4442C54.1784 11.3109 54.4443 11.2504 54.7103 11.2707C54.9763 11.291 55.2299 11.3913 55.438 11.5582C55.6453 11.7235 55.7974 11.9479 55.8741 12.2016C55.9509 12.4553 55.9486 12.7264 55.8677 12.9788C55.8238 13.1103 51.685 26.395 52.7109 34.8218C52.8425 35.8916 53.2107 37.4524 53.6404 39.2588C54.6664 43.5818 56.0781 49.5007 55.8589 55.4634C55.8458 55.7956 55.7073 56.1106 55.4715 56.3448C55.2356 56.5791 54.9197 56.7153 54.5874 56.7262Z" fill="#18193F" stroke="#18193F" stroke-width="1.5"/>
<path d="M16.0401 26.4739C15.7978 26.4752 15.5599 26.4096 15.3525 26.2843C15.1452 26.1589 14.9765 25.9788 14.865 25.7636L8.6743 13.7329C8.56248 13.5166 8.51286 13.2736 8.531 13.0308C8.54914 12.788 8.63432 12.555 8.77703 12.3578C8.91974 12.1605 9.11439 12.0068 9.33932 11.9136C9.56424 11.8204 9.81062 11.7915 10.051 11.8301C10.3754 11.8827 18.0218 13.1366 23.2042 18.2313C23.343 18.3476 23.4564 18.4914 23.5371 18.6536C23.6178 18.8158 23.6642 18.9929 23.6732 19.1739C23.6823 19.3549 23.6538 19.5357 23.5897 19.7052C23.5256 19.8746 23.4271 20.029 23.3005 20.1586C23.174 20.2882 23.0219 20.3903 22.8541 20.4584C22.6862 20.5265 22.506 20.5592 22.3249 20.5545C22.1438 20.5497 21.9656 20.5076 21.8015 20.4307C21.6375 20.3538 21.4911 20.2439 21.3715 20.1078C18.7806 17.7579 15.68 16.041 12.3133 15.0921L17.1888 24.5623C17.2931 24.7621 17.3441 24.9854 17.3366 25.2107C17.3291 25.436 17.2635 25.6555 17.1461 25.8479C17.0288 26.0403 16.8636 26.199 16.6667 26.3087C16.4698 26.4184 16.2479 26.4753 16.0225 26.4739H16.0401Z" fill="#18193F" stroke="#18193F" stroke-width="1.5"/>
<path d="M28.3122 21.5125C28.0406 21.5131 27.7755 21.4289 27.5539 21.2717C27.3323 21.1146 27.1652 20.8922 27.0758 20.6357C26.9598 20.3076 26.9775 19.9471 27.1252 19.632C27.2729 19.317 27.5386 19.0727 27.865 18.9521L30.1887 18.0752C30.3517 18.0176 30.5244 17.9927 30.6969 18.0019C30.8695 18.011 31.0386 18.0541 31.1945 18.1286C31.3504 18.2031 31.4902 18.3076 31.6057 18.4361C31.7213 18.5646 31.8104 18.7146 31.868 18.8775C31.9255 19.0405 31.9505 19.2132 31.9413 19.3857C31.9321 19.5583 31.8891 19.7274 31.8146 19.8833C31.7401 20.0392 31.6356 20.179 31.5071 20.2945C31.3786 20.41 31.2286 20.4992 31.0656 20.5568L28.7419 21.3898C28.6081 21.4584 28.4621 21.5001 28.3122 21.5125Z" fill="#18193F"/>
<path d="M35.0555 25.6342C34.7463 25.6338 34.4471 25.5246 34.2105 25.3255C33.9738 25.1265 33.8148 24.8505 33.7614 24.5459C33.7081 24.2414 33.7637 23.9277 33.9186 23.6601C34.0734 23.3925 34.3176 23.188 34.6083 23.0825L36.9232 22.2056C37.0888 22.133 37.2675 22.0952 37.4483 22.0947C37.6291 22.0942 37.808 22.131 37.974 22.2028C38.1399 22.2746 38.2893 22.3798 38.4127 22.5119C38.5362 22.6439 38.6311 22.8 38.6915 22.9704C38.7519 23.1408 38.7766 23.3218 38.7639 23.5022C38.7512 23.6825 38.7015 23.8583 38.6179 24.0186C38.5342 24.1789 38.4184 24.3202 38.2777 24.4337C38.137 24.5472 37.9745 24.6305 37.8001 24.6784L35.4764 25.5553C35.3413 25.6041 35.1991 25.6307 35.0555 25.6342Z" fill="#18193F"/>
<path d="M29.1456 31.0619C28.8364 31.0616 28.5372 30.9523 28.3005 30.7533C28.0639 30.5543 27.9049 30.2782 27.8515 29.9737C27.7982 29.6691 27.8538 29.3555 28.0086 29.0879C28.1635 28.8202 28.4077 28.6157 28.6984 28.5102L31.0133 27.6333C31.1789 27.5607 31.3576 27.5229 31.5384 27.5225C31.7192 27.522 31.8981 27.5588 32.0641 27.6305C32.23 27.7023 32.3793 27.8075 32.5028 27.9396C32.6263 28.0717 32.7212 28.2278 32.7816 28.3982C32.842 28.5686 32.8667 28.7496 32.854 28.9299C32.8413 29.1103 32.7916 29.2861 32.708 29.4463C32.6243 29.6066 32.5085 29.7479 32.3678 29.8614C32.2271 29.975 32.0645 30.0583 31.8902 30.1061L29.5665 30.983C29.4313 31.0318 29.2892 31.0585 29.1456 31.0619Z" fill="#18193F"/>
<path d="M20.5122 70.1602H100.44V98.2202H17.1362V73.5361C17.1362 73.0928 17.2236 72.6538 17.3932 72.2442C17.5629 71.8346 17.8115 71.4624 18.125 71.149C18.4385 70.8355 18.8107 70.5868 19.2203 70.4171C19.6299 70.2475 20.0689 70.1602 20.5122 70.1602Z" fill="#95C9F8"/>
<path d="M105.262 99.9998H5.29823C4.94938 99.9998 4.61482 99.8612 4.36815 99.6145C4.12148 99.3679 3.98291 99.0333 3.98291 98.6845C3.98291 98.3356 4.12148 98.001 4.36815 97.7544C4.61482 97.5077 4.94938 97.3691 5.29823 97.3691H105.262C105.611 97.3691 105.946 97.5077 106.192 97.7544C106.439 98.001 106.578 98.3356 106.578 98.6845C106.578 99.0333 106.439 99.3679 106.192 99.6145C105.946 99.8612 105.611 99.9998 105.262 99.9998Z" fill="#18193F" stroke="#18193F" stroke-width="1.5"/>
<path d="M78.9559 82.4624H11.4364C11.0876 82.4624 10.753 82.3238 10.5063 82.0772C10.2597 81.8305 10.1211 81.4959 10.1211 81.1471C10.1211 80.7983 10.2597 80.4637 10.5063 80.217C10.753 79.9704 11.0876 79.8318 11.4364 79.8318H78.9559C79.3048 79.8318 79.6393 79.9704 79.886 80.217C80.1327 80.4637 80.2713 80.7983 80.2713 81.1471C80.2713 81.4959 80.1327 81.8305 79.886 82.0772C79.6393 82.3238 79.3048 82.4624 78.9559 82.4624Z" fill="#18193F" stroke="#18193F" stroke-width="1.5"/>
<path d="M100.001 82.4624H89.4786C89.1298 82.4624 88.7952 82.3238 88.5486 82.0772C88.3019 81.8305 88.1633 81.4959 88.1633 81.1471C88.1633 80.7983 88.3019 80.4637 88.5486 80.217C88.7952 79.9704 89.1298 79.8318 89.4786 79.8318H100.001C100.35 79.8318 100.685 79.9704 100.931 80.217C101.178 80.4637 101.316 80.7983 101.316 81.1471C101.316 81.4959 101.178 81.8305 100.931 82.0772C100.685 82.3238 100.35 82.4624 100.001 82.4624Z" fill="#18193F" stroke="#18193F" stroke-width="1.5"/>
<path d="M100.878 99.1228C100.529 99.1228 100.195 98.9842 99.948 98.7375C99.7013 98.4909 99.5627 98.1563 99.5627 97.8075V64.9246H11.875V97.8075C11.875 98.1563 11.7364 98.4909 11.4898 98.7375C11.2431 98.9842 10.9085 99.1228 10.5597 99.1228C10.2109 99.1228 9.87629 98.9842 9.62962 98.7375C9.38295 98.4909 9.24438 98.1563 9.24438 97.8075V63.6093C9.24438 63.2604 9.38295 62.9259 9.62962 62.6792C9.87629 62.4325 10.2109 62.2939 10.5597 62.2939H100.878C101.227 62.2939 101.561 62.4325 101.808 62.6792C102.055 62.9259 102.193 63.2604 102.193 63.6093V97.8075C102.193 98.1563 102.055 98.4909 101.808 98.7375C101.561 98.9842 101.227 99.1228 100.878 99.1228Z" fill="#18193F" stroke="#18193F" stroke-width="1.5"/>
<path d="M92.1092 74.5445C93.3199 74.5445 94.3014 73.5631 94.3014 72.3523C94.3014 71.1416 93.3199 70.1602 92.1092 70.1602C90.8985 70.1602 89.917 71.1416 89.917 72.3523C89.917 73.5631 90.8985 74.5445 92.1092 74.5445Z" fill="#252D32"/>
<path d="M92.1089 92.0817C93.3197 92.0817 94.3011 91.1002 94.3011 89.8895C94.3011 88.6787 93.3197 87.6973 92.1089 87.6973C90.8982 87.6973 89.9167 88.6787 89.9167 89.8895C89.9167 91.1002 90.8982 92.0817 92.1089 92.0817Z" fill="#252D32"/>
<path d="M19.3284 74.5445C20.5391 74.5445 21.5206 73.5631 21.5206 72.3523C21.5206 71.1416 20.5391 70.1602 19.3284 70.1602C18.1177 70.1602 17.1362 71.1416 17.1362 72.3523C17.1362 73.5631 18.1177 74.5445 19.3284 74.5445Z" fill="#252D32"/>
<path d="M19.3284 92.0817C20.5391 92.0817 21.5206 91.1002 21.5206 89.8895C21.5206 88.6787 20.5391 87.6973 19.3284 87.6973C18.1177 87.6973 17.1362 88.6787 17.1362 89.8895C17.1362 91.1002 18.1177 92.0817 19.3284 92.0817Z" fill="#252D32"/>
</svg>
