<svg width="767" height="731" viewBox="0 0 767 731" fill="none" xmlns="http://www.w3.org/2000/svg">
<path d="M764.587 367.464C756.11 439.271 723.314 522.747 657.84 561.111C558.905 619.072 567.183 708.216 374.068 746.963C345.907 752.771 317.198 755.502 288.447 755.107C274.382 754.865 260.346 753.721 246.427 751.683C123.689 733.698 41.0943 648.394 10.7922 545.403C-29.0841 409.967 50.5356 321.271 103.327 267.881C156.119 214.491 194.749 47.9876 384.24 8.39381C413.157 2.25892 442.684 -0.52975 472.238 0.0827723C539.69 1.74498 613.243 23.8856 664.14 70.1116C667.963 73.5911 671.68 77.187 675.293 80.8993C746.086 153.388 776.156 269.56 764.587 367.464Z" fill="#FFECAA"/>
<path d="M174.935 282.895H386.501C387.409 282.895 388.28 283.256 388.922 283.898C389.565 284.54 389.925 285.411 389.925 286.32V400.164C389.925 401.685 389.321 403.144 388.246 404.219C387.17 405.295 385.712 405.899 384.191 405.899H177.246C175.725 405.899 174.266 405.295 173.191 404.219C172.115 403.144 171.511 401.685 171.511 400.164V286.32C171.511 285.411 171.872 284.54 172.514 283.898C173.156 283.256 174.027 282.895 174.935 282.895Z" fill="#24242E" stroke="#24242E" stroke-linecap="round" stroke-linejoin="round"/>
<path d="M174.935 282.895H386.501C387.409 282.895 388.28 283.256 388.922 283.898C389.565 284.54 389.925 285.411 389.925 286.32V302.942H171.511V286.32C171.511 285.411 171.872 284.54 172.514 283.898C173.156 283.256 174.027 282.895 174.935 282.895Z" fill="#263238" stroke="#24242E" stroke-linecap="round" stroke-linejoin="round"/>
<path d="M345.212 297.672C347.663 297.672 349.65 295.685 349.65 293.234C349.65 290.783 347.663 288.796 345.212 288.796C342.76 288.796 340.773 290.783 340.773 293.234C340.773 295.685 342.76 297.672 345.212 297.672Z" fill="#263238" stroke="#24242E" stroke-linecap="round" stroke-linejoin="round"/>
<path d="M359.274 297.672C361.725 297.672 363.712 295.685 363.712 293.234C363.712 290.783 361.725 288.796 359.274 288.796C356.823 288.796 354.836 290.783 354.836 293.234C354.836 295.685 356.823 297.672 359.274 297.672Z" fill="#263238" stroke="#24242E" stroke-linecap="round" stroke-linejoin="round"/>
<path d="M373.353 297.672C375.804 297.672 377.791 295.685 377.791 293.234C377.791 290.783 375.804 288.796 373.353 288.796C370.902 288.796 368.915 290.783 368.915 293.234C368.915 295.685 370.902 297.672 373.353 297.672Z" fill="#263238" stroke="#24242E" stroke-linecap="round" stroke-linejoin="round"/>
<path d="M239.778 322.14H194.932V364.992H239.778V322.14Z" fill="#263238" stroke="#24242E" stroke-miterlimit="10"/>
<path d="M254.738 327.127H372.356" stroke="#24242E" stroke-miterlimit="10"/>
<path d="M254.738 341.073H372.356" stroke="#24242E" stroke-miterlimit="10"/>
<path d="M254.738 355.035H372.356" stroke="#24242E" stroke-miterlimit="10"/>
<path d="M254.738 368.981H372.356" stroke="#24242E" stroke-miterlimit="10"/>
<path d="M169.666 275H381.232C382.14 275 383.011 275.361 383.653 276.003C384.296 276.645 384.656 277.516 384.656 278.424V392.269C384.656 393.79 384.052 395.248 382.977 396.324C381.901 397.399 380.443 398.003 378.922 398.003H171.977C170.456 398.003 168.997 397.399 167.922 396.324C166.846 395.248 166.242 393.79 166.242 392.269V278.424C166.242 277.516 166.603 276.645 167.245 276.003C167.887 275.361 168.758 275 169.666 275Z" fill="white" stroke="#24242E" stroke-width="2" stroke-linecap="round" stroke-linejoin="round"/>
<path d="M169.666 275H381.232C382.14 275 383.011 275.361 383.653 276.003C384.296 276.645 384.656 277.516 384.656 278.424V295.046H166.242V278.424C166.242 277.516 166.603 276.645 167.245 276.003C167.887 275.361 168.758 275 169.666 275Z" fill="#95C9F8" stroke="#24242E" stroke-width="2" stroke-linecap="round" stroke-linejoin="round"/>
<path d="M339.942 289.777C342.394 289.777 344.381 287.79 344.381 285.339C344.381 282.888 342.394 280.901 339.942 280.901C337.491 280.901 335.504 282.888 335.504 285.339C335.504 287.79 337.491 289.777 339.942 289.777Z" fill="white" stroke="#24242E" stroke-width="1.5" stroke-linecap="round" stroke-linejoin="round"/>
<path d="M354.005 289.777C356.456 289.777 358.443 287.79 358.443 285.339C358.443 282.888 356.456 280.901 354.005 280.901C351.554 280.901 349.567 282.888 349.567 285.339C349.567 287.79 351.554 289.777 354.005 289.777Z" fill="white" stroke="#24242E" stroke-width="1.5" stroke-linecap="round" stroke-linejoin="round"/>
<path d="M368.084 289.777C370.535 289.777 372.522 287.79 372.522 285.339C372.522 282.888 370.535 280.901 368.084 280.901C365.633 280.901 363.646 282.888 363.646 285.339C363.646 287.79 365.633 289.777 368.084 289.777Z" fill="white" stroke="#24242E" stroke-width="1.5" stroke-linecap="round" stroke-linejoin="round"/>
<path d="M234.526 314.245H189.679V357.096H234.526V314.245Z" stroke="#24242E" stroke-width="2" stroke-miterlimit="10"/>
<path d="M249.469 319.231H367.087" stroke="#24242E" stroke-width="2" stroke-miterlimit="10"/>
<path d="M249.469 333.177H367.087" stroke="#24242E" stroke-width="2" stroke-miterlimit="10"/>
<path d="M249.469 347.123H367.087" stroke="#24242E" stroke-width="2" stroke-miterlimit="10"/>
<path d="M249.469 361.086H367.087" stroke="#24242E" stroke-width="2" stroke-miterlimit="10"/>
<path d="M576.657 297.895H425.263C421.252 297.895 418 301.148 418 305.159V436.49C418 440.502 421.252 443.754 425.263 443.754H576.657C580.669 443.754 583.921 440.502 583.921 436.49V305.159C583.921 301.148 580.669 297.895 576.657 297.895Z" fill="#24242E" stroke="#24242E" stroke-linecap="round" stroke-linejoin="round"/>
<path d="M571.388 290H419.994C415.983 290 412.73 293.252 412.73 297.264V428.595C412.73 432.607 415.983 435.859 419.994 435.859H571.388C575.4 435.859 578.652 432.607 578.652 428.595V297.264C578.652 293.252 575.4 290 571.388 290Z" fill="white" stroke="#24242E" stroke-width="2" stroke-linecap="round" stroke-linejoin="round"/>
<path d="M449.149 348.393H433.84V419.153H449.149V348.393Z" fill="#24242E" stroke="#24242E" stroke-width="2" stroke-linecap="round" stroke-linejoin="round"/>
<path d="M470.841 359.879H455.532V419.17H470.841V359.879Z" fill="#FFCE26" stroke="#24242E" stroke-width="2" stroke-linecap="round" stroke-linejoin="round"/>
<path d="M492.516 369.437H477.208V419.17H492.516V369.437Z" fill="white" stroke="#24242E" stroke-width="2" stroke-linecap="round" stroke-linejoin="round"/>
<path d="M514.192 340.115H498.883V419.17H514.192V340.115Z" fill="#032FB2" stroke="#032FB2" stroke-width="2" stroke-linecap="round" stroke-linejoin="round"/>
<path d="M535.867 349.673H520.558V419.17H535.867V349.673Z" fill="#95C9F8" stroke="#24242E" stroke-width="2" stroke-linecap="round" stroke-linejoin="round"/>
<path d="M557.542 316.512H542.233V419.153H557.542V316.512Z" fill="white" stroke="#24242E" stroke-width="2" stroke-linecap="round" stroke-linejoin="round"/>
<path d="M434.888 309.148H450.18" stroke="#263238" stroke-width="2" stroke-miterlimit="10"/>
<path d="M434.888 315.515H450.18" stroke="#263238" stroke-width="2" stroke-miterlimit="10"/>
<path d="M434.888 321.897H450.18" stroke="#263238" stroke-width="2" stroke-miterlimit="10"/>
<path d="M455.283 309.148H517.133" stroke="#263238" stroke-width="2" stroke-miterlimit="10"/>
<path d="M455.283 315.515H517.133" stroke="#263238" stroke-width="2" stroke-miterlimit="10"/>
<path d="M455.283 321.897H517.133" stroke="#263238" stroke-width="2" stroke-miterlimit="10"/>
<path d="M576.657 117.896H425.263C421.252 117.896 418 121.148 418 125.159V256.49C418 260.502 421.252 263.754 425.263 263.754H576.657C580.669 263.754 583.921 260.502 583.921 256.49V125.159C583.921 121.148 580.669 117.896 576.657 117.896Z" fill="#24242E" stroke="#24242E" stroke-linecap="round" stroke-linejoin="round"/>
<path d="M571.388 110H419.994C415.983 110 412.73 113.252 412.73 117.264V248.595C412.73 252.607 415.983 255.859 419.994 255.859H571.388C575.4 255.859 578.652 252.607 578.652 248.595V117.264C578.652 113.252 575.4 110 571.388 110Z" fill="white" stroke="#24242E" stroke-width="2" stroke-linecap="round" stroke-linejoin="round"/>
<path d="M491.619 226.455C517.323 226.455 538.161 205.617 538.161 179.913C538.161 154.209 517.323 133.371 491.619 133.371C465.915 133.371 445.077 154.209 445.077 179.913C445.077 205.617 465.915 226.455 491.619 226.455Z" fill="white" stroke="#24242E" stroke-width="2" stroke-linecap="round" stroke-linejoin="round"/>
<path d="M536.798 168.693C534.805 160.692 530.722 153.363 524.966 147.458C519.211 141.553 511.991 137.283 504.043 135.085C496.096 132.886 487.707 132.839 479.735 134.948C471.764 137.056 464.495 141.244 458.674 147.084L491.586 179.996L536.798 168.693Z" fill="#95C9F8" stroke="#24242E" stroke-width="2" stroke-linecap="round" stroke-linejoin="round"/>
<path d="M536.797 168.693L491.635 179.913L478.188 224.476C486.059 226.851 494.418 227.098 502.415 225.193C510.412 223.288 517.762 219.298 523.717 213.63C529.672 207.963 534.019 200.819 536.317 192.925C538.614 185.032 538.78 176.671 536.797 168.693Z" fill="#FFCE26" stroke="#263238" stroke-width="2" stroke-linecap="round" stroke-linejoin="round"/>
<path d="M510.12 150.591L525.412 130.828H534.986" stroke="#24242E" stroke-width="2" stroke-miterlimit="10"/>
<path d="M543.895 131.459H559.204" stroke="#24242E" stroke-width="2" stroke-miterlimit="10"/>
<path d="M543.895 137.842H559.204" stroke="#24242E" stroke-width="2" stroke-miterlimit="10"/>
<path d="M543.895 144.225H559.204" stroke="#24242E" stroke-width="2" stroke-miterlimit="10"/>
<path d="M543.895 214.354H559.204" stroke="#24242E" stroke-width="2" stroke-miterlimit="10"/>
<path d="M543.895 220.72H559.204" stroke="#24242E" stroke-width="2" stroke-miterlimit="10"/>
<path d="M543.895 227.103H559.204" stroke="#24242E" stroke-width="2" stroke-miterlimit="10"/>
<path d="M425.313 213.074H440.622" stroke="#24242E" stroke-width="2" stroke-miterlimit="10"/>
<path d="M425.313 219.44H440.622" stroke="#24242E" stroke-width="2" stroke-miterlimit="10"/>
<path d="M425.313 225.823H440.622" stroke="#24242E" stroke-width="2" stroke-miterlimit="10"/>
<path d="M465.489 211.162L459.754 225.823H444.445" stroke="#24242E" stroke-width="2" stroke-miterlimit="10"/>
<path d="M527.323 193.31H552.821V201.588" stroke="#24242E" stroke-width="2" stroke-miterlimit="10"/>
<path d="M377.592 95.3439H226.198C222.186 95.3439 218.934 98.596 218.934 102.608V233.939C218.934 237.95 222.186 241.203 226.198 241.203H377.592C381.604 241.203 384.856 237.95 384.856 233.939V102.608C384.856 98.596 381.604 95.3439 377.592 95.3439Z" fill="#24242E" stroke="#24242E" stroke-linecap="round" stroke-linejoin="round"/>
<path d="M370.561 86.9165H219.167C215.155 86.9165 211.903 90.1686 211.903 94.1803V225.511C211.903 229.523 215.155 232.775 219.167 232.775H370.561C374.572 232.775 377.824 229.523 377.824 225.511V94.1803C377.824 90.1686 374.572 86.9165 370.561 86.9165Z" fill="white" stroke="#24242E" stroke-width="2" stroke-linecap="round" stroke-linejoin="round"/>
<path d="M229.124 205.166V210.784" stroke="#263238" stroke-width="1.5" stroke-miterlimit="10"/>
<path d="M242.637 205.166V210.784" stroke="#263238" stroke-width="1.5" stroke-miterlimit="10"/>
<path d="M256.151 205.166V210.784" stroke="#263238" stroke-width="1.5" stroke-miterlimit="10"/>
<path d="M269.665 205.166V210.784" stroke="#263238" stroke-width="1.5" stroke-miterlimit="10"/>
<path d="M283.178 205.166V210.784" stroke="#263238" stroke-width="1.5" stroke-miterlimit="10"/>
<path d="M296.675 205.166V210.784" stroke="#263238" stroke-width="1.5" stroke-miterlimit="10"/>
<path d="M310.189 205.166V210.784" stroke="#263238" stroke-width="1.5" stroke-miterlimit="10"/>
<path d="M323.703 205.166V210.784" stroke="#263238" stroke-width="1.5" stroke-miterlimit="10"/>
<path d="M337.216 205.166V210.784" stroke="#263238" stroke-width="1.5" stroke-miterlimit="10"/>
<path d="M350.73 205.166V210.784" stroke="#263238" stroke-width="1.5" stroke-miterlimit="10"/>
<path d="M364.244 205.166V210.784" stroke="#263238" stroke-width="1.5" stroke-miterlimit="10"/>
<path d="M358.626 126.328L343.982 134.207L332.147 110.57L316.954 130.267L303.44 118.449L290.492 103.805L276.978 119.579L263.464 157.86L248.82 143.781L234.176 154.486V189.957H358.626V126.328Z" fill="#FFCE26" stroke="#263238" stroke-width="2" stroke-linecap="round" stroke-linejoin="round"/>
<path d="M234.526 103.489H249.818" stroke="#263238" stroke-width="2" stroke-miterlimit="10"/>
<path d="M234.526 109.872H249.818" stroke="#263238" stroke-width="2" stroke-miterlimit="10"/>
<path d="M234.526 116.238H249.818" stroke="#263238" stroke-width="2" stroke-miterlimit="10"/>
<path d="M358.626 157.511L343.982 162.929L332.147 136.633L316.954 155.05L303.44 150.546L290.492 178.704L276.978 140.972L263.464 178.704L248.82 164.625L234.176 183.192V196.722H358.626V157.511Z" fill="#319DFF" stroke="#24242E" stroke-width="2" stroke-linecap="round" stroke-linejoin="round"/>
<path d="M656.743 167.584C656.743 167.584 651.224 152.989 635.45 154.568C619.676 156.148 612.595 168.764 615.354 177.042C616.489 180.841 617.94 184.538 619.692 188.095C619.692 188.095 614.556 185.718 616.135 193.996C617.714 202.274 629.549 200.645 631.511 199.913C633.472 199.182 642.165 177.042 656.743 167.584Z" fill="#24242E" stroke="#24242E" stroke-linecap="round" stroke-linejoin="round"/>
<path d="M556.312 309.087L528.32 323.083C527.817 323.336 527.391 323.721 527.089 324.197C526.788 324.673 526.621 325.222 526.607 325.786C526.594 326.349 526.734 326.906 527.012 327.396C527.29 327.886 527.697 328.291 528.187 328.568L602.87 370.572C603.497 370.927 604.228 371.053 604.937 370.929C605.647 370.804 606.291 370.438 606.76 369.891L624.296 349.529C624.596 349.178 624.814 348.764 624.935 348.319C625.056 347.873 625.077 347.406 624.996 346.952C624.915 346.497 624.734 346.066 624.466 345.69C624.199 345.313 623.851 345.001 623.449 344.775L559.221 309.137C558.777 308.892 558.28 308.76 557.773 308.751C557.266 308.742 556.764 308.858 556.312 309.087Z" fill="#24242E" stroke="#24242E" stroke-linecap="round" stroke-linejoin="round"/>
<path d="M624.579 334.303L612.794 326.657C612.794 326.657 603.967 316.684 600.659 315.022C597.352 313.359 575.128 317.349 575.128 317.349L623.964 344.974L624.579 334.303Z" fill="#FAE9DE" stroke="#24242E" stroke-width="2" stroke-linecap="round" stroke-linejoin="round"/>
<path d="M600.51 322.236C600.51 322.236 591.833 322.618 586.481 320.341C581.129 318.064 578.054 319.127 580.846 323.665C583.639 328.203 592.299 327.771 592.299 327.771C592.299 327.771 599.862 336.979 609.037 333.372" fill="#FAE9DE"/>
<path d="M600.51 322.236C600.51 322.236 591.833 322.618 586.481 320.341C581.129 318.064 578.054 319.127 580.846 323.665C583.639 328.203 592.299 327.771 592.299 327.771C592.299 327.771 599.862 336.979 609.037 333.372" stroke="#24242E" stroke-width="2" stroke-linecap="round" stroke-linejoin="round"/>
<path d="M719.906 719.254C719.906 719.254 724.893 738.219 724.444 741.511C723.995 744.802 713.723 747.694 707.955 747.694C702.144 748.02 696.36 748.708 690.635 749.755L691.05 719.254H719.906Z" fill="white" stroke="#263238" stroke-linecap="round" stroke-linejoin="round"/>
<path d="M684.867 537.026C684.867 537.026 690.219 581.906 692.28 590.632C694.341 599.359 704.647 614.119 708.769 637.174C712.892 660.229 720.737 713.852 720.737 715.098C720.737 716.345 721.552 720.085 721.967 722.512C721.967 722.512 712.892 726.235 706.309 725.404C702.136 724.859 698.004 724.031 693.942 722.927C693.942 722.927 696.818 705.208 690.618 673.46C684.418 641.712 678.351 608.833 674.561 585.679C670.771 562.524 684.867 537.026 684.867 537.026Z" fill="#999999" stroke="#263238" stroke-linecap="round" stroke-linejoin="round"/>
<path d="M663.84 714.3C661.169 718.154 657.981 721.621 654.365 724.606C647.351 730.789 634.153 737.388 630.446 739.034C626.739 740.68 623.797 740.696 624.678 744.403C625.559 748.11 631.676 751.052 650.243 751.052C668.81 751.052 688.574 750.221 690.635 749.805C692.696 749.39 698.946 749.39 698.946 744.819C698.946 740.247 696.885 722.146 696.885 722.146L663.84 714.3Z" fill="white" stroke="#263238" stroke-linecap="round" stroke-linejoin="round"/>
<path d="M620.174 442.214C620.153 465.364 621.529 488.494 624.296 511.478C628.834 548.163 642.032 592.693 642.032 592.693C642.032 592.693 648.681 628.547 650.676 640.897C652.67 653.247 663.391 701.917 663.391 701.917L658.854 708.1L659.685 718.821L676.174 722.528C682.914 724.209 689.838 725.041 696.785 725.005C696.785 725.005 697.616 703.562 697.201 700.687C696.785 697.811 694.309 684.198 693.876 679.66C693.444 675.122 694.691 624.807 691.815 613.288C688.94 601.769 683.97 584.831 683.97 570.07C683.97 555.31 695.106 482.672 695.106 482.672C695.106 482.672 707.058 465.767 707.058 455.86C707.19 450.888 706.777 445.916 705.828 441.033L620.174 442.214Z" fill="#CEC3C3" stroke="#24242E" stroke-width="2" stroke-linecap="round" stroke-linejoin="round"/>
<path d="M678.584 687.971C679.515 697.08 679.914 703.147 679.914 703.147C679.914 703.147 677.254 704.46 678.584 709.098C679.914 713.735 680.579 717.06 680.579 717.06" stroke="#263238" stroke-width="0.75" stroke-linecap="round" stroke-linejoin="round"/>
<path d="M651.955 489.154C650.575 509.951 651.288 530.833 654.083 551.487C660.732 597.863 671.968 639.584 675.276 661.459C676.274 668.108 677.088 674.441 677.753 680.175" stroke="#263238" stroke-width="1.5" stroke-linecap="round" stroke-linejoin="round"/>
<path d="M654.731 462.659C654.731 462.659 653.485 469.956 652.487 481.791" stroke="#263238" stroke-width="1.5" stroke-linecap="round" stroke-linejoin="round"/>
<path d="M699.727 180.998C699.727 180.998 704.847 160.486 735.598 162.846C766.348 165.207 765.966 193.281 765.966 193.281L759.317 190.123C759.317 190.123 764.836 206.296 758.519 218.115C752.203 229.933 736.046 236.648 725.408 234.737C714.77 232.825 703.284 222.786 701.622 217.267C699.96 211.748 706.027 192.434 699.727 180.998Z" fill="#24242E" stroke="#24242E" stroke-linecap="round" stroke-linejoin="round"/>
<path d="M638.608 178.621C638.608 178.621 636.248 182.577 631.511 190.855C626.773 199.132 628.751 206.612 625.593 210.568C622.435 214.524 613.775 214.109 614.955 218.048C616.135 221.988 621.255 224.697 621.255 224.697C621.255 224.697 621.255 246.771 623.632 249.531C626.009 252.29 644.127 247.552 644.127 247.552C644.127 247.552 647.684 253.088 645.307 265.305C642.93 277.522 621.654 311.431 618.894 328.386C616.135 345.34 625.543 387.527 625.543 387.527L616.484 449.029C632.576 454.489 649.607 456.632 666.55 455.328C693.76 452.968 710.316 447.45 710.316 447.45L692.231 376.124C692.231 376.124 693.81 325.66 690.27 297.668C686.729 269.676 677.653 262.978 677.653 252.788C677.653 242.599 690.652 237.014 698.93 227.157C703.482 221.051 706.26 213.806 706.958 206.222C707.656 198.637 706.247 191.007 702.886 184.173C696.42 170.227 675.675 164.858 661.48 164.459C647.285 164.06 638.608 178.621 638.608 178.621Z" fill="#FAE9DE" stroke="#263238" stroke-width="2" stroke-linecap="round" stroke-linejoin="round"/>
<path d="M644.126 247.619L652.77 245.691L647.384 256.445C646.755 253.354 645.656 250.378 644.126 247.619Z" fill="#24242E" stroke="#24242E" stroke-width="1.5" stroke-linecap="round" stroke-linejoin="round"/>
<path d="M710.365 447.599L692.231 376.124C692.231 376.124 693.81 325.659 690.269 297.668C689.518 291.482 688.267 285.367 686.529 279.384C680.728 274.879 671.786 269.194 662.66 268.496C652.072 267.682 641.5 279.932 635.932 287.661C628.984 301.757 620.556 318.18 618.894 328.419C616.135 345.373 625.543 387.56 625.543 387.56L616.484 449.062C632.576 454.522 649.607 456.665 666.55 455.362C693.81 453.051 710.365 447.599 710.365 447.599Z" fill="#FFCE26" stroke="#24242E" stroke-width="2" stroke-linecap="round" stroke-linejoin="round"/>
<path d="M661.48 164.425C647.285 164.043 638.608 178.621 638.608 178.621C638.608 178.621 637.378 180.682 634.918 184.937C637.378 182.012 646.321 172.421 650.044 182.577C652.222 188.494 646.886 196.755 649.645 199.531C652.404 202.307 657.956 208.59 657.142 209.77C656.542 211.013 656.143 212.342 655.962 213.71C655.962 213.71 663.059 203.471 668.578 209.77C674.096 216.07 666.6 227.905 666.6 227.905L661.879 229.484C661.879 229.484 677.254 246.838 680.014 246.838C680.778 246.838 682.773 240.92 686.313 239.74C690.815 235.842 695.032 231.626 698.93 227.124C703.482 221.017 706.26 213.773 706.958 206.188C707.656 198.604 706.247 190.974 702.886 184.139C696.42 170.193 675.675 164.824 661.48 164.425Z" fill="#24242E" stroke="#24242E" stroke-width="1.5" stroke-linecap="round" stroke-linejoin="round"/>
<path d="M634.635 209.521C634.203 211.532 633.156 213.028 632.308 212.845C631.46 212.663 631.111 210.884 631.543 208.856C631.975 206.828 633.023 205.332 633.87 205.532C634.718 205.731 635.134 207.493 634.635 209.521Z" fill="#263238"/>
<path d="M631.51 199.93C631.51 199.93 635.849 195.21 638.608 201.11" stroke="#263238" stroke-width="2" stroke-linecap="round" stroke-linejoin="round"/>
<path d="M624.413 229.484C624.413 229.484 625.211 231.063 629.549 229.484" stroke="#263238" stroke-width="2" stroke-linecap="round" stroke-linejoin="round"/>
<path d="M650.443 289.822C650.443 289.822 644.525 298.133 642.132 313.476C639.738 328.818 641.733 378.917 641.733 378.917C641.733 378.917 608.223 369.459 597.169 363.957C592.178 361.583 587.312 358.954 582.592 356.078C582.592 356.078 579.034 347.767 576.275 344.642C573.516 341.517 566.036 340.703 563.277 338.725C560.517 336.747 558.539 330.413 554.966 332.807C554.369 333.116 553.864 333.575 553.499 334.139C553.133 334.703 552.921 335.352 552.882 336.023C552.844 336.693 552.98 337.362 553.279 337.964C553.577 338.566 554.027 339.08 554.583 339.456C556.163 340.653 562.063 346.554 562.063 346.554L547.103 339.905C547.103 339.905 545.923 345.822 547.885 347.8C549.846 349.778 553.802 353.319 553.802 353.319C553.802 353.319 559.72 361.63 563.277 363.558C566.828 365.209 570.522 366.533 574.314 367.514C577.838 368.694 581.395 371.703 584.553 373.614L604.649 385.831C615.058 392.088 626.073 397.273 637.528 401.307C644.708 403.833 662.278 411.546 668.511 403.817C671.204 400.492 670.373 390.519 671.071 386.363C675.476 359.918 681.161 333.306 681.161 306.395" fill="#FFCE26"/>
<path d="M650.443 289.822C650.443 289.822 644.525 298.133 642.132 313.476C639.738 328.818 641.733 378.917 641.733 378.917C641.733 378.917 608.223 369.459 597.169 363.957C592.178 361.583 587.312 358.954 582.592 356.078C582.592 356.078 579.034 347.767 576.275 344.642C573.516 341.517 566.036 340.703 563.277 338.725C560.517 336.747 558.539 330.413 554.966 332.807C554.369 333.116 553.864 333.575 553.499 334.139C553.133 334.703 552.921 335.352 552.882 336.023C552.844 336.693 552.98 337.362 553.279 337.964C553.577 338.566 554.027 339.08 554.583 339.456C556.163 340.653 562.063 346.554 562.063 346.554L547.103 339.905C547.103 339.905 545.923 345.822 547.885 347.8C549.846 349.778 553.802 353.319 553.802 353.319C553.802 353.319 559.72 361.63 563.277 363.558C566.828 365.209 570.522 366.533 574.314 367.514C577.838 368.694 581.395 371.703 584.553 373.614L604.649 385.831C615.058 392.088 626.073 397.273 637.528 401.307C644.708 403.833 662.278 411.546 668.511 403.817C671.204 400.492 670.373 390.519 671.071 386.363C675.476 359.918 681.161 333.306 681.161 306.395" stroke="#24242E" stroke-width="2" stroke-linecap="round" stroke-linejoin="round"/>
<path d="M629.815 375.41C619.06 372.085 603.951 367.315 597.202 363.94C592.211 361.567 587.345 358.937 582.625 356.061C582.625 356.061 579.068 347.75 576.308 344.626C573.549 341.501 566.069 340.686 563.31 338.708C560.551 336.73 558.573 330.397 554.999 332.791C554.403 333.1 553.897 333.559 553.532 334.123C553.167 334.686 552.954 335.336 552.916 336.006C552.877 336.677 553.014 337.346 553.312 337.948C553.61 338.55 554.06 339.064 554.617 339.439C556.196 340.636 562.097 346.537 562.097 346.537L547.137 339.888C547.137 339.888 545.957 345.806 547.918 347.784C549.879 349.762 553.835 353.302 553.835 353.302C553.835 353.302 559.753 361.613 563.31 363.541C566.861 365.193 570.555 366.517 574.347 367.497C577.871 368.678 581.428 371.686 584.586 373.598L604.682 385.815C611.155 389.709 617.867 393.19 624.778 396.237L629.815 375.41Z" fill="#FAE9DE" stroke="#24242E" stroke-width="2" stroke-linecap="round" stroke-linejoin="round"/>
<path d="M653.202 390.353L641.766 378.917L644.924 389.571" stroke="#263238" stroke-width="2" stroke-linecap="round" stroke-linejoin="round"/>
<path d="M149.919 550.656C149.919 550.656 142.788 593.408 133.479 632.868C124.171 672.329 126.831 727.132 126.831 727.132C126.831 727.132 121.844 737.554 126.282 742.491C130.72 747.428 137.801 745.815 139.447 745.815C141.092 745.815 152.595 745.267 152.595 745.267C152.595 745.267 161.405 693.157 164.729 646.016C168.053 598.876 165.277 527.086 161.986 529.828C158.695 532.571 151.581 546.816 151.581 546.816L149.919 550.656Z" fill="#263238" stroke="#263238" stroke-linecap="round" stroke-linejoin="round"/>
<path d="M127.446 411.995C127.446 411.995 120.797 450.358 122.459 461.312C123.92 469.66 125.936 477.9 128.493 485.979C128.493 485.979 143.287 551.753 144.932 556.69C146.578 561.626 144.932 620.269 141.608 646.017C138.283 671.764 143.802 688.769 144.932 696.997C146.063 705.225 145.481 732.069 145.481 732.069L144.384 747.411C144.384 747.411 152.063 750.154 165.76 750.154C179.456 750.154 208.512 751.816 208.512 751.816C208.512 751.816 226.048 751.268 224.402 743.605C222.757 735.942 203.026 732.086 197.558 727.149C194.283 724.217 191.17 721.11 188.233 717.841C188.233 717.841 188.781 712.355 187.684 709.613C186.587 706.87 182.199 706.87 182.698 703.047C183.196 699.224 192.571 612.058 199.702 589.585C206.833 567.112 212.301 475.042 211.753 459.151C211.204 443.261 207.946 419.125 207.946 419.125L127.446 411.995Z" fill="#24242E" stroke="#24242E" stroke-linecap="round" stroke-linejoin="round"/>
<path d="M133.147 262.396C133.147 262.396 116.957 296.77 114.614 320.374C112.27 343.977 125.052 402.62 125.052 402.62C125.052 402.62 120.066 417.447 123.706 419.807C127.346 422.167 210.008 426.555 210.008 426.555C210.008 426.555 214.994 425.874 214.994 421.569C214.994 417.264 213.648 414.155 212.966 410.449C212.285 406.742 213.98 330.879 206.567 314.041C199.153 297.202 183.978 276.624 183.978 276.624L133.147 262.396Z" fill="#D4D4D4" stroke="#24242E" stroke-width="2" stroke-linecap="round" stroke-linejoin="round"/>
<path d="M147.741 401.688C156.899 389.621 170.663 371.054 180.436 355.994" stroke="#24242E" stroke-width="2" stroke-linecap="round" stroke-linejoin="round"/>
<path d="M138.034 414.355C138.034 414.355 139.863 412.027 142.838 408.155" stroke="#24242E" stroke-width="2" stroke-linecap="round" stroke-linejoin="round"/>
<path d="M179.107 348.714C179.107 348.714 147.309 370.572 143.336 371.985" stroke="#24242E" stroke-width="2" stroke-linecap="round" stroke-linejoin="round"/>
<path d="M202.245 170.01C202.245 170.01 207.647 152.142 208.661 146.739C209.422 143.109 210.669 139.598 212.368 136.301V149.449C212.368 149.449 216.407 144.728 220.795 138.993C225.184 133.259 229.223 133.608 227.527 139.675C225.832 145.742 221.46 152.474 221.128 153.488C220.075 157.847 218.726 162.129 217.089 166.304C215.114 169.927 212.739 173.317 210.008 176.41L202.245 170.01Z" fill="#FAE9DE" stroke="#24242E" stroke-width="2" stroke-linecap="round" stroke-linejoin="round"/>
<path d="M180.337 183.507L202.245 170.01C202.245 170.01 208.312 169.329 210.008 176.41C211.703 183.491 210.673 179.452 210.673 179.452L193.485 203.72L180.337 183.507Z" fill="#D4D4D4" stroke="#24242E" stroke-width="2" stroke-linecap="round" stroke-linejoin="round"/>
<path d="M177.312 174.747C177.312 174.747 160.79 157.544 156.75 158.907C152.711 160.27 154.723 167.334 154.723 167.334C154.723 167.334 144.949 163.611 144.6 166.32L144.267 169.013C144.267 169.013 126.748 179.468 122.027 190.622C117.306 201.775 116.625 212.529 122.027 218.596C127.429 224.664 140.561 246.239 140.561 246.239L140.893 256.694L174.27 265.122L177.312 250.96C177.312 250.96 193.153 250.96 194.499 248.599C195.846 246.239 196.527 220.342 196.527 220.342L203.591 211.565C203.591 211.565 190.792 196.738 188.765 192.35C185.511 186.135 181.676 180.241 177.312 174.747Z" fill="#FAE9DE" stroke="#263238" stroke-width="2" stroke-linecap="round" stroke-linejoin="round"/>
<path d="M195.768 227.094C195.768 227.094 194.106 229.189 190 225" stroke="#263238" stroke-width="2" stroke-linecap="round" stroke-linejoin="round"/>
<path d="M177.312 174.747C177.312 174.747 160.79 157.544 156.75 158.907C152.711 160.27 154.723 167.334 154.723 167.334C154.723 167.334 144.949 163.611 144.6 166.32L144.267 169.013C144.267 169.013 126.748 179.468 122.027 190.622C117.306 201.775 116.625 212.529 122.027 218.597C126.199 223.284 134.992 237.246 138.765 243.33C141.043 243.608 143.347 243.569 145.614 243.214C155.055 241.552 161.454 230.731 161.454 230.731C161.454 230.731 155.055 228.719 154.806 220.292C154.556 211.865 159.792 210.169 159.792 210.169C159.792 210.169 164.513 215.571 168.552 213.211C172.591 210.851 163.565 206.462 162.153 203.088C160.3 198.663 161.986 188.203 166.647 182.959C171.308 177.715 173.639 176.55 177.312 174.747Z" fill="#24242E" stroke="#24242E" stroke-linecap="round" stroke-linejoin="round"/>
<path d="M186.653 200.362C187.318 202.207 187.202 203.919 186.421 204.202C185.639 204.485 184.459 203.221 183.794 201.376C183.129 199.531 183.246 197.819 184.044 197.537C184.841 197.254 186.005 198.517 186.653 200.362Z" fill="#24242E"/>
<path d="M178.991 194.943C178.991 194.943 180.337 185.502 186.404 189.541L178.991 194.943Z" fill="#24242E"/>
<path d="M178.991 194.943C178.991 194.943 180.337 185.502 186.404 189.541" stroke="#24242E" stroke-linecap="round" stroke-linejoin="round"/>
<path d="M161.454 230.697L167.854 229.018L169.549 234.072" stroke="#24242E" stroke-width="2" stroke-linecap="round" stroke-linejoin="round"/>
<path d="M132.133 250.245C133.147 250.245 185.739 266.767 185.739 266.767L186.737 282.276L130.787 265.421L132.133 250.245Z" fill="#D4D4D4" stroke="#24242E" stroke-width="2" stroke-linecap="round" stroke-linejoin="round"/>
<path d="M141.907 324.745C141.907 324.745 204.606 352.055 221.81 353.734C239.014 355.413 316.871 274.53 316.871 274.53L307.762 262.728C307.762 262.728 244.05 295.424 236.288 298.117C228.525 300.809 164.148 280.248 159.427 279.251C154.706 278.253 144.251 279.915 140.212 285.318" fill="#D4D4D4"/>
<path d="M141.907 324.745C141.907 324.745 204.606 352.055 221.81 353.734C239.014 355.413 316.871 274.53 316.871 274.53L307.762 262.728C307.762 262.728 244.05 295.424 236.288 298.117C228.525 300.809 164.148 280.248 159.427 279.251C154.706 278.253 144.251 279.915 140.212 285.318" stroke="#24242E" stroke-width="2" stroke-linecap="round" stroke-linejoin="round"/>
<path d="M162.135 333.521L137.518 335.533" stroke="#24242E" stroke-width="2" stroke-linecap="round" stroke-linejoin="round"/>
<path d="M300 268.463L310.122 280.929" stroke="#24242E" stroke-width="2" stroke-linecap="round" stroke-linejoin="round"/>
<path d="M307.762 262.728L317.203 249.58L321.242 237.446C321.924 235.418 328.323 231.046 330.351 228.337C332.379 225.628 334.39 219.577 336.418 221.256C338.446 222.935 338.08 226.658 337.432 228.337C336.784 230.016 333.376 233.739 333.044 235.418C332.711 237.097 353.273 231.711 353.273 231.711C353.273 231.711 356.597 232.725 355.633 235.418C354.428 237.928 352.956 240.302 351.245 242.499C351.245 242.499 347.206 255.315 344.164 258.34C341.122 261.365 326.977 265.421 326.977 265.421L316.871 274.53L307.762 262.728Z" fill="#FAE9DE" stroke="#24242E" stroke-width="2" stroke-linecap="round" stroke-linejoin="round"/>
<path d="M131.26 36.1646L114.216 53.2087L144.435 83.4376C145.555 84.5589 146.885 85.4485 148.349 86.0554C149.813 86.6623 151.382 86.9747 152.967 86.9747C154.552 86.9747 156.121 86.6623 157.585 86.0554C159.049 85.4485 160.379 84.5589 161.499 83.4376C162.618 82.3172 163.504 80.9853 164.104 79.5194C165.309 76.5772 165.302 73.278 164.085 70.341C163.485 68.875 162.599 67.5431 161.479 66.4228L131.27 36.1548L131.26 36.1646Z" fill="#95C9F8"/>
<path d="M166.573 57.0289L192.903 30.6986L185.214 23.0092L179.121 16.9164L152.791 43.2466L166.573 57.0289ZM95.644 100.393L121.964 74.0632L128.087 80.2637L135.786 87.9728L109.456 114.283L95.644 100.393ZM102.834 46.5183L124.11 25.3307L127.46 39.6419L117.194 49.9076L102.834 46.5183Z" fill="#FFCE26"/>
<path d="M92 98.2091L122.111 68.1664L138.891 84.9559L108.78 114.999L92 98.2091ZM94.8505 98.2091L108.77 112.099L117.586 103.45L103.588 89.5108L94.8505 98.2091ZM104.058 89.0112L117.987 102.911L127.058 93.9873L113.08 80.0189L104.058 89.0112ZM113.56 79.4998L127.518 93.4975L136.08 84.9559L122.111 70.9875L113.56 79.4998ZM155.21 89.5303C151.271 89.5247 147.495 87.9571 144.709 85.1714L112.796 53.2087L116.087 49.9272L100.924 47.4196L128.194 20.1588L130.692 35.3124L133.983 32.0211L165.917 63.9544C167.303 65.3251 168.399 66.9608 169.139 68.7639C170.264 71.4774 170.558 74.4635 169.984 77.3442C169.411 80.2248 167.995 82.8705 165.917 84.9461L165.682 85.191C164.315 86.5686 162.687 87.6579 160.892 88.3941C159.092 89.1462 157.161 89.5324 155.21 89.5303ZM115.617 53.2087L146.14 83.7902C147.333 84.9826 148.747 85.9309 150.303 86.5819C152.65 87.5574 155.234 87.8129 157.726 87.3158C160.219 86.8187 162.507 85.5914 164.3 83.7902L164.536 83.5453C166.934 81.1399 168.281 77.8815 168.281 74.4845C168.281 71.0875 166.934 67.8291 164.536 65.4237L133.983 34.8422L115.617 53.2087ZM105.077 46.0874L117.811 48.1934L128.968 37.0364L126.862 24.3023L105.077 46.0874ZM149.157 41.1015L179.258 11L196.048 27.7992L165.966 57.8714L149.157 41.1015ZM151.978 41.1015L165.966 55.0601L174.507 46.5086L160.549 32.5403L151.978 41.1015ZM160.99 32.0701L174.997 46.0286L183.999 37.0364L170.041 23.0484L160.99 32.0701ZM170.481 22.5391L184.489 36.4976L193.217 27.809L179.268 13.8309L170.481 22.5391Z" fill="#18193F"/>
<path d="M103.073 87.6302L101.688 89.0155L117.55 104.877L118.935 103.492L103.073 87.6302Z" fill="#18193F"/>
<path d="M113.391 77.8751L112.005 79.2604L127.867 95.1219L129.252 93.7367L113.391 77.8751Z" fill="#18193F"/>
<path d="M160.399 30.859L159.014 32.2443L174.876 48.1058L176.261 46.7205L160.399 30.859Z" fill="#18193F"/>
<path d="M170.391 20.8724L169.005 22.2577L184.867 38.1193L186.252 36.734L170.391 20.8724Z" fill="#18193F"/>
<path d="M551.568 65.5133C556.273 65.5133 560.087 61.6989 560.087 56.9935C560.087 52.2882 556.273 48.4738 551.568 48.4738C546.862 48.4738 543.048 52.2882 543.048 56.9935C543.048 61.6989 546.862 65.5133 551.568 65.5133Z" fill="#FFC300"/>
<path d="M637.094 65.5133C641.799 65.5133 645.614 61.6989 645.614 56.9935C645.614 52.2882 641.799 48.4738 637.094 48.4738C632.389 48.4738 628.574 52.2882 628.574 56.9935C628.574 61.6989 632.389 65.5133 637.094 65.5133Z" fill="#FFC300"/>
<path d="M644 59.5C641.6 59.1 610 55.6667 594.5 54C581.167 55.3333 553.5 58 549.5 58C544.5 58 541 59.5 540.5 62C540 64.5 544 65 549.5 65C555 65 565.5 64.5 570 65C574.5 65.5 589 72 595.5 72C602 72 617.5 65.5 622 64.5C626.5 63.5 639 65.5 642.5 65.5C646 65.5 647.5 64 647.5 62.5C647.5 61 647 60 644 59.5Z" fill="white"/>
<path d="M637.5 91.9999C637.5 88.9999 634.5 87.9999 632.5 88.4999C631.167 89 628.5 90.5 628.5 92.5C628.5 95 630.5 96.5 633.5 97C636.5 97.5 637.5 94.9999 637.5 91.9999Z" fill="white"/>
<path d="M560 94.5C559.5 97 557 97.5 554.5 97C552.5 96.4999 552 94 551.5 91.5C551 89 554 88.4999 557 88C560 87.5 560.5 91.9999 560 94.5Z" fill="white"/>
<path d="M637.5 91.9999C637.5 88.9999 634.5 87.9999 632.5 88.4999C631.167 89 628.5 90.5 628.5 92.5C628.5 95 630.5 96.5 633.5 97C636.5 97.5 637.5 94.9999 637.5 91.9999Z" stroke="black"/>
<path d="M560 94.5C559.5 97 557 97.5 554.5 97C552.5 96.4999 552 94 551.5 91.5C551 89 554 88.4999 557 88C560 87.5 560.5 91.9999 560 94.5Z" stroke="black"/>
<path d="M594.279 53.6677H594.536L600.479 54.2425L615.168 55.6899C614.936 51.4591 613.421 47.3994 610.824 44.051C608.228 40.7027 604.673 38.2245 600.633 36.9464C596.914 35.802 592.953 35.6933 589.177 36.632C585.4 37.5707 581.951 39.5212 579.2 42.2738C575.724 45.88 573.662 50.6167 573.391 55.618C580.289 54.9611 587.135 54.2733 594.033 53.6267C594.074 53.6129 594.118 53.6094 594.161 53.6166C594.204 53.6238 594.245 53.6413 594.279 53.6677Z" fill="#6DBAFF"/>
<path d="M633.327 98.1039C632.144 98.1058 630.989 97.7526 630.01 97.09C629.03 96.4275 628.273 95.4862 627.835 94.3881C627.821 94.2943 627.8 94.2017 627.773 94.1109C627.766 94.0427 627.766 93.9738 627.773 93.9056C627.556 92.8025 627.638 91.6614 628.009 90.6004L628.153 90.1795L627.753 89.9742C623.257 87.6441 620.434 83.2918 620.567 78.8677C620.567 78.1594 620.67 77.4307 620.752 76.6711C620.978 74.6797 621.224 72.637 620.29 70.7278C619.356 68.8185 617.591 67.0324 615.425 67.0324C615.237 67.0175 615.048 67.0175 614.86 67.0324H614.563C614.399 67.0286 614.236 67.0009 614.08 66.9503H613.936H613.782C613.125 67.1351 612.499 67.3198 611.842 67.5354C609.851 68.2334 607.819 69.0854 605.858 69.9066C601.824 71.6105 598.18 72.9552 594.31 72.9552C593.565 72.9552 592.821 72.9038 592.083 72.8012C588.996 72.2372 585.98 71.3353 583.091 70.1119L581.448 69.4549C579.395 68.6132 577.25 67.751 575.074 67.0838H574.971H574.858H574.561H574.273C574.08 67.0509 573.884 67.0338 573.688 67.0324C571.512 67.0324 569.654 68.9725 568.771 70.892C567.889 72.8115 568.135 74.7618 568.351 76.7019C568.433 77.4614 568.515 78.1697 568.535 78.878C568.669 83.3021 565.846 87.6544 561.35 89.9845L560.95 90.1898L561.093 90.6106C561.461 91.643 561.567 92.7505 561.401 93.8338C561.396 93.8987 561.396 93.9639 561.401 94.0288V94.1006V94.2751V94.3983C560.959 95.4932 560.2 96.4314 559.222 97.0933C558.244 97.7551 557.091 98.1105 555.91 98.1142C555.253 98.1171 554.601 97.9952 553.99 97.7549C553.314 97.4932 552.702 97.0892 552.195 96.5703C551.689 96.0514 551.3 95.4297 551.054 94.7473C550.782 93.9993 550.67 93.202 550.726 92.4078C550.783 91.6136 551.007 90.8403 551.383 90.1384C551.881 89.2254 552.611 88.4599 553.5 87.9192C554.388 87.3786 555.404 87.0818 556.443 87.059C557.232 87.0509 558.01 87.2453 558.702 87.6236C559.04 87.808 559.36 88.0246 559.656 88.2703L559.913 88.5063L560.221 88.3524C562.423 87.2251 564.228 85.4524 565.394 83.2713C566.626 81.0028 566.421 78.7959 566.205 76.4658C566.205 75.9628 566.113 75.4393 566.082 74.9466C565.959 73.6351 566.1 72.3122 566.494 71.0556C566.889 69.7989 567.531 68.6336 568.381 67.6278C568.649 67.2884 568.955 66.9817 569.295 66.7142L570.321 65.9136L569.049 65.7699C566.996 65.5748 564.943 65.4825 562.982 65.4825C561.802 65.4825 560.621 65.4825 559.471 65.5851C557.798 65.6467 556.084 65.8007 554.431 65.9546C552.307 66.1497 550.11 66.3447 547.965 66.3447H547.646C544.403 66.3447 540.944 65.9033 539.927 63.2653C539.71 62.6026 539.691 61.8909 539.874 61.2178C540.056 60.5448 540.432 59.9398 540.954 59.4776C541.604 58.9044 542.382 58.496 543.222 58.2868C543.957 58.1134 544.7 57.9832 545.45 57.8968C550.305 57.3938 555.201 56.8703 560.057 56.4084L573.401 55.1048C580.288 54.4581 587.186 53.8011 594.033 53.1134H594.526L615.117 55.1664L624.838 56.1107L636.909 57.3014C638.962 57.4862 640.861 57.6607 642.852 57.8865C643.722 57.9491 644.584 58.0899 645.429 58.3074C646.25 58.5262 647.01 58.934 647.646 59.4981C648.17 59.9587 648.547 60.5637 648.73 61.2373C648.912 61.9109 648.892 62.6234 648.672 63.2858C648.407 63.8779 648.018 64.4062 647.531 64.8348C647.044 65.2634 646.471 65.5823 645.85 65.7699C644.27 66.3032 642.609 66.5534 640.943 66.5089C639.311 66.5089 637.658 66.3447 636.067 66.1907L635.205 66.1086C631.356 65.7391 628.42 65.5851 625.679 65.5851C623.801 65.5762 621.923 65.6652 620.054 65.852L618.884 65.9649L619.756 66.745C620.078 67.0253 620.38 67.327 620.66 67.6483C621.53 68.647 622.187 69.8134 622.59 71.0757C622.992 72.338 623.132 73.6693 623 74.9876C623 75.4393 622.918 75.8909 622.877 76.3323C622.641 78.7343 622.415 80.9925 623.678 83.3226C624.904 85.5103 626.775 87.2667 629.036 88.3524L629.344 88.5063L629.6 88.2805C629.916 88.0203 630.261 87.7965 630.627 87.6133C631.314 87.2432 632.084 87.0526 632.865 87.059C633.905 87.0787 634.922 87.3741 635.811 87.9151C636.7 88.4561 637.429 89.2233 637.925 90.1384C638.304 90.8432 638.528 91.6201 638.585 92.418C638.642 93.2159 638.529 94.0167 638.254 94.7679C638.009 95.4464 637.621 96.0644 637.116 96.5798C636.611 97.0951 636.001 97.4959 635.328 97.7549C634.69 97.9996 634.01 98.1181 633.327 98.1039ZM632.731 89.0606C632.139 89.0596 631.564 89.2585 631.099 89.6252C630.533 90.0937 630.102 90.7057 629.853 91.3972C629.604 92.0888 629.545 92.8345 629.683 93.5566C629.952 94.2844 630.44 94.9109 631.079 95.3502C631.719 95.7895 632.479 96.0199 633.255 96.0099C633.737 96.0187 634.214 95.9169 634.651 95.7122C635.054 95.5276 635.412 95.2546 635.696 94.9135C635.98 94.5724 636.184 94.1719 636.293 93.7414C636.423 93.2144 636.435 92.6652 636.328 92.133C636.222 91.6007 636 91.0985 635.677 90.6619C635.337 90.1917 634.896 89.8038 634.386 89.5266C633.876 89.2495 633.311 89.0903 632.731 89.0606ZM556.31 89.0606C555.732 89.0886 555.168 89.245 554.658 89.5184C554.149 89.7919 553.707 90.1755 553.364 90.6414C553.045 91.07 552.824 91.5631 552.716 92.0862C552.608 92.6093 552.615 93.1497 552.738 93.6695C552.839 94.1147 553.041 94.531 553.327 94.8867C553.614 95.2424 553.977 95.5282 554.39 95.7225C554.833 95.9314 555.318 96.0367 555.807 96.0304C556.574 96.0484 557.327 95.8267 557.962 95.3961C558.597 94.9655 559.081 94.3476 559.348 93.6285C559.507 92.897 559.458 92.1358 559.208 91.4304C558.958 90.725 558.516 90.1034 557.932 89.6355C557.472 89.2634 556.901 89.054 556.31 89.0401V89.0606ZM562.582 63.4911C567.873 63.3848 573.142 64.201 578.153 65.9033C579.683 66.4576 581.233 67.0838 582.68 67.6894L584.333 68.3669C585.359 68.7672 586.386 69.1265 587.361 69.496C589.605 70.3449 591.974 70.8199 594.372 70.9023C595.06 70.9015 595.746 70.8432 596.425 70.7278C599.227 70.1951 601.964 69.3587 604.585 68.2334L606.772 67.3609C609.511 66.1639 612.343 65.1924 615.24 64.456C618.423 63.7708 621.674 63.4471 624.93 63.4911C627.044 63.4911 629.303 63.5835 632.249 63.8093L634.681 64.0043L636.899 64.1686C638.13 64.2404 639.526 64.3225 640.881 64.3225H641.61H642.339H642.452C643.663 64.2404 645.306 64.1378 646.291 63.1626C646.47 63.0131 646.604 62.8169 646.678 62.5959C646.753 62.3749 646.764 62.1376 646.712 61.9103C646.424 60.812 644.72 60.3295 644.659 60.309C643.414 60.0287 642.146 59.8604 640.871 59.806C640.348 59.806 639.845 59.7342 639.311 59.6829L628.892 58.5845L594.69 55.2177C594.436 55.1353 594.163 55.1353 593.91 55.2177L588.428 55.7514L566.092 57.9686L559.779 58.5845L555.027 59.0567L549.299 59.611C548.899 59.611 548.488 59.6726 548.067 59.7034C546.722 59.7603 545.384 59.9216 544.064 60.1858H543.92C543.304 60.3603 542.073 60.9044 541.867 61.7871C541.815 62.0126 541.825 62.248 541.895 62.4685C541.965 62.6889 542.094 62.8862 542.268 63.0394C543.294 63.9838 544.937 64.0659 546.045 64.1686C546.661 64.1686 547.154 64.2404 547.677 64.2404H548.057C550.028 64.2404 552.009 64.0659 553.918 63.8812C554.76 63.799 555.612 63.7272 556.454 63.6656H557.1C559.051 63.5321 560.857 63.4706 562.582 63.4706V63.4911Z" fill="#18193F" stroke="#18193F" stroke-width="0.5"/>
<path d="M636.837 50.7524C636.565 50.7524 636.304 50.6443 636.111 50.4518C635.919 50.2593 635.811 49.9982 635.811 49.7259V46.1333H618.504C618.371 46.1365 618.238 46.1118 618.115 46.0607C617.992 46.0095 617.881 45.9331 617.789 45.8364C617.697 45.7397 617.626 45.6248 617.582 45.4991C617.537 45.3735 617.519 45.2398 617.529 45.1068C617.519 44.9738 617.537 44.8401 617.582 44.7144C617.626 44.5888 617.697 44.4739 617.789 44.3772C617.881 44.2804 617.992 44.2041 618.115 44.1529C618.238 44.1018 618.371 44.0771 618.504 44.0803H635.78V42.9204C635.78 42.6482 635.888 42.3871 636.081 42.1946C636.273 42.0021 636.534 41.8939 636.806 41.8939C637.079 41.8939 637.34 42.0021 637.532 42.1946C637.725 42.3871 637.833 42.6482 637.833 42.9204V44.0803H655.971C656.108 44.0695 656.246 44.0886 656.376 44.1364C656.505 44.1842 656.623 44.2594 656.72 44.357C656.818 44.4545 656.893 44.5721 656.941 44.7015C656.989 44.831 657.008 44.9692 656.997 45.1068C657.008 45.2443 656.989 45.3826 656.941 45.512C656.893 45.6415 656.818 45.759 656.72 45.8566C656.623 45.9542 656.505 46.0294 656.376 46.0772C656.246 46.1249 656.108 46.1441 655.971 46.1333H637.864V49.7362C637.875 49.8733 637.856 50.0112 637.808 50.1402C637.76 50.2692 637.684 50.3862 637.587 50.483C637.489 50.5798 637.371 50.6541 637.242 50.7006C637.112 50.7471 636.974 50.7648 636.837 50.7524Z" fill="#18193F" stroke="#18193F" stroke-width="0.5"/>
<path d="M551.814 50.7524C551.681 50.7625 551.547 50.7446 551.422 50.6998C551.296 50.6551 551.181 50.5845 551.084 50.4926C550.988 50.4007 550.911 50.2896 550.86 50.1664C550.809 50.0432 550.784 49.9106 550.787 49.7773V46.1743H533.029C532.892 46.1851 532.754 46.166 532.624 46.1182C532.495 46.0705 532.377 45.9952 532.28 45.8977C532.182 45.8001 532.107 45.6825 532.059 45.5531C532.011 45.4237 531.992 45.2854 532.003 45.1479C532.003 44.8756 532.111 44.6145 532.304 44.422C532.496 44.2295 532.757 44.1214 533.029 44.1214H550.767V42.9204C550.767 42.6482 550.875 42.3871 551.068 42.1946C551.26 42.0021 551.521 41.8939 551.793 41.8939C552.066 41.8939 552.327 42.0021 552.519 42.1946C552.712 42.3871 552.82 42.6482 552.82 42.9204V44.0803H570.054C570.192 44.0695 570.33 44.0886 570.46 44.1364C570.589 44.1842 570.707 44.2594 570.804 44.357C570.902 44.4545 570.977 44.5721 571.025 44.7015C571.073 44.831 571.092 44.9692 571.081 45.1068C571.092 45.2443 571.073 45.3826 571.025 45.512C570.977 45.6415 570.902 45.759 570.804 45.8566C570.707 45.9542 570.589 46.0294 570.46 46.0772C570.33 46.1249 570.192 46.1441 570.054 46.1333H552.861V49.7362C552.871 49.8748 552.85 50.0139 552.8 50.1436C552.751 50.2734 552.673 50.3908 552.574 50.4875C552.474 50.5843 552.354 50.6581 552.223 50.7039C552.092 50.7496 551.952 50.7662 551.814 50.7524Z" fill="#18193F" stroke="#18193F" stroke-width="0.5"/>
<mask id="mask0_2075_17424" style="mask-type:luminance" maskUnits="userSpaceOnUse" x="17" y="282" width="115" height="77">
<path d="M131.444 282H17V358.062H131.444V282Z" fill="white"/>
</mask>
<g mask="url(#mask0_2075_17424)">
<path d="M122.015 308.21C118.334 306.609 114.516 305.68 110.52 305.7C107.666 305.7 96.4848 305.799 82.4696 305.918C78.3162 302.221 64.4979 290.065 60.9153 286.922C60.3445 286.428 59.7343 285.993 59.065 285.637L56.3683 284.174C54.8526 283.344 53.14 282.949 51.4275 282.969L49.0457 283.008C47.8056 283.028 47.0773 284.431 47.7859 285.479C51.3094 290.658 59.4587 302.656 61.9586 306.076C48.8685 306.194 37.8453 306.273 35.936 306.293C34.6565 306.293 33.5542 305.878 32.7471 304.85C32.3731 304.356 32.0385 303.842 31.7235 303.308C30.5818 301.332 29.4795 299.316 28.3378 297.339C27.5111 295.896 26.6253 294.473 25.8379 293.01C25.4639 292.318 25.0309 291.705 24.4207 291.251C23.1609 290.282 21.7633 289.689 20.1492 289.788C18.7713 289.887 17.9445 290.816 17.9642 292.2C17.9642 292.654 18.0036 293.089 18.0233 293.524C18.1414 297.616 18.2988 308.546 18.4169 316.058C18.476 320.288 21.8814 323.707 26.0938 323.747C39.735 323.945 66.6435 323.905 66.6435 323.905C66.6435 323.905 47.5891 352.23 46.3686 354.069C45.9946 354.642 45.66 355.255 45.4238 355.907C45.1482 356.638 45.4828 357.054 46.2702 357.073C47.5497 357.093 48.8292 357.152 50.1087 357.133C50.7386 357.133 51.3685 357.073 51.9787 356.915C54.6164 356.263 56.8997 354.938 58.9272 353.12C65.738 346.973 92.2724 323.628 92.2724 323.628L125.244 323.846C129.633 323.846 131.444 317.857 129.81 315.129C128.255 312.579 125.834 309.871 122.015 308.21Z" fill="#5FB3FF"/>
<path d="M49.5774 358.061C48.7507 358.061 47.9436 358.041 47.1366 358.021C46.8216 358.021 46.5067 358.002 46.2114 358.002C45.2862 357.982 44.8138 357.567 44.5973 357.231C44.4201 356.954 44.1642 356.381 44.4792 355.511C44.7351 354.839 45.0894 354.167 45.5421 353.475C46.5854 351.894 60.7975 330.783 64.7934 324.853C58.455 324.853 37.511 324.853 26.0744 324.695C21.2911 324.636 17.492 320.821 17.433 316.018C17.3149 307.953 17.1377 297.516 17.0393 293.504C17.0393 293.306 17.0196 293.128 17.0196 292.93C16.9999 292.673 16.9999 292.416 16.9999 292.159C16.9606 290.242 18.2203 288.878 20.11 288.74C21.8029 288.621 23.417 289.175 25.0508 290.4C25.7201 290.894 26.2515 291.566 26.7436 292.495C27.2161 293.385 27.7475 294.274 28.2593 295.144C28.5743 295.698 28.9089 296.251 29.2435 296.824C29.7947 297.793 30.3459 298.781 30.897 299.77C31.4679 300.778 32.0387 301.786 32.6096 302.814C32.9442 303.407 33.2395 303.861 33.5544 304.237C34.1056 304.948 34.8929 305.304 35.9362 305.304H35.9559C37.8456 305.304 48.8885 305.205 60.0888 305.107C56.8212 300.461 50.0498 290.499 47.0185 286.052C46.487 285.281 46.4279 284.273 46.861 283.423C47.294 282.592 48.1405 282.059 49.0853 282.039L51.4671 281.999C53.3568 281.96 55.2268 282.415 56.9 283.324L59.5967 284.787C60.325 285.182 60.9943 285.656 61.6242 286.19C63.3367 287.692 78.1393 300.718 82.9029 304.929L92.3514 304.85C101.682 304.77 108.433 304.711 110.579 304.711C110.599 304.711 110.638 304.711 110.658 304.711C114.614 304.711 118.472 305.561 122.488 307.301C125.933 308.803 128.689 311.254 130.696 314.575C131.799 316.413 131.661 319.299 130.362 321.592C129.22 323.628 127.37 324.774 125.283 324.774L92.686 324.557C89.8121 327.087 65.9744 348.059 59.6164 353.791C57.3527 355.827 54.9315 357.152 52.2545 357.804C51.6246 357.962 50.9553 358.041 50.1679 358.041C49.9121 358.061 49.7349 358.061 49.5774 358.061ZM46.3689 356.045C46.6445 356.045 46.9004 356.065 47.1759 356.065C48.1208 356.084 49.105 356.104 50.0498 356.104C50.6797 356.104 51.2112 356.045 51.6836 355.926C54.0458 355.353 56.1717 354.187 58.1991 352.348C64.9509 346.28 91.2884 323.094 91.564 322.857C91.7412 322.699 91.9774 322.62 92.2136 322.62L125.185 322.837C127.035 322.837 128.078 321.473 128.551 320.643C129.476 318.983 129.633 316.828 128.905 315.603C127.134 312.638 124.673 310.443 121.602 309.119C117.843 307.478 114.24 306.688 110.559 306.688C110.54 306.688 110.52 306.688 110.5 306.688C108.355 306.688 101.623 306.747 92.2923 306.826L82.4699 306.905C82.2337 306.905 81.9974 306.826 81.8203 306.648C77.3913 302.735 62.0179 289.194 60.266 287.653C59.7542 287.198 59.203 286.822 58.5928 286.486L55.8961 285.024C54.5379 284.292 52.9828 283.917 51.4474 283.937L49.0656 283.976C48.7507 283.976 48.5932 284.194 48.5538 284.292C48.5145 284.391 48.416 284.628 48.5932 284.905C52.0183 289.946 60.2463 302.062 62.7462 305.462C62.9627 305.759 63.0021 306.154 62.8249 306.49C62.6675 306.826 62.3132 307.024 61.9588 307.044C50.1483 307.142 37.9243 307.241 35.9165 307.261C35.8968 307.261 35.8968 307.261 35.8772 307.261C34.2237 307.261 32.8851 306.648 31.96 305.443C31.6057 304.988 31.2513 304.454 30.8773 303.782C30.3065 302.774 29.7357 301.746 29.1648 300.738C28.6137 299.77 28.0625 298.781 27.5113 297.813C27.1964 297.259 26.8617 296.706 26.5468 296.172C26.035 295.283 25.4838 294.373 24.9917 293.464C24.6374 292.792 24.2831 292.337 23.8304 292.021C22.5903 291.072 21.4486 290.677 20.2085 290.756C19.1455 290.835 18.929 291.566 18.9487 292.159C18.9487 292.397 18.9683 292.634 18.9683 292.871C18.9683 293.069 18.988 293.286 18.988 293.484C19.0865 297.496 19.2636 307.953 19.3817 316.018C19.4408 319.734 22.3934 322.699 26.0941 322.738C39.5778 322.916 66.3681 322.896 66.624 322.896C66.9783 322.896 67.313 323.094 67.4901 323.43C67.6673 323.746 67.6476 324.142 67.4311 324.438C67.2342 324.715 48.357 352.783 47.1563 354.602C46.8216 355.076 46.5657 355.551 46.3689 356.045Z" fill="#18193F"/>
<path d="M115.599 306.175L115.894 309.377C116.248 313.409 119.654 316.473 123.689 316.394L129.575 316.276C129.575 316.295 129.122 309.772 115.599 306.175Z" fill="white"/>
<path d="M123.551 317.402C119.103 317.402 115.323 313.943 114.91 309.476L114.614 306.273C114.595 305.957 114.713 305.641 114.969 305.423C115.205 305.206 115.54 305.147 115.855 305.226C129.89 308.962 130.54 315.94 130.559 316.236C130.579 316.513 130.48 316.77 130.303 316.968C130.126 317.165 129.87 317.284 129.595 317.284L123.709 317.402C123.65 317.402 123.591 317.402 123.551 317.402ZM116.701 307.519L116.858 309.298C117.173 312.797 120.146 315.485 123.65 315.426L128.256 315.347C127.488 313.587 124.949 309.99 116.701 307.519Z" fill="#18193F"/>
<path d="M99.1033 319.754C100.68 319.754 101.958 318.471 101.958 316.888C101.958 315.305 100.68 314.022 99.1033 314.022C97.5269 314.022 96.249 315.305 96.249 316.888C96.249 318.471 97.5269 319.754 99.1033 319.754Z" fill="white"/>
<path d="M99.1032 320.743C98.5914 320.743 98.0796 320.644 97.6072 320.427C96.6623 320.031 95.934 319.28 95.56 318.311C95.1859 317.363 95.1859 316.315 95.5993 315.366C96.4261 313.409 98.6899 312.5 100.639 313.33C101.584 313.725 102.312 314.477 102.686 315.445C103.06 316.394 103.06 317.442 102.647 318.391C102.253 319.339 101.505 320.071 100.54 320.446C100.068 320.664 99.5757 320.743 99.1032 320.743ZM99.1032 315.01C98.3749 315.01 97.6859 315.445 97.3906 316.157C97.1938 316.611 97.1938 317.125 97.371 317.6C97.5481 318.074 97.9221 318.43 98.3749 318.628C98.8276 318.825 99.3395 318.825 99.8119 318.648C100.284 318.47 100.639 318.094 100.836 317.639C101.032 317.185 101.032 316.671 100.855 316.196C100.678 315.722 100.304 315.366 99.8513 315.168C99.5954 315.07 99.3395 315.01 99.1032 315.01Z" fill="#18193F"/>
<path d="M87.6863 319.715C89.2627 319.715 90.5407 318.431 90.5407 316.848C90.5407 315.265 89.2627 313.982 87.6863 313.982C86.11 313.982 84.832 315.265 84.832 316.848C84.832 318.431 86.11 319.715 87.6863 319.715Z" fill="white"/>
<path d="M87.6862 320.703C87.1744 320.703 86.6626 320.604 86.1902 320.387C85.2453 319.992 84.517 319.24 84.143 318.272C83.7689 317.323 83.7689 316.275 84.1823 315.326C84.5957 314.378 85.3241 313.646 86.2886 313.271C87.2335 312.895 88.2768 312.895 89.2217 313.31C91.1705 314.14 92.076 316.414 91.2492 318.371C90.8555 319.319 90.1075 320.051 89.1429 320.426C88.6508 320.604 88.1784 320.703 87.6862 320.703ZM87.6862 314.971C87.45 314.971 87.2138 315.01 86.9973 315.109C86.5248 315.287 86.1705 315.663 85.9737 316.117C85.7768 316.572 85.7768 317.086 85.954 317.56C86.1311 318.035 86.5052 318.39 86.9579 318.588C87.4107 318.786 87.9225 318.786 88.3949 318.608C88.8673 318.43 89.2217 318.054 89.4185 317.6C89.8319 316.651 89.3791 315.544 88.4343 315.129C88.1784 315.01 87.9422 314.971 87.6862 314.971Z" fill="#18193F"/>
<path d="M76.2889 319.656C77.8653 319.656 79.1432 318.372 79.1432 316.789C79.1432 315.206 77.8653 313.923 76.2889 313.923C74.7125 313.923 73.4346 315.206 73.4346 316.789C73.4346 318.372 74.7125 319.656 76.2889 319.656Z" fill="white"/>
<path d="M76.2696 320.644C75.7775 320.644 75.2657 320.545 74.7735 320.328C72.8247 319.497 71.9192 317.224 72.746 315.267C73.1397 314.318 73.8877 313.587 74.8523 313.211C75.7971 312.836 76.8404 312.836 77.7853 313.251C79.7341 314.081 80.6396 316.354 79.8129 318.311C79.183 319.774 77.7656 320.644 76.2696 320.644ZM76.2893 314.911C76.0531 314.911 75.8168 314.951 75.6003 315.05C75.1279 315.228 74.7735 315.603 74.5767 316.058C74.1633 317.007 74.6161 318.114 75.5609 318.529C76.5058 318.944 77.6082 318.489 78.0215 317.541C78.4349 316.592 77.9822 315.485 77.0373 315.07C76.7814 314.971 76.5255 314.911 76.2893 314.911Z" fill="#18193F"/>
<path d="M64.8724 319.616C66.4488 319.616 67.7267 318.333 67.7267 316.75C67.7267 315.167 66.4488 313.884 64.8724 313.884C63.296 313.884 62.0181 315.167 62.0181 316.75C62.0181 318.333 63.296 319.616 64.8724 319.616Z" fill="white"/>
<path d="M64.8721 320.604C64.38 320.604 63.8682 320.505 63.3761 320.288C61.4273 319.458 60.5218 317.185 61.3485 315.228C61.7422 314.279 62.4903 313.547 63.4548 313.172C64.3997 312.796 65.443 312.796 66.3879 313.211C67.3327 313.607 68.0611 314.358 68.4351 315.326C68.8091 316.275 68.8091 317.323 68.3957 318.272C67.7855 319.715 66.3682 320.604 64.8721 320.604ZM64.8721 314.872C64.6359 314.872 64.3997 314.911 64.1832 315.01C63.7107 315.188 63.3564 315.564 63.1595 316.018C62.7462 316.967 63.1989 318.074 64.1438 318.489C65.0887 318.904 66.191 318.45 66.6044 317.501C66.8012 317.046 66.8012 316.532 66.6241 316.058C66.4469 315.583 66.0729 315.228 65.6202 315.03C65.3642 314.911 65.128 314.872 64.8721 314.872Z" fill="#18193F"/>
<path d="M53.4749 319.557C55.0513 319.557 56.3292 318.273 56.3292 316.69C56.3292 315.107 55.0513 313.824 53.4749 313.824C51.8985 313.824 50.6206 315.107 50.6206 316.69C50.6206 318.273 51.8985 319.557 53.4749 319.557Z" fill="white"/>
<path d="M53.4553 320.545C52.9435 320.545 52.4317 320.446 51.9592 320.229C51.0144 319.833 50.286 319.082 49.912 318.114C49.538 317.165 49.538 316.117 49.9514 315.168C50.3451 314.22 51.0931 313.488 52.0577 313.113C53.0025 312.737 54.0458 312.737 54.9907 313.152C55.9356 313.547 56.6639 314.299 57.0379 315.267C57.412 316.216 57.412 317.264 56.9986 318.213C56.6049 319.161 55.8569 319.893 54.8923 320.268C54.4395 320.466 53.9474 320.545 53.4553 320.545ZM53.475 314.813C53.2388 314.813 53.0025 314.852 52.786 314.951C52.3136 315.129 51.9592 315.504 51.7624 315.959C51.5655 316.414 51.5655 316.928 51.7427 317.402C51.9199 317.877 52.2939 318.232 52.7466 318.43C53.1994 318.628 53.7112 318.628 54.1836 318.45C54.6561 318.272 55.0104 317.896 55.2072 317.442C55.4041 316.987 55.4041 316.473 55.2269 315.999C55.0498 315.524 54.6758 315.168 54.223 314.971C53.9671 314.872 53.7112 314.813 53.475 314.813Z" fill="#18193F"/>
<path d="M82.4449 304.925L61.9136 305.094L61.9297 307.07L82.4611 306.901L82.4449 304.925Z" fill="#18193F"/>
</g>
</svg>
